<?xml version="1.0" encoding="UTF-8"?>
<svg version="1.1" viewBox="0 0 302 43" xmlns="http://www.w3.org/2000/svg">
<g transform="matrix(1,0,0,-1,0,43)">
<path d="m120.79 20.75v-10.29c2.12-2.46 4.86-3.83 7.6-3.83 3.83 0 5.78 3.2 5.78 9.03 0 5.77-1.94 8.98-5.77 8.98-2.74 0-5.49-1.37-7.6-3.89zm-8.23 21.55h8.23v-15.04c2.46 2.12 5.55 4 10.06 4 6.8 0 11.66-5.09 11.66-15.66 0.01-10.45-4.85-15.6-11.66-15.6-4.52 0-7.6 1.83-10.06 3.89v-3.26h-8.23v41.68m36.02-41.68v30.01h8.23v-30.01h-8.23zm-0.23 41.68h8.69v-7.15h-8.69v7.15m14.39-11.67h4.12v7.55l8.18 1.14v-8.69h8.18v-6.06h-8.18v-14.58c0-2.52 1.32-2.86 2.57-2.86 1.43 0 3.89 1.03 4.69 1.37l2.91-6.11c-1.89-0.86-5.72-2.4-9.66-2.4-5.72 0-8.69 3.09-8.69 10.12v14.46h-4.12v6.06m40.37-5.71c-5.03 0-7.2-3.49-7.2-9.26s2.17-9.32 7.2-9.32c4.97 0 7.2 3.49 7.2 9.26s-2.23 9.32-7.2 9.32zm0-24.93c-10.06 0-15.55 5.77-15.55 15.66 0 9.83 5.49 15.61 15.55 15.61 10 0 15.49-5.83 15.49-15.66 0-9.84-5.49-15.61-15.49-15.61m29.49 27.04c2.63 1.83 6.86 4.23 11.66 4.23 6.46 0 8.98-3.83 8.98-9.43v-21.21h-8.23v19.32c0 2.8-0.8 4.92-3.94 4.92-3.09 0-6.63-2.17-8.46-3.89v-20.35h-8.23v30.01h8.23v-3.6m27.74-26.41v30.01h8.23v-30.01h-8.23zm-0.23 41.68h8.69v-7.15h-8.69v7.15m37.79-20.76c-2 0.92-5.43 2.69-8.35 2.69-4 0-6.52-3.37-6.52-8.58 0-5.2 2.52-8.63 6.52-8.63 2.92 0 6.35 1.77 8.35 2.69l3.32-6.06c-2.7-1.32-7.78-3.66-12.93-3.66-7.09 0-13.66 4.92-13.66 15.66 0 10.75 6.57 15.61 13.66 15.61 5.15 0 10.23-2.4 12.92-3.66l-3.31-6.06m-215.39 20.76h-25.01l5-8.34h15l7.5-12.5-7.5-12.5h-15l-5-8.34h25.01l12.5 20.84-12.5 20.84" fill="#015cab"/>
<path d="m47.51 42.31-12.5-20.84 12.5-20.84 12.5 20.84-12.5 20.84" fill="#39b54a"/>
<path d="m32.51 8.96-15 0-7.5 12.5 7.5 12.5 15 0 5 8.34-25.01 0L0 21.47 12.5 0.63l25.01 0-5 8.34" fill="#015cab"/>
</g>
</svg>
