<?xml version="1.0" standalone="no"?>
<!DOCTYPE svg PUBLIC "-//W3C//DTD SVG 20010904//EN"
 "http://www.w3.org/TR/2001/REC-SVG-20010904/DTD/svg10.dtd">
<svg version="1.0" xmlns="http://www.w3.org/2000/svg"
 width="1102.000000pt" height="882.000000pt" viewBox="0 0 1102.000000 882.000000"
 preserveAspectRatio="xMidYMid meet">
<metadata>
Created by potrace 1.16, written by Peter Selinger 2001-2019
</metadata>
<g transform="translate(0.000000,882.000000) scale(0.100000,-0.100000)"
fill="#000000" stroke="none">
<path d="M5235 8674 c-22 -2 -92 -9 -155 -15 -799 -76 -1603 -404 -2240 -915
-476 -381 -857 -848 -1129 -1384 -246 -485 -379 -924 -448 -1480 -25 -206 -25
-734 0 -940 68 -547 196 -976 434 -1450 356 -711 874 -1279 1563 -1712 145
-92 486 -265 645 -328 376 -149 783 -249 1185 -292 188 -20 696 -17 885 6 408
48 741 131 1120 279 162 63 514 240 660 331 573 360 1026 812 1386 1385 92
146 265 487 329 646 147 372 244 763 292 1180 17 149 17 693 0 850 -8 66 -26
197 -42 291 -222 1324 -1066 2477 -2260 3083 -480 244 -925 379 -1470 446
-118 15 -661 28 -755 19z m520 -464 c713 -48 1393 -291 1966 -701 182 -130
314 -243 484 -413 950 -951 1329 -2333 995 -3622 -176 -681 -507 -1262 -1000
-1754 -621 -622 -1380 -987 -2280 -1096 -201 -25 -619 -25 -820 0 -480 58
-885 177 -1290 380 -383 192 -687 412 -990 716 -463 463 -786 1008 -965 1625
-296 1021 -157 2108 387 3020 266 445 661 869 1088 1167 706 492 1576 735
2425 678z"/>
<path d="M6495 6353 c-194 -207 -378 -387 -457 -447 l-77 -58 -95 71 c-181
136 -426 276 -529 302 -56 14 -117 5 -117 -17 0 -9 57 -75 128 -147 166 -172
312 -346 312 -373 0 -5 -67 -37 -148 -72 -254 -107 -323 -160 -338 -259 -16
-106 38 -207 134 -255 40 -20 61 -23 147 -22 87 1 111 5 184 32 46 18 124 58
172 91 l87 59 16 -62 c9 -33 27 -110 41 -171 32 -136 76 -235 126 -280 47 -42
72 -49 159 -43 81 6 147 40 180 92 50 82 60 237 24 381 -22 85 -101 247 -166
336 l-55 76 45 54 c119 146 245 373 337 608 53 138 58 220 11 221 -6 0 -60
-52 -121 -117z"/>
<path d="M7865 6026 c-40 -17 -57 -40 -53 -68 2 -18 27 -35 113 -80 176 -92
237 -179 221 -320 -22 -187 -323 -870 -594 -1344 -216 -376 -437 -692 -716
-1020 -145 -171 -608 -633 -771 -770 -416 -350 -939 -676 -1465 -914 -122 -55
-379 -159 -445 -180 -67 -21 -174 -79 -185 -99 -29 -55 4 -101 70 -101 77 0
498 135 798 256 900 363 1680 904 2326 1614 462 508 815 1031 1157 1713 155
309 207 403 256 457 49 55 87 73 193 90 114 19 156 47 167 113 7 48 -16 85
-114 178 -326 311 -798 545 -958 475z"/>
<path d="M4787 5717 c-40 -40 -134 -139 -210 -220 -76 -81 -158 -163 -182
-183 l-45 -36 -67 62 c-91 82 -259 193 -423 279 -202 105 -316 143 -335 110
-17 -26 17 -71 168 -227 89 -92 189 -201 222 -242 70 -87 135 -175 135 -184 0
-9 -144 -79 -304 -146 -260 -110 -321 -169 -314 -301 12 -220 260 -296 534
-164 66 32 231 150 263 188 7 10 17 17 21 17 4 0 29 -62 55 -137 57 -166 95
-242 146 -288 115 -103 291 -55 360 100 27 59 31 176 10 265 -21 87 -92 227
-169 331 l-72 96 56 84 c86 128 230 437 265 570 15 57 6 99 -22 99 -12 0 -49
-29 -92 -73z"/>
</g>
</svg>
