<?xml version="1.0" encoding="utf-8"?>
<!-- Generator: Adobe Illustrator 24.0.0, SVG Export Plug-In . SVG Version: 6.00 Build 0)  -->
<svg version="1.1" id="Layer_1" xmlns="http://www.w3.org/2000/svg" xmlns:xlink="http://www.w3.org/1999/xlink" x="0px" y="0px"
	 viewBox="0 0 3000 3000" style="enable-background:new 0 0 3000 3000;" xml:space="preserve">
<style type="text/css">
	.st0{fill:#F2EC59;}
</style>
<g>
	<g>
		<g>
			<path class="st0" d="M2618.3,2498.3c0,66-54,120-120,120H501.7c-66,0-120-54-120-120V501.7c0-66,54-120,120-120h1996.7
				c66,0,120,54,120,120V2498.3z"/>
		</g>
		<g>
			<path d="M2498.3,2670.3H501.7c-94.8,0-172-77.2-172-172V501.7c0-94.8,77.2-172,172-172h1996.7c94.8,0,172,77.2,172,172v1996.7
				C2670.3,2593.2,2593.2,2670.3,2498.3,2670.3z M501.7,433.7c-37.5,0-68,30.5-68,68v1996.7c0,37.5,30.5,68,68,68h1996.7
				c37.5,0,68-30.5,68-68V501.7c0-37.5-30.5-68-68-68H501.7z"/>
		</g>
	</g>
	<g>
		<g>
			<g>
				<path d="M1326.5,995.5c0,29.9-22.7,52.7-53.9,52.7h-217.9v225c0,31.1-22.7,53.9-52.7,53.9c-28.7,0-51.5-22.7-51.5-53.9v-225
					H732.8c-31.1,0-53.9-22.7-53.9-52.7c0-28.7,22.7-51.5,53.9-51.5h217.9V733.4c0-31.1,22.7-53.9,51.5-53.9
					c29.9,0,52.7,22.7,52.7,53.9v210.7h217.9C1303.8,944.1,1326.5,966.8,1326.5,995.5z"/>
			</g>
			<g>
				<path d="M2321.1,995.5c0,29.9-22.7,52.7-53.9,52.7h-217.9v225c0,31.1-22.7,53.9-52.7,53.9c-28.7,0-51.5-22.7-51.5-53.9v-225
					h-217.9c-31.1,0-53.9-22.7-53.9-52.7c0-28.7,22.7-51.5,53.9-51.5h217.9V733.4c0-31.1,22.7-53.9,51.5-53.9
					c29.9,0,52.7,22.7,52.7,53.9v210.7h217.9C2298.4,944.1,2321.1,966.8,2321.1,995.5z"/>
			</g>
		</g>
		<path d="M2252.6,1626.4h-507.2c-30.1,0-54.7,24.5-54.7,54.7s24.5,54.7,54.7,54.7h448.8c-16,118.5-84.1,229-195.6,315.6
			c-132.6,103-309.7,159.8-498.6,159.8s-366-56.7-498.6-159.8c-128.5-99.9-199.3-231.4-199.3-370.3c0-30.1-24.5-54.7-54.7-54.7
			c-30.1,0-54.7,24.5-54.7,54.7c0,88.2,22.1,173.6,65.8,253.8c41.5,76.3,100.7,144.6,175.8,202.9c74.1,57.6,160.1,102.7,255.7,134.1
			c98.3,32.3,202.6,48.7,310,48.7c107.4,0,211.7-16.4,310-48.7c95.6-31.4,181.6-76.5,255.7-134.1c75.1-58.4,134.2-126.6,175.8-202.9
			c43.7-80.2,65.8-165.6,65.8-253.8C2307.2,1650.9,2282.7,1626.4,2252.6,1626.4z"/>
	</g>
</g>
</svg>
