<?xml version="1.0" encoding="UTF-8" standalone="no"?>
<svg
   xmlns:dc="http://purl.org/dc/elements/1.1/"
   xmlns:cc="http://creativecommons.org/ns#"
   xmlns:rdf="http://www.w3.org/1999/02/22-rdf-syntax-ns#"
   xmlns:svg="http://www.w3.org/2000/svg"
   xmlns="http://www.w3.org/2000/svg"
   xmlns:sodipodi="http://sodipodi.sourceforge.net/DTD/sodipodi-0.dtd"
   xmlns:inkscape="http://www.inkscape.org/namespaces/inkscape"
   id="svg18"
   version="1.1"
   viewBox="0 0 300 300"
   height="300"
   width="300"
   sodipodi:docname="grinpp3.svg"
   inkscape:version="0.92.2 5c3e80d, 2017-08-06">
  <sodipodi:namedview
     pagecolor="#ffffff"
     bordercolor="#666666"
     borderopacity="1"
     objecttolerance="10"
     gridtolerance="10"
     guidetolerance="10"
     inkscape:pageopacity="0"
     inkscape:pageshadow="2"
     inkscape:window-width="1440"
     inkscape:window-height="855"
     id="namedview40"
     showgrid="false"
     inkscape:zoom="2.14"
     inkscape:cx="150"
     inkscape:cy="150"
     inkscape:window-x="0"
     inkscape:window-y="1"
     inkscape:window-maximized="1"
     inkscape:current-layer="svg18" />
  <metadata
     id="metadata22">
    <rdf:RDF>
      <cc:Work
         rdf:about="">
        <dc:format>image/svg+xml</dc:format>
        <dc:type
           rdf:resource="http://purl.org/dc/dcmitype/StillImage" />
        <dc:title>yellow_0</dc:title>
      </cc:Work>
    </rdf:RDF>
  </metadata>
  <defs
     id="defs4">
    <style
       id="style2">.a{fill:#fff200;}</style>
  </defs>
  <title
     id="title6">yellow_0</title>
  <path
     id="path8"
     d="M150,50A100,100,0,1,0,250,150,100,100,0,0,0,150,50Zm0,189.268A89.268,89.268,0,1,1,239.268,150,89.268,89.268,0,0,1,150,239.268Z" />
  <g
     transform="matrix(0.98272938,0,0,0.98272938,58.55866,88.405687)"
     id="layer1">
    <path
       style="fill:#000000;stroke-width:0.35277781"
       d="m 56.956522,140.78964 c -1.050593,-0.52378 -1.218053,-1.34903 -0.497042,-2.44943 0.390578,-0.5961 1.557203,-1.21139 3.814198,-2.01167 11.344593,-4.0225 22.980863,-9.91807 33.766797,-17.10808 8.350515,-5.56653 14.209515,-10.43776 22.234295,-18.48582 12.13967,-12.174858 21.01892,-24.401178 29.22897,-40.246948 4.45818,-8.604487 9.49739,-20.429916 10.24931,-24.051868 0.84973,-4.093112 -0.75662,-6.874405 -5.06347,-8.767127 -3.04738,-1.339225 -3.46708,-1.940175 -2.14763,-3.075112 1.24945,-1.07474 3.3821,-1.039368 6.81966,0.113113 4.82835,1.618756 12.43466,6.512625 16.73096,10.764627 2.38822,2.363601 2.73402,2.864186 2.73402,3.957723 0,1.59796 -1.18961,2.59419 -3.46441,2.901255 -4.87595,0.658178 -5.24499,1.055804 -10.08354,10.864597 -9.10601,18.459892 -18.40804,32.149902 -30.81161,45.346152 -17.09368,18.186098 -39.500008,32.248448 -63.78255,40.030348 -7.260862,2.32691 -8.804131,2.67882 -9.727958,2.21824 z M 68.403718,67.211259 C 66.846094,66.261497 65.742411,64.196014 64.078362,59.1166 61.232898,50.430967 57.1794,44.00664 50.205512,37.129737 45.013691,32.01012 44.512202,31.130356 46.666597,30.92142 c 1.315018,-0.127533 8.392055,3.328486 12.928262,6.313428 5.586142,3.675824 13.391171,12.140114 15.747776,17.077938 3.380327,7.082839 1.354176,13.584083 -4.232717,13.581373 -0.947236,-3.52e-4 -2.038688,-0.275882 -2.7062,-0.6829 z M 107.26948,55.274193 c -1.53263,-0.964738 -2.89725,-3.750783 -3.68982,-7.533259 -0.79286,-3.78381 -1.04885,-4.6748 -2.11508,-7.361577 -1.942272,-4.894347 -7.290455,-12.228213 -12.692111,-17.404481 -1.586509,-1.520312 -2.823901,-2.949062 -2.749758,-3.175 0.07414,-0.225939 0.718661,-0.460117 1.432267,-0.520396 2.988949,-0.25248 13.160572,5.910093 18.989862,11.505185 6.66656,6.39873 9.92453,13.047519 9.37313,19.128488 -0.34366,3.789856 -2.09364,5.680971 -5.45678,5.896832 -1.54901,0.09942 -2.28529,-0.02819 -3.09171,-0.535792 z"
       id="path101" />
  </g>
  <g
     id="g88"
     transform="matrix(0.98272938,0,0,0.98272938,-209.59112,197.57149)">
    <path
       id="path86"
       d="m 358.33144,-72.338899 c 0.84875,-1.61489 2.83984,-2.84773 7.80311,-4.83153 8.48703,-3.39222 14.64049,-7.84618 21.05983,-15.24341 4.77898,-5.50698 5.62506,-6.06342 5.97062,-3.92668 0.21093,1.30425 -2.7879,8.5868 -5.47823,13.3037 -3.31302,5.80866 -11.26367,14.13632 -16.04158,16.80226 -6.85346,3.82405 -13.47042,2.21557 -13.82312,-3.36018 -0.0599,-0.94534 0.14564,-2.05211 0.50937,-2.74416 z"
       style="fill:#000000;stroke-width:0.35277781" />
    <path
       style="fill:#000000;stroke-width:0.35277781"
       d="m 316.77786,-56.300679 c 0.84876,-1.61489 2.83985,-2.84773 7.80312,-4.83153 8.48703,-3.39222 14.64049,-7.84618 21.05983,-15.24341 4.77898,-5.50698 5.62506,-6.06342 5.97062,-3.92668 0.21093,1.30425 -2.7879,8.5868 -5.47823,13.3037 -3.31302,5.80866 -11.26367,14.136322 -16.04158,16.802265 -6.85346,3.824044 -13.47043,2.215562 -13.82312,-3.360188 -0.0599,-0.945337 0.14563,-2.052107 0.50936,-2.744157 z"
       id="path90" />
  </g>
  <path
     style="fill:#fff200;fill-opacity:1;stroke-width:0.46728972"
     d="m 138.50467,238.26871 c -41.183447,-5.63083 -72.547818,-37.90173 -77.073997,-79.3017 -1.300161,-11.89228 0.117178,-24.92059 4.005343,-36.81748 0.881962,-2.6986 3.171064,-8.06074 5.086895,-11.91589 C 84.135126,82.842392 110.6681,64.53007 141.2411,61.425918 c 33.89815,-3.441761 67.37719,13.374962 85.07356,42.732962 13.47158,22.34914 16.34465,50.18104 7.74221,75 -9.83566,28.37695 -33.63373,50.10105 -62.71934,57.25342 -9.99267,2.45727 -23.04182,3.19509 -32.83286,1.85641 z m -13.5514,-13.79778 c 29.07614,-9.56661 53.34231,-26.76164 72.40244,-51.30443 6.79487,-8.74941 12.73335,-18.37575 19.57979,-31.73904 2.60523,-5.08504 4.90448,-8.97311 5.70435,-9.64616 0.82945,-0.69794 2.25691,-1.25362 3.7467,-1.45851 2.73142,-0.37567 4.1742,-1.51878 4.1742,-3.30719 0,-2.29526 -8.14263,-9.11397 -15.08543,-12.63269 -5.78381,-2.93131 -9.79799,-3.45668 -11.42574,-1.49536 -0.74116,0.89305 -0.28672,1.41172 2.60122,2.96882 5.33008,2.87384 5.93957,5.49721 3.06212,13.17977 -12.29105,32.81607 -35.12006,61.56847 -62.40961,78.60289 -7.02406,4.3845 -18.23096,10.05101 -26.04447,13.16879 -7.73145,3.08503 -8.94816,4.05292 -7.24094,5.76014 0.9814,0.9814 2.41386,0.70671 10.93537,-2.09703 z m 6.06074,-69.74164 c 2.07399,-1.04944 3.28506,-3.43675 3.28506,-6.47563 0,-3.36852 -1.12799,-6.44101 -3.72257,-10.13984 l -1.97876,-2.82091 1.70362,-2.76009 c 2.03538,-3.29757 5.39647,-10.94501 5.74079,-13.06192 0.18828,-1.15755 0.0534,-1.5842 -0.57738,-1.82625 -0.63295,-0.24288 -2.14754,1.07735 -6.55749,5.71602 -4.49149,4.72445 -5.88193,5.93057 -6.41493,5.56456 -0.37428,-0.25701 -1.88307,-1.43775 -3.35288,-2.62387 -2.78518,-2.24762 -9.47692,-5.98931 -12.82239,-7.16967 -2.01311,-0.71026 -3.32643,-0.5535 -3.32643,0.39705 0,0.30264 2.48585,3.22035 5.5241,6.48381 3.03825,3.26346 5.81475,6.47666 6.17,7.14043 0.78435,1.46558 0.93352,1.34994 -5.15204,3.99411 -7.27855,3.16253 -8.41121,4.22444 -8.41121,7.88577 0,3.58965 3.7461,6.07286 8.11337,5.37818 2.73055,-0.43433 6.20874,-2.10297 8.98342,-4.30971 l 2.37717,-1.8906 1.013,3.10491 c 1.31824,4.04051 2.84677,6.68171 4.28928,7.41159 1.47869,0.74819 3.64002,0.74906 5.11627,0.002 z m 39.18857,-12.31262 c 3.62547,-2.37278 3.00278,-10.77382 -1.27266,-17.17024 l -1.83427,-2.74422 2.11046,-2.86326 c 4.88421,-6.6264 9.27052,-18.05016 6.93061,-18.05016 -0.37714,0 -2.00352,1.41939 -3.61419,3.1542 -4.04017,4.35157 -7.87481,8.09935 -10.04886,9.82122 l -1.83031,1.44965 -3.91428,-2.79801 c -6.44447,-4.60666 -12.78394,-7.17229 -13.77198,-5.57362 -0.1516,0.24529 1.46736,2.29552 3.59767,4.55608 2.13031,2.26055 4.54955,4.97457 5.37608,6.03115 l 1.50277,1.92105 -3.14205,1.29882 c -6.57067,2.71611 -8.51829,4.44765 -8.51412,7.56952 0.003,1.96436 1.6586,4.30608 3.62659,5.12836 3.05558,1.2767 8.67024,-0.0154 12.55296,-2.88884 0.98089,-0.72591 1.0082,-0.67995 2.01384,3.38999 1.17186,4.74259 2.58615,7.54777 4.24466,8.41907 1.3717,0.72062 4.39357,0.39216 5.98708,-0.65076 z"
     id="path41"
     inkscape:connector-curvature="0" />
  <path
     style="fill:#fff200;fill-opacity:1;stroke-width:0.02916513"
     d="m 106.46004,150.41463 c -1.68937,-0.2681 -3.19905,-1.06064 -4.12706,-2.1666 -0.69257,-0.82539 -1.07137,-1.71307 -1.17809,-2.76074 -0.036,-0.35398 -0.0205,-1.14426 0.0319,-1.61867 0.17043,-1.5442 0.74016,-2.503 2.0771,-3.49562 1.17668,-0.87362 2.81881,-1.70923 6.56977,-3.34307 2.27952,-0.99291 2.93315,-1.2853 3.61648,-1.61776 1.63264,-0.79433 1.84025,-1.0627 1.4477,-1.87135 -0.26535,-0.54663 -0.59996,-1.00267 -1.63728,-2.23143 -1.20941,-1.43262 -2.41695,-2.78483 -4.71036,-5.27468 -1.83296,-1.98996 -2.70279,-2.95851 -3.71985,-4.14201 -0.92518,-1.07659 -1.58712,-1.90591 -1.74299,-2.18375 l -0.0675,-0.1203 h 0.11853 c 0.0768,0 0.11852,0.0131 0.11852,0.0373 0,0.0634 0.19525,0.44854 0.32473,0.64055 0.53552,0.79413 1.16633,1.48073 3.7583,4.09067 2.32072,2.33682 2.89147,2.93485 3.93974,4.12807 1.57281,1.79029 2.92153,3.52725 4.1645,5.3633 0.21106,0.31177 0.37295,0.57763 0.35977,0.59082 -0.0616,0.0616 -1.20172,0.66154 -2.14967,1.13115 -1.53161,0.75876 -2.3928,1.14245 -4.4331,1.97511 -1.86767,0.76222 -2.66485,1.11377 -3.70397,1.6334 -1.89316,0.94672 -2.95247,1.73695 -3.58226,2.67231 -0.40046,0.59476 -0.63756,1.34364 -0.7218,2.2798 -0.11033,1.22623 0.22485,2.60993 0.86898,3.58731 0.95566,1.45006 2.54639,2.31422 4.6746,2.53946 0.54027,0.0572 1.73704,0.0419 2.27156,-0.0291 1.73342,-0.23002 3.33279,-0.73274 5.02326,-1.57893 1.79635,-0.89919 3.71356,-2.30549 6.08944,-4.46668 0.21666,-0.19709 0.40257,-0.35834 0.41312,-0.35834 0.0322,0 0.49966,1.3054 1.0183,2.8436 0.61061,1.81094 0.9928,2.86826 1.27937,3.53933 0.10923,0.2558 0.1103,0.26673 0.026,0.26671 -0.0578,-2e-5 -0.0942,-0.069 -0.30461,-0.57601 -0.44562,-1.07402 -0.70416,-1.80921 -1.51537,-4.30914 -0.23423,-0.72183 -0.43494,-1.3295 -0.44602,-1.35036 -0.0139,-0.0262 -0.44751,0.30155 -1.4035,1.06092 -1.51077,1.20006 -1.85626,1.45934 -2.62287,1.96836 -2.52863,1.679 -5.3093,2.84266 -7.55573,3.16193 -0.46903,0.0667 -2.11424,0.0567 -2.56959,-0.0156 z"
     id="path15"
     inkscape:connector-curvature="0" />
  <path
     style="fill:#fff200;fill-opacity:1;stroke-width:0.02916513"
     d="m 122.60796,129.42582 c -1.66774,-1.55446 -3.2626,-2.88336 -4.63726,-3.86395 -2.41798,-1.72482 -6.98328,-4.26019 -10.29529,-5.71756 -0.27269,-0.11999 -0.51549,-0.22557 -0.53955,-0.23461 -0.0241,-0.009 0.0397,-0.0175 0.14172,-0.0187 0.2087,-0.003 0.30719,0.0356 1.40403,0.54453 2.68112,1.24404 6.14239,3.19023 8.57455,4.82128 0.94684,0.63497 1.34148,0.92766 2.55194,1.89262 1.90809,1.5211 2.65746,2.09378 2.78926,2.13158 0.19877,0.057 0.54858,-0.088 0.98259,-0.40729 0.91823,-0.67552 2.35737,-2.08301 5.51913,-5.39772 1.38174,-1.44857 3.5137,-3.61043 3.53727,-3.58686 0.008,0.008 -0.11706,0.159 -0.27818,0.33527 -0.47255,0.51696 -1.35123,1.50632 -2.22473,2.50495 -2.0877,2.38678 -3.73582,4.07828 -5.70266,5.85276 -0.30978,0.27948 -1.30319,1.13531 -1.477,1.27245 l -0.1125,0.0888 z"
     id="path17"
     inkscape:connector-curvature="0" />
  <path
     style="fill:#fff200;fill-opacity:1;stroke-width:0.02916513"
     d="m 128.06183,155.26963 c -0.93109,-0.0923 -1.52181,-0.24073 -2.09873,-0.52728 -0.76,-0.37748 -1.47963,-1.17047 -2.23206,-2.45959 -0.19741,-0.33823 -0.90435,-1.73387 -0.90435,-1.78538 0,-0.0126 0.0302,-0.0229 0.0672,-0.0229 0.058,0 0.0887,0.049 0.22378,0.35728 0.89667,2.04585 1.79323,3.20808 2.90386,3.76433 0.8345,0.41794 1.98424,0.61309 3.03192,0.51461 2.28191,-0.2145 3.97216,-1.6065 4.73607,-3.90038 0.44889,-1.34793 0.55386,-2.94423 0.30714,-4.67048 -0.0399,-0.27926 -0.10961,-0.68283 -0.15488,-0.89683 -0.0767,-0.36258 -0.0787,-0.38909 -0.0301,-0.38909 0.0638,0 0.0662,0.007 0.15502,0.49581 0.50497,2.77531 0.1412,5.36772 -0.99446,7.08713 -1.04345,1.57979 -2.5136,2.38046 -4.46708,2.43285 -0.23465,0.006 -0.47914,0.006 -0.54331,-1.1e-4 z"
     id="path19"
     inkscape:connector-curvature="0" />
  <path
     style="fill:#fff200;fill-opacity:1;stroke-width:0.02916513"
     d="m 133.83663,145.17035 c -0.0443,-0.2382 -0.3495,-1.24098 -0.52398,-1.72143 -0.52803,-1.45401 -1.16583,-2.69008 -2.15365,-4.17381 -0.74749,-1.12276 -1.51119,-2.15015 -2.52317,-3.39434 l -0.44795,-0.55075 0.0673,-0.0909 c 0.90875,-1.22708 1.74022,-2.48938 2.39398,-3.63444 1.96886,-3.44844 4.46488,-9.14065 5.12192,-11.68064 0.0782,-0.30239 0.0875,-0.32135 0.16169,-0.33015 0.0878,-0.0104 0.088,-0.0361 -0.001,0.33015 -0.48816,2.00131 -2.8164,7.43385 -4.66441,10.88361 -0.48703,0.90915 -0.68282,1.24237 -1.66792,2.83858 -0.49003,0.79402 -0.91734,1.49066 -0.94959,1.54808 l -0.0586,0.1044 1.19138,1.70171 c 1.66327,2.37577 2.21226,3.25211 2.85919,4.56415 0.51868,1.05191 0.94838,2.18274 1.19137,3.13525 0.14709,0.57659 0.1427,0.54532 0.079,0.56198 -0.0448,0.0117 -0.0592,-0.006 -0.0751,-0.0915 z"
     id="path21"
     inkscape:connector-curvature="0" />
  <path
     style="fill:#fff200;fill-opacity:1;stroke-width:0.02916513"
     d="m 135.87298,119.52303 c 0.027,-0.11226 0.0734,-0.40764 0.0927,-0.59066 0.0204,-0.19314 -0.062,-0.6702 -0.15787,-0.9138 -0.0294,-0.0748 -0.0637,-0.16233 -0.0762,-0.19441 -0.0436,-0.11251 0.21659,0.16834 0.28173,0.30409 0.0803,0.16728 0.10714,0.68018 0.056,1.06889 -0.0496,0.37664 -0.0549,0.39151 -0.1393,0.39151 -0.0609,0 -0.0703,-0.0109 -0.0571,-0.0656 z"
     id="path23"
     inkscape:connector-curvature="0" />
  <path
     style="fill:#fff200;fill-opacity:1;stroke-width:0.02916513"
     d="m 106.64005,119.4103 c -1.10942,-0.4448 -1.72591,-0.62145 -2.15822,-0.61843 -0.51352,0.004 -1.02658,0.16282 -1.16928,0.36291 -0.0548,0.0768 -0.0702,0.13563 -0.0702,0.26741 v 0.16894 l -0.11666,-0.009 -0.11666,-0.009 0.007,-0.1398 c 0.012,-0.23228 0.1679,-0.46145 0.3929,-0.57742 0.38851,-0.20025 1.1784,-0.19217 2.0202,0.0207 0.51132,0.12928 1.34979,0.41978 1.90939,0.66153 l 0.10075,0.0435 -0.15908,0.0103 c -0.14074,0.009 -0.21455,-0.0119 -0.6403,-0.1826 z"
     id="path25"
     inkscape:connector-curvature="0" />
  <path
     style="fill:#fff200;fill-opacity:1;stroke-width:0.02916513"
     d="m 162.2116,140.84539 c -0.84643,-1.50807 -1.54158,-3.46062 -2.27232,-6.38252 -0.65828,-2.63214 -0.85369,-3.24324 -1.10863,-3.46709 -0.0792,-0.0695 -0.13131,-0.0911 -0.22052,-0.0911 -0.15065,0 -0.26178,0.0585 -0.66967,0.35242 -1.91549,1.38034 -4.0137,2.35272 -6.3132,2.92574 -1.20329,0.29985 -2.27736,0.43705 -3.39774,0.43402 -1.25704,-0.003 -2.20912,-0.18766 -3.05532,-0.59129 -1.56489,-0.74644 -2.94538,-2.5117 -3.29908,-4.2186 -0.14607,-0.70488 -0.0966,-1.61106 0.13094,-2.39606 0.0919,-0.31697 0.3628,-0.88696 0.56184,-1.18191 0.8896,-1.31833 2.58715,-2.48059 5.66162,-3.87634 0.70142,-0.31842 1.59242,-0.69694 3.38315,-1.43722 0.90631,-0.37467 1.69049,-0.69929 1.74261,-0.7214 l 0.0948,-0.0402 -0.76276,-0.9753 c -0.95379,-1.21954 -1.00427,-1.28192 -1.62721,-2.01065 -1.00612,-1.17699 -2.59477,-2.93953 -4.23324,-4.69661 -0.94819,-1.01684 -1.23334,-1.32865 -1.70109,-1.86011 l -0.31608,-0.35914 0.11773,0.009 c 0.11106,0.009 0.16774,0.0579 1.00021,0.86953 2.20033,2.14521 4.13109,4.31007 6.12566,6.86838 0.84889,1.08883 1.63947,2.17511 1.60679,2.20779 -0.0849,0.0849 -2.11625,0.97624 -3.49108,1.53189 -3.88221,1.56902 -5.70411,2.54644 -6.81006,3.6535 -0.62596,0.62659 -0.94563,1.18446 -1.15215,2.01065 -0.11593,0.4638 -0.16657,0.88397 -0.16894,1.40185 -0.004,0.98125 0.18132,1.80667 0.59414,2.63945 0.51906,1.04708 1.33685,1.84009 2.4477,2.37353 2.51401,1.20726 6.05507,0.89714 9.63907,-0.84416 1.28164,-0.62269 2.4283,-1.36815 3.88677,-2.52685 l 0.41613,-0.33059 0.0304,0.08 c 0.0167,0.044 0.1093,0.33627 0.20569,0.64945 0.29957,0.97327 0.55334,2.01474 0.98796,4.05464 0.39101,1.83517 0.70142,2.92421 1.18262,4.14905 0.18817,0.47896 0.66758,1.4688 0.88496,1.82717 0.0818,0.1349 0.14878,0.24973 0.14878,0.25519 0,0.005 -0.0189,0.01 -0.0421,0.01 -0.0232,0 -0.11694,-0.13333 -0.2084,-0.29629 z"
     id="path27"
     inkscape:connector-curvature="0" />
  <path
     style="fill:#fff200;fill-opacity:1;stroke-width:0.02916513"
     d="m 159.88858,115.79579 c -5.15639,-4.14953 -11.67293,-7.90285 -14.59016,-8.40348 -0.63646,-0.10922 -1.40045,-0.0237 -1.90078,0.21273 -0.20445,0.0966 -0.34153,0.23639 -0.31471,0.32088 0.0294,0.0926 -0.0162,0.061 -0.0574,-0.0398 -0.0845,-0.2067 -0.0837,-0.21617 0.0312,-0.34329 0.22618,-0.25036 0.54957,-0.35267 1.11885,-0.35399 2.17625,-0.005 6.53039,1.97435 11.14108,5.06476 0.56889,0.38131 4.73962,3.33462 5.23647,3.70796 l 0.0888,0.0667 0.9479,-0.74992 c 1.41078,-1.11612 1.8769,-1.50771 2.87006,-2.41114 2.00767,-1.82628 5.21156,-5.04311 7.84411,-7.87577 0.5199,-0.55943 1.88735,-1.93948 1.92177,-1.93948 0.0144,0 -0.13618,0.16766 -0.33465,0.37259 -0.627,0.64736 -1.44279,1.55325 -2.96067,3.28763 -1.43471,1.63936 -2.24312,2.50385 -3.58797,3.83686 -1.87683,1.86031 -3.47004,3.24771 -5.36162,4.66901 -0.48192,0.36211 -1.38906,1.01517 -1.45826,1.04983 -0.016,0.008 -0.30136,-0.20444 -0.63404,-0.47216 z"
     id="path29"
     inkscape:connector-curvature="0" />
  <path
     style="fill:#fff200;fill-opacity:1;stroke-width:0.02916513"
     d="m 144.90526,110.25926 c -0.0864,-0.0153 -0.15087,-0.0768 -0.43223,-0.41176 -0.42128,-0.50157 -1.00848,-1.25277 -0.99208,-1.26916 0.007,-0.007 0.14615,0.14358 0.30942,0.33443 0.16328,0.19085 0.51452,0.57768 0.78054,0.85961 0.26602,0.28193 0.47291,0.51087 0.45977,0.50876 -0.0131,-0.002 -0.0696,-0.012 -0.12542,-0.0219 z"
     id="path31"
     inkscape:connector-curvature="0" />
  <path
     style="fill:#fff200;fill-opacity:1"
     id="path33"
     d="m 143.57662,106.60179 c 0.0556,0.007 0.10601,0.0295 0.15872,0.0476 0.04,0.007 0.0471,-0.003 0.065,0.0398 3.2e-4,-0.002 -8.1e-4,-0.005 9.8e-4,-0.006 0.003,-9.9e-4 0.0101,0.008 0.0137,0.006 0.002,-10e-4 0.002,-0.006 0.005,-0.005 0.005,0.002 0.008,0.007 0.0123,0.0106 0.0165,0.0269 0.0109,0.0204 0.0368,0.0204 0.0224,-0.008 0.0375,5.9e-4 0.0554,0.0144 0.01,0.0211 0.0168,0.0161 0.0359,0.0146 0.004,-0.001 0.0271,0.0157 0.0319,0.0226 0.0104,0.0149 0.007,0.0235 0.0101,0.009 0.0114,-1.9e-4 0.0222,-0.004 0.0337,-0.006 0.007,0.0215 0.0178,0.0107 0.0293,0.0228 0.008,0.009 0.0109,0.025 0.0177,0.0106 0.0207,-0.006 0.033,0.008 0.0484,0.021 0.0129,-0.008 0.0235,0.0183 0.0322,0.0143 0.002,-7.4e-4 0.002,-0.003 0.003,-0.004 0.003,-7.7e-4 0.006,-0.002 0.008,-0.002 0.0144,-0.006 0.0195,0.0144 0.027,0.0226 0.007,0.008 0.003,-0.008 0.0197,0.0128 0.0292,-0.008 0.01,-0.0135 0.0412,0.0157 0.0146,0.0123 0.0204,0.005 0.0367,0.005 0.001,-1.7e-4 0.003,-0.002 0.004,-4.9e-4 0.0138,0.0142 0.0187,0.026 0.0363,0.0354 0.0105,-0.0107 0.0247,-0.007 0.0377,0.004 0.003,0.002 0.007,0.002 0.0102,0.005 0.007,0.007 0.008,0.0191 0.0172,0.0224 0.001,4.5e-4 5.2e-4,-0.004 0.002,-0.003 0.006,0.001 0.0148,0.0114 0.0185,0.0152 0.0103,0.0154 0.014,0.0193 0.03,0.0114 0.0183,-0.009 0.0221,0.0216 0.0344,0.026 0.002,6.4e-4 0.002,-0.003 0.004,-0.004 0.003,10e-4 0.005,0.002 0.008,0.003 0.0115,0.005 0.0227,0.002 0.0356,10e-4 0.0112,-5.3e-4 0.0224,-5.7e-4 0.0336,-10e-4 -0.10347,0.0821 -0.29797,0.34607 -0.4337,0.2073 -0.0308,-0.007 -0.0566,-0.0175 -0.082,-0.0368 -0.0299,-0.005 -0.0535,-0.0249 -0.0836,-0.0291 -0.0146,-0.005 -0.0307,-0.003 -0.0459,-0.002 -0.0176,2.9e-4 -0.0352,6.5e-4 -0.0529,5.7e-4 -0.0166,0.001 -0.0369,-0.007 -0.045,0.01 0.12251,-0.07 0.24466,-0.14073 0.36753,-0.21015 0.003,-0.002 -0.004,0.005 -0.007,0.006 -0.12753,0.0735 -0.2559,0.14554 -0.38363,0.21872 -0.002,10e-4 -0.009,0.006 -0.007,0.005 0.37752,-0.21702 0.49048,-0.26989 0.35365,-0.20543 -0.0822,0.13981 -0.007,0.0167 -0.3891,0.23519 -0.007,0.004 -0.0219,0.004 -0.0303,0.003 -0.13722,-0.0371 -0.48265,0.25197 0.34865,-0.20534 0.005,-0.003 -0.009,0.007 -0.0111,0.0115 -1.01561,0.5813 -0.023,0.0113 -0.0174,0.008 0.003,-0.002 -0.007,0.004 -0.01,0.007 -0.003,0.003 -0.003,0.008 -0.006,0.01 -0.18835,0.11407 -0.2563,0.15302 -0.38737,0.22821 0.12056,-0.0705 0.24041,-0.14232 0.36169,-0.21162 0.006,-0.003 -0.006,0.0119 -0.012,0.0152 -0.12607,0.075 -0.25232,0.14979 -0.37966,0.22265 -0.005,0.003 -0.0124,4.9e-4 -0.0186,7.7e-4 -0.002,0.003 -0.003,0.007 -0.006,0.008 -0.007,0.002 -0.0497,-0.008 -0.0606,-0.009 0.008,-0.008 -0.0277,0.0184 -0.0204,0.0144 0.12108,-0.068 0.48339,-0.27362 0.36212,-0.20597 -0.27636,0.15416 -0.24672,0.21039 -0.41258,0.22139 -0.0181,2e-5 -0.0363,-10e-4 -0.0544,-0.002 -0.0149,-2.5e-4 -0.0297,-3.7e-4 -0.0446,-2.7e-4 -0.006,-0.008 -0.0121,0.0127 -0.008,0.0106 0.12183,-0.0675 0.24004,-0.14131 0.36149,-0.20946 0.003,-0.002 -0.003,0.008 -0.006,0.01 -0.37386,0.2258 -0.23374,0.2295 -0.39212,0.22292 0.007,-0.002 -0.0273,0.0166 -0.0203,0.0127 0.11963,-0.0685 0.48216,-0.26714 0.35893,-0.20537 -0.0425,0.0213 -0.25897,0.22683 -0.41194,0.21961 0.1215,-0.0673 0.24277,-0.13507 0.36449,-0.202 0.006,-0.003 -0.0106,0.008 -0.0165,0.0118 -0.12751,0.0727 -0.25462,0.14614 -0.38295,0.21738 -1.3e-4,7e-5 -0.0177,0.001 -0.0188,0.002 0.12325,-0.0692 0.2465,-0.13851 0.36976,-0.20776 -0.003,-2e-5 -0.007,-0.002 -0.009,-5e-5 -0.006,0.007 -3.8e-4,0.0164 -0.009,0.0215 -0.12842,0.0732 -0.25173,0.15722 -0.38753,0.2156 -0.12738,0.0548 0.2414,-0.13644 0.3621,-0.20467 -0.0816,0.0649 -0.92949,0.52817 -0.0368,0.0237 0.007,-0.004 -0.0127,0.01 -0.0194,0.0143 -0.14771,0.0575 -0.26679,0.26096 -0.42928,0.22606 -0.002,-0.001 -0.0205,-0.005 -0.0217,-0.003 -0.002,0.004 -0.003,0.0145 0.001,0.0125 0.33387,-0.18136 0.46411,-0.30771 0.35512,-0.20293 -0.12185,0.0827 -0.2619,0.25961 -0.42112,0.22067 -0.0292,-0.008 -0.005,0.035 -0.0398,0.004 -0.0886,-0.18095 -0.0163,0.004 0.36032,-0.26867 0.11126,-0.0805 -0.48095,0.26442 -0.35651,0.20638 0.13523,-0.0631 0.25922,-0.14788 0.38899,-0.22154 0.11951,-0.0678 -0.23863,0.13633 -0.35819,0.20406 -0.006,0.003 0.012,-0.008 0.018,-0.0113 0.20673,0.0659 0.27228,-0.17938 0.42199,-0.24098 0.0172,-0.007 0.036,-0.009 0.0537,-0.014 0.006,-2.7e-4 0.0125,7.8e-4 0.0184,-8.2e-4 0.005,-0.001 0.009,-0.007 0.0145,-0.008 0.0241,-0.005 0.0449,0.007 0.068,-0.004 0.0241,-0.007 0.0481,-0.0186 0.0731,-0.0197 0.0202,6.2e-4 0.0404,2.7e-4 0.0606,4.3e-4 0.0361,0.004 0.002,-0.005 0.0173,-0.0124 3.8e-4,-1.8e-4 0.031,0.009 0.0351,0.009 0.0237,0.002 0.0475,0.003 0.0712,0.003 0.02,-0.0257 0.0585,-0.0133 0.0788,-0.0348 0.0307,0.003 0.0595,-0.008 0.0887,-0.0187 0.0297,-0.005 0.06,-0.005 0.09,-0.005 0.01,-0.003 0.0203,0.003 0.0299,-1e-5 0.004,-10e-4 0.007,-0.007 0.0111,-0.008 0.0109,-0.002 0.0322,0.003 0.0435,0.004 0.004,4.2e-4 0.008,0.002 0.0112,10e-4 0.006,-0.002 0.0148,-0.0112 0.0199,-0.014 0.0121,-0.007 0.0276,-0.007 0.0408,-0.009 0.021,-0.005 0.0423,-0.003 0.0636,-0.004 0.0255,0.006 0.0181,-0.009 0.0228,-0.0101 0.004,-0.001 0.0318,0.006 0.0382,0.007 0.018,-0.0265 0.0526,-0.009 0.0701,-0.0324 0.0118,-0.005 0.0293,0.008 0.0405,0.003 0.0109,-0.005 0.006,-0.0132 0.0244,-0.0178 0.004,-0.0116 0.0152,-0.004 0.0229,-0.009 0.003,-0.002 0.003,-0.007 0.007,-0.008 0.001,-4.4e-4 0.0211,0.003 0.0235,0.003 0.004,7e-4 0.008,0.004 0.0116,0.002 0.003,-0.002 -2.6e-4,-0.007 0.001,-0.0106 10e-4,-0.002 0.009,-0.007 0.006,-0.005 -0.12216,0.0699 -0.24378,0.1407 -0.36564,0.21112 -0.002,10e-4 0.004,-0.002 0.006,-0.003 0.12755,-0.0721 0.25506,-0.14428 0.3826,-0.21642 -0.12235,0.0713 -0.24403,0.1437 -0.36704,0.21382 -0.0207,0.0118 0.0131,-0.018 0.0163,-0.0199 0.12587,-0.0752 0.26483,-0.13144 0.37869,-0.22383 0.10852,-0.0881 -0.24165,0.14045 -0.36248,0.21067 0.11867,-0.1031 0.25878,-0.2639 0.41987,-0.24094 0.002,-5.3e-4 0.004,-0.001 0.006,-0.002 -0.12326,0.0688 -0.50721,0.23865 -0.36979,0.20637 0.52793,-0.12398 0.23826,-0.23974 0.41368,-0.20519 -0.001,-0.015 -0.004,-0.0101 0.007,-0.0164 -0.12092,0.0695 -0.24159,0.13937 -0.36276,0.20838 -0.003,0.002 0.005,-0.004 0.007,-0.006 0.38657,-0.21722 0.23993,-0.2031 0.39892,-0.21662 0.006,-0.004 0.0141,0.003 0.0205,9.2e-4 0.003,-0.001 0.003,-0.007 0.007,-0.008 0.004,-0.001 0.007,0.003 0.011,0.002 0.003,-7.9e-4 0.01,-0.008 0.007,-0.006 -0.12163,0.0679 -0.24256,0.1371 -0.36384,0.20565 0.12678,-0.0734 0.25356,-0.14678 0.38034,-0.22017 -0.003,-0.004 0.0233,-0.005 0.018,-0.002 -0.12098,0.0705 -0.48813,0.27484 -0.36626,0.20585 0.39478,-0.22348 0.26326,-0.12947 0.38991,-0.22041 -0.92152,0.52719 -0.0226,0.0106 0.0289,-0.0137 0.12638,-0.0597 -0.49149,0.26574 -0.36497,0.20636 0.43587,-0.20459 0.23949,-0.25087 0.39584,-0.21151 0.004,-0.004 0.0122,0.008 0.0159,0.004 0.002,-0.003 -0.001,-0.008 5.5e-4,-0.0109 0.003,-0.005 0.0206,-0.0102 0.0259,-0.0127 0.018,-0.004 0.0358,-0.005 0.0548,-0.004 0.0164,4.2e-4 0.0327,3.8e-4 0.0491,7.5e-4 0.0142,-7e-5 0.0284,-2.1e-4 0.0426,-7e-5 0.017,-1.1e-4 0.034,5.8e-4 0.051,-4e-5 0.0156,1.6e-4 0.0311,-9e-5 0.0467,2.5e-4 0.0158,-1.4e-4 0.0316,-3.3e-4 0.0475,-1.9e-4 0.0153,9e-5 0.0305,-1.6e-4 0.0458,1.2e-4 0.0155,-2.4e-4 0.0311,-4e-5 0.0466,-1e-4 0.0157,-2.8e-4 0.0314,4.5e-4 0.0471,-1.2e-4 0.0144,1.8e-4 0.0287,9e-5 0.0431,5e-5 0.002,-0.006 0.0127,0.004 0.0153,-5e-5 0.002,-0.003 -0.001,-0.008 8.5e-4,-0.0113 0.002,-0.003 0.0134,-0.006 0.0102,-0.004 -0.33123,0.19184 -0.65855,0.37561 0.0199,-0.008 0.0212,-0.0106 0.046,0.001 0.0646,-0.0139 -0.96813,0.54524 0.0121,-0.007 0.0208,-0.0112 0.12394,-0.0605 -0.4884,0.25403 -0.35982,0.20418 0.13835,-0.0536 0.25895,-0.14497 0.38941,-0.21565 0.0354,-0.0192 -0.008,0.016 0.0214,-0.01 0.0123,-0.01 0.005,-0.006 0.0215,-0.0102 0.002,-0.002 0.009,-0.008 0.006,-0.006 -0.12138,0.0699 -0.48203,0.2854 -0.36306,0.2115 0.0309,-0.0192 0.95827,-0.5584 0.0134,-0.009 0.043,0.0426 -0.0489,0.0231 -0.0657,0.0224 -0.0753,-0.002 -0.15073,-0.002 -0.2261,-0.002 -0.0777,-0.002 -0.15556,0.004 -0.23286,-0.005 -0.0849,-10e-4 -0.16974,0.002 -0.25458,0.004 -0.0613,0.002 -0.12271,0.002 -0.18407,0.003 -0.0473,-1e-5 -0.0947,5e-4 -0.14198,2.5e-4 -0.0218,-0.006 -0.0301,0.008 -0.0475,0.0148 -0.0121,0.005 -0.0494,0.0131 -0.0382,0.007 0.11806,-0.0687 0.23873,-0.1328 0.35809,-0.19921 -0.0559,0.1718 -0.36013,0.18156 -0.51012,0.28098 -0.13067,0.0701 -0.17194,0.0925 0.32017,-0.18409 0.0161,-0.009 -0.0302,0.0215 -0.0462,0.0307 -0.38492,0.22278 -0.26093,0.15716 -0.42088,0.24123 -0.30043,0.19785 1.22368,-0.73297 -0.0739,0.0415 -0.11401,0.068 0.22966,-0.13332 0.34579,-0.19766 0.0197,-0.0109 -0.0218,0.0178 -0.0507,0.0379 -0.13892,0.0997 -0.27386,0.16259 -0.4369,0.25677 -0.1156,0.0668 0.23156,-0.13294 0.34744,-0.19925 0.0125,-0.007 -0.0247,0.015 -0.0368,0.0228 -0.0258,0.0212 -0.0537,0.0381 -0.0799,0.0583 -0.13057,0.0951 0.0509,-0.0366 -0.39452,0.23031 -0.11859,0.0711 0.23921,-0.13864 0.35891,-0.2078 0.003,-0.002 -0.006,0.004 -0.009,0.006 -0.12836,0.074 -0.25903,0.14414 -0.38528,0.2217 -0.11831,0.0727 0.24096,-0.13804 0.36145,-0.20706 -1.04006,0.60122 -0.0166,0.0127 -0.0259,0.0172 -0.99333,0.48923 -0.20639,0.1535 -0.41926,0.22757 0.97102,-0.55262 -0.0103,0.01 -0.0166,0.0133 -0.1246,0.0642 0.24298,-0.1398 0.3642,-0.21018 0.002,-0.001 -0.004,0.001 -0.006,0.002 -0.39097,0.22265 -0.24294,0.17539 -0.39209,0.22234 -0.007,0.003 -0.0174,-0.005 -0.0247,-8.3e-4 -0.003,0.002 -0.002,0.007 -0.005,0.0104 -0.008,0.009 -0.0211,0.008 -0.0306,0.0155 -0.21787,0.056 0.45632,-0.28032 0.31543,-0.19164 -0.23204,0.14756 -0.78562,0.42917 -0.0326,0.0137 0.008,-0.005 -0.011,0.0163 -0.0192,0.021 -0.12794,0.0728 -0.25613,0.14516 -0.3842,0.21774 -0.15014,0.0222 -0.0108,0.003 0.35483,-0.20505 0.002,-0.001 -0.006,0.001 -0.008,0.003 -0.003,0.002 -0.004,0.007 -0.007,0.009 -0.36091,0.21411 -0.24375,0.16848 -0.38809,0.2241 -0.004,-1.8e-4 -0.0151,10e-4 -0.0117,-5.3e-4 0.12158,-0.0719 0.24586,-0.1392 0.36797,-0.21022 0.002,-0.001 -0.005,-0.002 -0.006,-3e-4 -0.005,0.005 -6.3e-4,0.0134 -0.008,0.0176 -0.12628,0.0749 -0.25384,0.14756 -0.38076,0.22134 -0.002,10e-4 -0.007,0.005 -0.005,0.004 0.12122,-0.0721 0.24162,-0.14548 0.36316,-0.21698 0.002,-0.001 -0.003,0.003 -0.003,0.005 -0.003,0.0139 -0.002,0.021 -0.0154,0.0289 -0.073,0.13613 -0.25693,0.17985 -0.40363,0.24092 0,0 0.34408,-0.26777 0.34408,-0.26777 v 0 c 0.14189,-0.0377 -0.003,2.5e-4 -0.35975,0.20802 -0.005,0.003 0.0118,0.003 0.0162,-4.3e-4 0.003,-0.002 0.002,-0.006 0.003,-0.009 0.0102,-0.0242 0.0168,-0.008 0.0221,-0.0135 0.002,-0.003 -0.002,-0.009 0.001,-0.0108 0.34817,-0.23145 0.23066,-0.1982 0.37804,-0.23911 -0.12127,0.0712 -0.24272,0.14214 -0.36382,0.21366 -0.004,0.002 0.0113,4.5e-4 0.0136,-0.004 0.002,-0.004 -0.003,-0.0104 6.8e-4,-0.0126 0.43034,-0.26451 0.26806,-0.12418 0.38658,-0.22723 0.1221,-0.0822 0.0467,-0.0312 -0.3569,0.20709 -0.003,0.002 0.007,-4.8e-4 0.01,-0.003 0.003,-0.002 0.002,-0.008 0.005,-0.009 0.27462,-0.16067 0.25573,-0.15057 0.39185,-0.22252 -0.12085,0.0696 -0.24167,0.13921 -0.36255,0.20874 -0.003,0.002 0.006,-0.005 0.0102,-0.006 0.005,-10e-4 0.0106,0.001 0.0149,-10e-4 0.12734,-0.0745 0.25216,-0.15324 0.37866,-0.22916 0.003,-0.002 0.0125,-0.006 0.01,-0.004 -0.11973,0.0704 -0.23998,0.13997 -0.35997,0.20995 0.11979,-0.11364 0.28356,-0.16759 0.42807,-0.24224 0.0107,-0.003 0.0204,-0.0133 0.0314,-0.0145 0.0118,-0.001 0.0224,0.004 0.0329,-0.006 0.13867,-0.0514 0.0326,-0.0126 -0.35532,0.20945 -0.002,0.001 0.002,-0.006 0.005,-0.007 0.12598,-0.0748 0.25801,-0.13974 0.37987,-0.22107 0.007,-0.004 -1.00493,0.57961 0.022,-0.008 0.0153,-0.004 0.0559,-0.027 0.0298,-0.0119 -0.11999,0.0693 -0.4793,0.2785 -0.36012,0.20777 0.009,-0.005 0.97008,-0.56145 0.0273,-0.0132 0.12752,-0.0743 0.25267,-0.15288 0.38256,-0.22298 0.12188,-0.0658 -0.23846,0.14094 -0.35851,0.21 -0.004,0.002 0.005,-0.007 0.009,-0.009 0.12686,-0.0756 0.25908,-0.14255 0.38215,-0.22419 0.1008,-0.0669 -0.48759,0.28572 -0.34676,0.20135 0.001,-6.3e-4 0.0244,-0.0151 0.0247,-0.0154 0.004,-0.004 0.006,-0.01 0.0105,-0.0131 0.0142,-0.0114 0.0366,-0.012 0.047,-0.0292 0.12038,-0.10201 0.36198,-0.21866 0.42763,-0.25276 0.11804,-0.0613 -0.22987,0.13388 -0.34473,0.20094 -0.0158,0.009 0.0669,-0.0359 0.0439,-0.0329 0.0741,-0.0392 -0.0179,0.0109 0.0524,-0.0318 0.12947,-0.0786 0.26953,-0.14153 0.38936,-0.23414 0.10491,-0.0811 -0.4598,0.26437 -0.34427,0.19929 0.13188,-0.0743 0.26205,-0.15158 0.39334,-0.22693 0.008,-0.005 0.0165,-0.009 0.0247,-0.013 0.13749,-0.073 0.12589,-0.0673 -0.31608,0.18584 -0.0161,0.009 0.0316,-0.0197 0.0476,-0.0291 0.4647,-0.27348 0.25514,-0.15707 0.41528,-0.24579 0.15416,-0.0713 0.43617,-0.2058 -0.22858,0.14754 0.12986,-0.0734 0.30197,-0.23656 0.48064,-0.23401 0.0471,-2.3e-4 0.0942,3.3e-4 0.14126,5e-5 0.0604,-2e-5 0.1208,-4.6e-4 0.1812,-10e-4 0.0854,-0.001 0.17091,-0.005 0.25624,4.8e-4 0.0774,0.003 0.15494,0.001 0.23241,0.001 0.0756,4.2e-4 0.15134,3.1e-4 0.22694,0.003 0.052,0.002 0.11118,2e-5 0.12117,0.0646 -1.258,0.74329 0.87196,-0.50677 -0.39284,0.23444 -0.009,0.005 -0.0205,0.008 -0.0299,0.0126 -0.008,10e-4 -0.0305,0.01 -0.0235,0.006 0.11913,-0.0692 0.48145,-0.26775 0.35838,-0.20584 -0.13245,0.0666 -0.25409,0.15345 -0.38657,0.22002 -0.0767,0.0386 1.07953,-0.61257 -0.0226,0.009 -0.0228,6.5e-4 -0.0431,0.005 -0.0636,0.0155 0.1207,-0.0697 0.48152,-0.28099 0.36208,-0.20915 -0.12539,0.0754 -0.25321,0.14674 -0.37994,0.21989 -0.003,0.002 -0.006,0.005 -0.0103,0.005 -0.008,3.6e-4 -0.0195,-0.009 -0.0285,-0.004 -0.0144,-4e-5 -0.0288,-1.2e-4 -0.0432,5e-5 -0.0156,-6.3e-4 -0.0312,2e-4 -0.0467,-1.2e-4 -0.0154,-6e-5 -0.0309,1.4e-4 -0.0463,-1e-4 -0.0154,2.7e-4 -0.0308,4e-5 -0.0462,1.2e-4 -0.0156,1.3e-4 -0.0313,-4e-5 -0.0469,-1.8e-4 -0.0158,3.2e-4 -0.0315,10e-5 -0.0473,2.4e-4 -0.017,-6.9e-4 -0.0339,1.4e-4 -0.0509,-7e-5 -0.0141,1e-4 -0.0281,-8e-5 -0.0422,-3.1e-4 -0.0159,2.6e-4 -0.0318,-8e-5 -0.0476,0.002 -0.0161,0.003 -0.0313,0.007 -0.045,0.0163 -0.0236,0.0104 -0.0272,0.009 -0.0513,0.008 -0.11197,0.0804 0.48302,-0.26548 0.35955,-0.20423 -0.13181,0.0654 -0.2513,0.15406 -0.38388,0.21786 -0.12624,0.0607 0.24338,-0.13882 0.36481,-0.20868 0.003,-0.002 -0.006,0.003 -0.009,0.004 -0.12758,0.0738 -0.25516,0.14756 -0.38273,0.22134 -0.13348,0.033 0.48297,-0.26156 0.35666,-0.20723 -0.0384,0.0165 -0.96739,0.55795 -0.0324,0.0165 -0.12825,0.0729 -0.25651,0.14571 -0.38476,0.21857 -0.004,1e-4 -0.008,-7.2e-4 -0.0125,3e-4 -0.002,5.8e-4 -0.003,0.004 -0.006,0.004 -0.0101,0.002 -0.0201,-0.003 -0.0297,0.004 -0.13671,0.0601 4.8e-4,1.6e-4 0.35327,-0.20323 0.003,-0.002 -0.006,0.002 -0.009,0.004 -0.1277,0.0734 -0.25471,0.14804 -0.38237,0.22154 -0.003,0.002 -0.006,0.004 -0.009,0.004 -0.005,-5.9e-4 -0.009,-0.004 -0.013,-0.007 -0.0119,-2e-4 -0.0222,0.005 -0.0194,0.003 0.1221,-0.0699 0.49574,-0.26539 0.36745,-0.20764 -0.53591,0.24126 -0.23715,0.19018 -0.38909,0.21583 -0.14001,0.11717 0.48974,-0.30833 0.32974,-0.18588 -0.94895,0.56394 -0.0779,0.0462 -0.0165,0.01 0.007,-0.004 -0.0112,0.0117 -0.018,0.0158 -0.12532,0.0755 -0.25107,0.15036 -0.3766,0.22554 0.12212,-0.0701 0.24411,-0.14042 0.36637,-0.21026 0.002,-0.001 -0.004,0.003 -0.006,0.004 -0.12637,0.0734 -0.25268,0.14693 -0.37949,0.21957 -0.012,0.007 -0.0179,-0.006 -0.0298,9e-5 -0.0148,0.008 -0.0287,0.0177 -0.0452,0.0226 -0.0207,0.0118 -0.0441,-4.8e-4 -0.0623,0.0179 -0.0299,0.002 -0.0542,0.021 -0.0844,0.0145 -0.0139,8.2e-4 -0.0197,0.008 -0.0262,0.009 -0.009,0.001 -0.0228,-0.008 -0.0328,-0.003 -0.0195,5.3e-4 -0.0386,0.006 -0.0575,0.0102 -0.0271,0.008 -0.0496,0.0197 -0.079,0.0125 -0.0277,9.9e-4 -0.0542,0.009 -0.0824,0.006 -0.0283,0.002 -0.0569,0.004 -0.0837,0.0138 -0.0284,0.006 -0.0581,0.0126 -0.0841,0.0243 -0.0315,0.004 -0.0596,0.0231 -0.0915,0.0187 -0.0243,-9.6e-4 -0.0485,-0.003 -0.0727,-0.004 -0.002,2e-4 -0.0122,4.7e-4 -0.0147,0.003 -0.003,0.002 -0.002,0.008 -0.006,0.008 -0.006,9.2e-4 -0.0219,-0.0117 -0.0304,-0.005 -0.0186,4.1e-4 -0.0378,7.9e-4 -0.0557,0.006 -0.0228,0.009 -0.0482,0.0129 -0.0722,0.0182 -0.0342,-0.001 -0.066,0.006 -0.0984,0.0164 -0.14371,0.04 -0.40906,0.28795 0.27065,-0.16827 -0.12837,0.0968 -0.15082,0.11479 -0.40222,0.23405 -0.12339,0.0585 0.46791,-0.28157 0.35383,-0.2065 -0.12426,0.0818 -0.25648,0.15078 -0.38444,0.22665 -0.12017,0.0712 0.24959,-0.12859 0.36107,-0.21279 0.0128,-0.01 -0.0165,-0.0274 -0.0248,-0.0412 -0.008,-0.025 0.0229,-0.007 0.0361,-0.008 0.008,-0.001 0.03,-0.0134 0.016,-0.005 -0.12218,0.0705 -0.24449,0.14071 -0.36674,0.21107 0.0115,-0.002 0.006,0.001 0.012,-0.0135 0.14613,-0.0688 -0.15732,0.0744 0.38985,-0.22916 0.005,-0.003 0.0245,0.0157 0.0331,0.006 0.12902,-0.0506 0.42923,-0.22848 -0.34211,0.20533 -0.004,0.002 0.002,-0.01 0.004,-0.0133 0.002,-0.003 0.006,-0.003 0.009,-0.005 0.13758,-0.0738 0.24031,-0.13742 0.40213,-0.23136 0.003,-0.002 0.0112,-0.007 0.008,-0.006 -0.12038,0.0704 -0.24029,0.14155 -0.3608,0.21169 -0.003,0.002 0.006,-0.005 0.009,-0.007 0.12814,-0.0744 0.26164,-0.14014 0.38442,-0.22304 0.11537,-0.0779 -0.24205,0.13756 -0.36212,0.20798 -0.003,10e-4 0.006,-6.1e-4 0.009,-7.3e-4 0.003,-1.4e-4 0.008,0.003 0.01,-4e-5 0.003,-0.005 -0.005,-0.0148 5e-4,-0.0179 0.12478,-0.0766 0.25464,-0.14456 0.38196,-0.21684 0.005,-0.002 0.0186,-0.01 0.0141,-0.007 -0.95332,0.54936 0.0169,-0.0122 0.0405,-0.019 0.007,-0.003 0.026,-0.0131 0.0197,-0.009 -0.11989,0.0693 -0.48054,0.27551 -0.35981,0.20767 0.10564,-0.0593 0.25998,-0.19239 0.41096,-0.22953 0.11453,-0.0951 0.011,-0.009 -0.35495,0.20877 -0.003,0.002 0.006,-0.003 0.009,-0.005 0.12638,-0.0773 0.25259,-0.15479 0.37888,-0.23219 0.0155,0.004 0.009,0.003 0.0194,0.004 0.0149,2.8e-4 0.0298,4.5e-4 0.0447,9.5e-4 0.0164,1.3e-4 0.0329,4e-4 0.0487,-0.005 0.007,-0.002 0.0273,-0.0124 0.0208,-0.009 -0.11965,0.0698 -0.48201,0.27316 -0.35941,0.20866 0.19177,-0.10089 0.25174,-0.2348 0.41561,-0.22088 0.013,8e-4 0.0295,0.004 0.0414,-0.003 0.002,-0.001 0.003,-0.005 0.006,-0.006 0.004,-0.002 0.008,-7.4e-4 0.0125,-0.001 0.004,-0.002 0.0166,-0.0107 0.0124,-0.008 -0.87734,0.51479 -0.0635,0.0391 0.0295,-0.0275 0.13213,-0.064 0.005,-0.003 -0.35434,0.21088 -0.003,0.002 0.007,-0.002 0.009,-0.005 0.003,-0.004 0.002,-0.0108 0.006,-0.0134 0.1251,-0.0766 0.2619,-0.13507 0.37951,-0.22272 0.1124,-0.0838 -0.24254,0.14067 -0.3638,0.21101 0.0261,-0.002 -0.0115,0.003 0.0122,-0.0104 0.46359,-0.26772 0.24709,-0.17513 0.40339,-0.21982 0.1674,-0.0937 -0.50045,0.22964 -0.32815,0.19644 0.0512,-0.15521 0.001,-0.0157 0.38562,-0.23851 0.002,-10e-4 0.01,-0.004 0.008,-0.002 -0.93102,0.54427 -0.0145,0.004 0.0243,-0.0133 0.018,0.003 0.036,0.003 0.0543,0.002 0.018,-2.6e-4 0.036,-2.6e-4 0.054,3.4e-4 0.0175,0.002 0.0345,0.005 0.0508,0.0117 0.0306,0.012 0.0603,0.0267 0.0901,0.0404 0.0287,0.0144 0.0602,0.0219 0.0856,0.0424 0.14696,0.10299 0.35868,-0.17356 -0.2878,0.27887 -0.0118,-7.2e-4 -0.0235,-9e-4 -0.0353,-0.002 -0.0152,-0.002 -0.0296,-0.006 -0.0431,-0.0136 -0.0262,-0.0117 -0.0172,-0.018 -0.0399,-0.014 -0.0173,-0.008 -0.0321,-0.0182 -0.0436,-0.034 -0.0152,-0.009 -0.0243,-0.0228 -0.0408,-0.0283 -0.008,0.012 -0.0358,-0.004 -0.0429,-0.0107 -0.004,-0.004 -0.0258,-0.0269 -0.0291,-0.026 -0.004,10e-4 0.006,0.007 0.006,0.0109 2.5e-4,0.002 -0.003,-6.3e-4 -0.005,-9.4e-4 -0.0194,-0.004 -0.0353,-0.0132 -0.0497,-0.0267 -0.003,-0.002 -0.006,-0.008 -0.0103,-0.007 -0.003,5.6e-4 0.005,0.006 0.003,0.008 -0.002,0.004 -0.0345,-0.0154 -0.0376,-0.0207 -0.0507,-0.0282 -7.5e-4,-0.008 -0.0284,-0.008 -0.0217,-0.005 -0.0391,-0.0196 -0.059,-0.0291 -0.0123,-0.006 -0.0265,0.002 -0.039,-0.008 -1.6e-4,-1.1e-4 -0.0556,-0.0489 -0.04,-0.0217 -0.0172,-7.2e-4 -0.0322,-0.003 -0.0461,-0.014 -0.004,-0.004 -0.0186,-0.0228 -0.0283,-0.0224 -0.002,5e-5 7e-5,0.004 1e-4,0.006 -0.002,-8e-4 -0.005,-0.002 -0.007,-0.002 -0.0159,-0.007 -0.0327,-0.0134 -0.0433,-0.0281 -0.016,-0.002 -0.0336,0.005 -0.0495,-0.004 -0.016,-0.007 -0.0331,-0.0155 -0.0421,-0.0299 -0.013,0.01 -0.0446,-0.0301 -0.0498,-0.0361 0.0295,0.0146 -0.0431,8e-5 -0.0422,-0.006 -0.0491,-0.0196 -0.0986,-0.0379 -0.15199,-0.041 0,0 0.35287,-0.24881 0.35287,-0.24881 z"
     inkscape:connector-curvature="0" />
  <path
     style="fill:#fff200;fill-opacity:1;stroke-width:0.02916513"
     d="m 176.71527,102.50076 c -0.067,-0.29809 -0.2008,-0.56494 -0.33432,-0.66678 -0.15493,-0.11817 -0.39196,-0.11243 -0.64622,0.0157 -0.10289,0.0518 -0.19208,0.0892 -0.19819,0.0831 -0.0203,-0.0203 0.4105,-0.28152 0.51664,-0.31332 0.24062,-0.0721 0.51566,0.10473 0.61986,0.39849 0.0498,0.14041 0.12354,0.62631 0.10396,0.68505 -0.005,0.016 -0.0331,-0.075 -0.0617,-0.20223 z"
     id="path35"
     inkscape:connector-curvature="0" />
  <path
     style="fill:#fff200;fill-opacity:1;stroke-width:0.02916513"
     d="m 166.73827,122.44094 c 0.0128,-0.0208 0.2408,-0.30034 0.50671,-0.62115 1.3741,-1.65781 2.55364,-3.25279 3.46426,-4.68436 1.7688,-2.78072 4.20452,-7.94761 5.47727,-11.61895 0.13346,-0.38498 0.24334,-0.6823 0.24417,-0.6607 0.002,0.0641 -0.24317,0.91085 -0.43701,1.50649 -0.99751,3.06505 -2.80903,6.95247 -4.70922,10.10571 -0.97845,1.62369 -1.38531,2.21655 -3.3325,4.856 l -0.83913,1.13744 -0.19888,0.009 c -0.15707,0.007 -0.19401,7.2e-4 -0.17567,-0.0292 z"
     id="path37"
     inkscape:connector-curvature="0" />
  <path
     style="fill:#fff200;fill-opacity:1;stroke-width:0.02916513"
     d="m 172.42831,135.70968 c -0.0656,-3.05303 -1.11074,-6.28364 -3.0924,-9.55887 -0.65086,-1.07574 -1.55766,-2.36795 -2.35801,-3.36026 -0.12569,-0.15583 -0.22852,-0.29036 -0.22852,-0.29894 0,-0.009 0.0755,-0.0146 0.16769,-0.0134 l 0.1677,0.002 1.10255,1.66754 c 0.6064,0.91714 1.18872,1.81191 1.29404,1.98835 1.84243,3.08661 2.95883,6.65582 3.06286,9.7922 0.0178,0.53486 0.0169,0.54684 -0.0407,0.54684 -0.0571,0 -0.0593,-0.0228 -0.0752,-0.76558 z"
     id="path39"
     inkscape:connector-curvature="0" />
  <path
     style="fill:#fff200;fill-opacity:1;stroke-width:0.02916513"
     d="m 165.75776,143.42874 c -0.0561,-0.007 -0.22676,-0.0264 -0.37915,-0.0441 -0.36035,-0.0418 -0.77141,-0.14959 -1.03451,-0.27115 -0.46421,-0.21448 -0.95852,-0.62702 -1.38158,-1.15304 -0.21282,-0.26461 -0.55875,-0.76 -0.55875,-0.80015 0,-0.0447 0.077,-0.0129 0.11367,0.047 0.14365,0.23443 0.58629,0.78017 0.82608,1.01847 0.54948,0.54608 1.1655,0.86933 1.91843,1.00668 0.52472,0.0957 1.82587,0.0624 2.61028,-0.0668 2.1577,-0.35546 3.5564,-1.62559 4.17132,-3.78787 0.21971,-0.77257 0.39172,-1.95643 0.39272,-2.7029 3e-4,-0.20887 0.004,-0.22232 0.0586,-0.20805 0.0533,0.0139 0.0583,0.0398 0.0583,0.29767 0,0.37446 -0.0483,0.97847 -0.1156,1.44647 -0.19798,1.37625 -0.66633,2.55505 -1.34528,3.38599 -0.7777,0.95178 -2.05063,1.54185 -3.8326,1.77659 -0.33795,0.0445 -1.29287,0.0796 -1.502,0.0552 z"
     id="path42"
     inkscape:connector-curvature="0" />
  <path
     style="fill:#fff200;fill-opacity:1;stroke-width:0.04393837"
     d="m 238.92794,147.57931 c -0.0137,-0.22354 -0.0362,-0.76233 -0.0501,-1.19732 -0.085,-2.67251 -0.40578,-6.193 -0.83861,-9.20509 -1.80632,-12.57013 -6.22133,-24.49873 -12.97723,-35.06222 -0.21855,-0.34172 -0.39736,-0.63125 -0.39736,-0.64341 0,-0.0122 0.0538,-0.0158 0.1195,-0.008 0.1001,0.0116 0.17865,0.10659 0.48401,0.5851 8.02878,12.58101 12.82902,27.24701 13.78442,42.11492 0.0892,1.38836 0.1554,2.82324 0.15555,3.37227 l 1.2e-4,0.45037 h -0.12772 -0.12771 z"
     id="path44"
     inkscape:connector-curvature="0" />
  <path
     style="fill:#fff200;fill-opacity:1;stroke-width:0.04393837"
     d="m 202.41139,145.68996 c 2.84999,-5.65509 5.19272,-10.98222 7.26768,-16.52596 1.60062,-4.27643 2.04502,-6.71968 1.56583,-8.60869 -0.47081,-1.85599 -1.73267,-3.14291 -4.66087,-4.75346 -0.94327,-0.51881 -1.74438,-0.99541 -1.71782,-1.02196 0.0119,-0.0119 0.14658,0.0482 0.29927,0.1336 0.15269,0.0854 0.67274,0.3359 1.15565,0.5567 1.11183,0.50834 1.67579,0.80598 2.28406,1.20543 1.49053,0.97882 2.42468,2.12319 2.89632,3.54809 0.2202,0.66524 0.30047,1.20954 0.30027,2.03612 -3.5e-4,1.45903 -0.30899,2.74721 -1.33253,5.56137 -1.75696,4.83064 -4.70661,11.53602 -7.87001,17.89073 -1.02819,2.06545 -1.14167,2.27381 -1.23838,2.27381 -0.0993,0 -0.0282,-0.1554 1.05053,-2.29578 z"
     id="path46"
     inkscape:connector-curvature="0" />
  <path
     style="fill:#fff200;fill-opacity:1;stroke-width:0.04393837"
     d="m 213.33971,147.95701 c 0.0119,-0.0205 0.18958,-0.35353 0.39496,-0.74019 0.92146,-1.73476 1.6578,-3.17701 3.27263,-6.40993 2.91102,-5.82796 3.62319,-7.11724 4.62034,-8.36453 1.18833,-1.48643 2.18703,-1.96296 4.94835,-2.36112 0.43499,-0.0627 0.94947,-0.15128 1.14329,-0.19679 1.76242,-0.41385 2.65737,-1.33914 2.65737,-2.74746 0,-1.00286 -0.27168,-1.43012 -2.06395,-3.2459 -1.23151,-1.24766 -1.95034,-1.91257 -3.0988,-2.86634 -4.32974,-3.59574 -10.21511,-7.11328 -13.99437,-8.36409 -1.66561,-0.55126 -2.79092,-0.79304 -4.09208,-0.87922 l -0.58736,-0.0389 0.70301,0.0171 c 0.83862,0.0203 1.38325,0.0969 2.3366,0.32855 3.74728,0.91042 8.73137,3.54106 13.61303,7.18505 2.06199,1.5392 3.32851,2.61844 4.81596,4.1038 1.34939,1.34749 2.05136,2.23332 2.38406,3.00851 0.11421,0.26612 0.13397,0.3671 0.13416,0.68557 6.5e-4,1.14394 -0.63299,2.02866 -1.87038,2.61149 -0.56314,0.26525 -1.17697,0.43413 -2.26011,0.62182 -1.80383,0.31256 -3.11829,0.84492 -3.84187,1.55597 -0.9355,0.91929 -2.77158,4.04549 -5.7547,9.79826 -1.15744,2.23204 -2.61075,4.99431 -3.10928,5.90971 -0.12714,0.23345 -0.24753,0.40167 -0.29388,0.41065 -0.0432,0.008 -0.0688,-0.002 -0.057,-0.022 z"
     id="path48"
     inkscape:connector-curvature="0" />
  <path
     style="fill:#fff200;fill-opacity:1;stroke-width:0.04393837"
     d=""
     id="path50"
     inkscape:connector-curvature="0" />
  <path
     style="fill:#fff200;fill-opacity:1;stroke-width:0.04393837"
     d=""
     id="path52"
     inkscape:connector-curvature="0" />
  <path
     style="fill:#fff200;fill-opacity:1;stroke-width:0.04393837"
     d="m 236.92378,169.0432 c 1.7e-4,-0.0181 0.0879,-0.45805 0.19491,-0.97763 1.22657,-5.95419 1.82528,-11.88679 1.82579,-18.09162 l 1.6e-4,-1.98821 h 0.12555 c 0.12144,0 0.12648,0.009 0.15379,0.27008 0.069,0.66038 0.007,4.5219 -0.10443,6.49643 -0.24888,4.41213 -0.77407,8.57572 -1.60726,12.74213 -0.32839,1.64211 -0.31083,1.58178 -0.46053,1.58178 -0.0706,0 -0.12815,-0.0148 -0.12798,-0.033 z"
     id="path54"
     inkscape:connector-curvature="0" />
  <path
     style="fill:#fff200;fill-opacity:1;stroke-width:0.04393837"
     d="m 179.78851,179.5225 c 0.73791,-0.82796 2.68839,-3.17965 4.05419,-4.88814 6.42079,-8.0318 12.22917,-16.88732 17.05458,-26.00156 0.2274,-0.42952 0.42152,-0.75576 0.43137,-0.72499 0.01,0.0308 0.0364,0.068 0.0589,0.0828 0.0488,0.0319 -0.062,0.25552 -0.98651,1.98954 -5.92571,11.11475 -12.15448,20.23964 -19.95245,29.22953 -0.35085,0.40448 -0.36055,0.4117 -0.55266,0.4117 h -0.19554 z"
     id="path56"
     inkscape:connector-curvature="0" />
  <path
     style="fill:#fff200;fill-opacity:1;stroke-width:0.04393837"
     d=""
     id="path58"
     inkscape:connector-curvature="0" />
  <path
     style="fill:#fff200;fill-opacity:1;stroke-width:0.04393837"
     d="m 192.17965,179.5225 c 0.22841,-0.25476 1.17985,-1.38481 1.96901,-2.33863 8.12284,-9.81779 14.47793,-19.70921 22.09048,-34.38286 1.03344,-1.99201 1.2011,-2.32381 1.14344,-2.26282 -0.0228,0.0242 -0.67613,1.25993 -1.45174,2.74615 -1.53159,2.93482 -2.31767,4.40956 -2.43649,4.57102 -0.20506,0.27864 -0.0569,-0.0442 0.54507,-1.18777 0.36255,-0.68873 1.71209,-3.33822 2.99898,-5.88774 2.70306,-5.35521 3.13016,-6.16237 3.87678,-7.32672 l 0.23244,-0.3625 h 0.22202 0.22202 l -0.21369,0.31856 c -0.46733,0.69664 -1.85559,3.0647 -1.79667,3.0647 0.009,0 0.25202,-0.40828 0.53979,-0.90729 0.28777,-0.49901 0.74114,-1.2553 1.00749,-1.68065 l 0.48428,-0.77335 7.85003,-0.0111 c 7.44794,-0.0105 7.85127,-0.007 7.87427,0.0659 0.0386,0.12271 0.40392,2.24739 0.53773,3.1275 0.0671,0.44169 0.12934,0.78131 0.1382,0.75473 0.0268,-0.0803 -0.54945,-3.61991 -0.63196,-3.88211 -0.0194,-0.0618 0.002,-0.0769 0.11058,-0.0769 0.0741,0 0.13478,0.0179 0.13478,0.0399 0,0.0219 0.0597,0.35869 0.13265,0.74838 0.749,4.00057 1.22846,8.36055 1.40815,12.80492 0.0403,0.99821 0.0398,1.27552 -0.003,1.30168 -0.0339,0.0209 -0.0375,0.0433 -0.01,0.0604 0.16368,0.10117 0.0743,5.07735 -0.14686,8.1783 -0.27628,3.87325 -0.74892,7.3952 -1.51547,11.29252 -0.26282,1.33626 -0.32462,1.55946 -0.43177,1.55946 -0.0434,0 -0.0892,-0.0103 -0.10185,-0.023 -0.0126,-0.0126 0.0436,-0.35318 0.12489,-0.75674 0.0813,-0.40355 0.14141,-0.75318 0.13349,-0.77694 -0.008,-0.0238 -0.0589,0.18331 -0.11331,0.46016 -0.62742,3.19311 -1.76676,7.38413 -2.9349,10.79592 l -0.28959,0.84581 H 212.98461 192.0903 l 0.0886,-0.0989 z m 45.08049,-12.21486 c -0.0122,-0.0302 -0.0222,-0.005 -0.0222,0.0549 0,0.0604 0.01,0.0851 0.0222,0.0549 0.0122,-0.0302 0.0122,-0.0796 0,-0.10984 z m 0.34475,-1.71746 c 0.0628,-0.35857 0.10776,-0.67132 0.0999,-0.695 -0.0142,-0.0426 -0.38798,1.97096 -0.41319,2.22572 -0.0201,0.20329 0.18556,-0.80158 0.31332,-1.53072 z m 0.41512,-2.57752 c 0.17694,-1.20919 0.39806,-2.97851 0.39262,-3.14159 -0.002,-0.0725 -0.0416,0.16477 -0.0871,0.52726 -0.1709,1.36164 -0.31294,2.39842 -0.43942,3.2075 -0.0718,0.45916 -0.13934,0.9238 -0.15013,1.03255 -0.0347,0.34943 0.14803,-0.69623 0.28405,-1.62572 z m 0.47471,-3.93248 c -0.002,-0.15189 -0.006,-0.14294 -0.0352,0.0659 -0.0184,0.13291 -0.0326,0.32075 -0.0316,0.41741 0.002,0.15189 0.006,0.14294 0.0352,-0.0659 0.0184,-0.13291 0.0326,-0.32075 0.0316,-0.41741 z m 0.042,-0.53825 c -0.0101,-0.0665 -0.0183,-0.0121 -0.0183,0.12083 0,0.13292 0.008,0.18729 0.0183,0.12083 0.0101,-0.0665 0.0101,-0.1752 0,-0.24166 z m 0.0956,-0.88609 c 0.008,-0.4164 -0.0278,-0.21996 -0.0519,0.28194 -0.0165,0.34322 -0.013,0.4069 0.012,0.21969 0.0194,-0.14499 0.0373,-0.37073 0.04,-0.50163 z m 0.0366,-0.62899 c -0.01,-0.079 -0.018,-0.025 -0.0182,0.12004 -4.4e-4,0.145 0.008,0.20961 0.0178,0.14359 0.01,-0.066 0.0102,-0.18466 4.4e-4,-0.26363 z m 0.0439,-0.57199 c -0.01,-0.0785 -0.0177,-0.0143 -0.0177,0.1428 0,0.15708 0.008,0.22134 0.0177,0.1428 0.01,-0.0785 0.01,-0.20706 0,-0.2856 z m 0.0442,-0.68104 c -0.009,-0.0906 -0.0172,-0.0165 -0.0172,0.16477 0,0.18124 0.008,0.25539 0.0172,0.16476 0.009,-0.0906 0.009,-0.23891 0,-0.32953 z m 0.0442,-0.72383 c -0.009,-0.10334 -0.017,-0.0297 -0.0172,0.16361 0,0.19333 0.007,0.27789 0.0169,0.1879 0.009,-0.09 0.01,-0.24816 4.4e-4,-0.35151 z m 0.0439,-0.83599 c -0.009,-0.1027 -0.0168,-0.0187 -0.0168,0.18674 0,0.20541 0.008,0.28945 0.0168,0.18674 0.009,-0.10271 0.009,-0.27077 0,-0.37348 z m 0.0443,-1.07488 c -0.009,-0.13984 -0.016,-0.0368 -0.0161,0.22907 0,0.26583 0.007,0.38024 0.0159,0.25425 0.009,-0.12599 0.009,-0.34348 0,-0.48332 z m 0.0442,-2.02277 c -0.008,-0.25979 -0.0141,-0.0472 -0.0141,0.47234 0,0.51957 0.006,0.73212 0.0141,0.47233 0.008,-0.25978 0.008,-0.68488 0,-0.94467 z m -0.0299,-4.31695 -0.041,-0.76892 0.0189,0.83483 c 0.0104,0.45916 0.0235,1.24016 0.0291,1.73557 l 0.0102,0.90073 0.0119,-0.96664 c 0.007,-0.53165 -0.007,-1.31266 -0.0291,-1.73557 z m -0.11279,-2.41661 c -0.0401,-0.6404 -0.09,-1.31265 -0.11077,-1.4939 -0.0375,-0.32631 -0.0376,-0.32545 -0.0171,0.0879 0.0114,0.22957 0.0495,0.8524 0.0847,1.38406 0.0351,0.53165 0.0678,1.12482 0.0727,1.31815 0.007,0.29829 0.0114,0.31492 0.0261,0.10984 0.01,-0.13291 -0.0155,-0.76562 -0.0556,-1.40603 z m -0.16585,-2.20711 c -0.01,-0.079 -0.018,-0.0249 -0.0182,0.12004 -4.4e-4,0.145 0.008,0.20961 0.0178,0.14359 0.01,-0.066 0.0102,-0.18466 4.4e-4,-0.26363 z m -0.0443,-0.50608 c -0.0101,-0.0665 -0.0183,-0.0121 -0.0183,0.12083 0,0.13291 0.008,0.18729 0.0183,0.12083 0.0101,-0.0665 0.0101,-0.1752 0,-0.24166 z m -0.0439,-0.43878 c -0.0101,-0.0668 -0.0186,-0.0226 -0.019,0.0983 -4.4e-4,0.12083 0.008,0.17547 0.0184,0.12143 0.0104,-0.054 0.0107,-0.1529 6.2e-4,-0.21969 z m -0.0439,-0.43938 c -0.0101,-0.0668 -0.0186,-0.0226 -0.019,0.0983 -4.4e-4,0.12084 0.008,0.17548 0.0184,0.12144 0.0104,-0.054 0.0107,-0.1529 6.2e-4,-0.21969 z m -0.0445,-0.41802 c -0.0105,-0.0544 -0.019,-0.01 -0.019,0.0989 0,0.10875 0.009,0.15324 0.019,0.0989 0.0105,-0.0544 0.0105,-0.14335 0,-0.19772 z m -20.79188,-0.29659 c 0.10923,-0.21749 0.18872,-0.39544 0.17663,-0.39544 -0.0121,0 -0.11134,0.17795 -0.22057,0.39544 -0.10923,0.2175 -0.18872,0.39545 -0.17664,0.39545 0.0121,0 0.11135,-0.17795 0.22058,-0.39545 z m 20.60881,-1.28309 c -0.0866,-0.68385 -0.17615,-1.34222 -0.19895,-1.46305 l -0.0415,-0.2197 0.0188,0.2197 c 0.0103,0.12083 0.0887,0.76878 0.17427,1.4399 0.0855,0.67111 0.15848,1.28405 0.1621,1.36209 0.006,0.12982 0.008,0.13179 0.0247,0.0232 0.01,-0.0653 -0.0528,-0.67823 -0.13939,-1.36209 z m -20.14746,0.40433 c 0.0493,-0.0967 0.0798,-0.17576 0.0677,-0.17576 -0.0121,0 -0.0623,0.0791 -0.11163,0.17576 -0.0493,0.0967 -0.0798,0.17575 -0.0677,0.17575 0.0121,0 0.0623,-0.0791 0.11163,-0.17575 z m 0.32954,-0.61514 c 0.0375,-0.0725 0.0583,-0.13181 0.0462,-0.13181 -0.0121,0 -0.0526,0.0593 -0.0901,0.13181 -0.0375,0.0725 -0.0583,0.13182 -0.0462,0.13182 0.0121,0 0.0526,-0.0593 0.0901,-0.13182 z m 0.32954,-0.61514 c 0.0493,-0.0967 0.0798,-0.17575 0.0677,-0.17575 -0.0121,0 -0.0623,0.0791 -0.11163,0.17575 -0.0493,0.0967 -0.0798,0.17576 -0.0677,0.17576 0.0121,0 0.0623,-0.0791 0.11164,-0.17576 z m 0.21969,-0.39544 c 0.0493,-0.0967 0.0798,-0.17576 0.0677,-0.17576 -0.0121,0 -0.0623,0.0791 -0.11163,0.17576 -0.0493,0.0967 -0.0798,0.17575 -0.0677,0.17575 0.0121,0 0.0623,-0.0791 0.11163,-0.17575 z m 0.26363,-0.48332 c 0.0493,-0.0967 0.0798,-0.17576 0.0677,-0.17576 -0.0121,0 -0.0623,0.0791 -0.11163,0.17576 -0.0493,0.0967 -0.0798,0.17575 -0.0677,0.17575 0.0121,0 0.0623,-0.0791 0.11163,-0.17575 z m 0.21969,-0.39545 c 0.0493,-0.0967 0.0798,-0.17575 0.0677,-0.17575 -0.0121,0 -0.0623,0.0791 -0.11163,0.17575 -0.0493,0.0967 -0.0798,0.17575 -0.0677,0.17575 0.0121,0 0.0623,-0.0791 0.11163,-0.17575 z"
     id="path60"
     inkscape:connector-curvature="0" />
  <path
     style="fill:#fff200;fill-opacity:1;stroke-width:0.04393837"
     d="m 191.93463,179.54895 c 7.91886,-9.24359 14.343,-18.62975 20.58045,-30.06959 0.42815,-0.78524 0.79449,-1.44477 0.81409,-1.46561 0.0196,-0.0208 0.0563,-0.0307 0.0816,-0.022 0.0253,0.009 -0.33515,0.70796 -0.80095,1.55377 -5.96054,10.82316 -11.32924,18.88831 -17.95847,26.97816 -1.79894,2.19529 -2.56058,3.074 -2.67935,3.09115 -0.10036,0.0145 -0.10271,0.0104 -0.0374,-0.0659 z"
     id="path62"
     inkscape:connector-curvature="0" />
  <path
     style="fill:#fff200;fill-opacity:1;stroke-width:0.04393837"
     d="m 151.6407,204.94085 c 10e-4,-0.10512 0.0769,-0.17225 0.58078,-0.51628 0.31855,-0.21749 1.10378,-0.76929 1.74495,-1.22621 7.902,-5.63126 15.41712,-12.29462 22.45391,-19.909 0.81018,-0.87668 2.76709,-3.0628 3.0966,-3.45929 0.1586,-0.19083 0.18993,-0.20871 0.36596,-0.20871 h 0.19251 l -0.17498,0.20871 c -0.29084,0.3469 -1.90295,2.13045 -2.75024,3.04272 -3.54157,3.81316 -8.09592,8.29876 -11.75838,11.58089 -3.34834,3.00063 -6.70413,5.68323 -10.43536,8.34197 -1.48285,1.05663 -3.24073,2.26603 -3.29369,2.26603 -0.013,0 -0.0229,-0.0544 -0.0221,-0.12083 z"
     id="path64"
     inkscape:connector-curvature="0" />
  <path
     style="fill:#fff200;fill-opacity:1;stroke-width:0.04393837"
     d="m 155.04432,210.6286 c 7.53285,-4.4861 14.66183,-9.61808 21.15633,-15.22993 5.20582,-4.49832 9.96214,-9.24997 14.8252,-14.81066 0.45439,-0.51957 0.86361,-0.95099 0.90938,-0.95872 0.0458,-0.008 0.0832,-0.001 0.0832,0.014 0,0.0786 -2.74549,3.14257 -4.56703,5.09674 -1.19579,1.28287 -5.4764,5.56459 -6.7471,6.74884 -8.0788,7.52922 -15.98197,13.51274 -25.07416,18.98375 -1.08718,0.65418 -1.33146,0.78432 -1.47194,0.78416 -0.15407,-1.8e-4 -0.0786,-0.0537 0.88609,-0.6282 z"
     id="path66"
     inkscape:connector-curvature="0" />
  <path
     style="fill:#fff200;fill-opacity:1;stroke-width:0.04393837"
     d="m 117.19508,222.53222 c 0.0416,-0.0385 1.72623,-0.75537 2.85234,-1.21384 2.45445,-0.99927 3.12256,-1.27635 4.21808,-1.74929 6.92929,-2.99145 15.45726,-7.34555 21.52077,-10.98779 1.50167,-0.90202 2.78119,-1.71217 4.3809,-2.77384 0.74915,-0.49718 1.3868,-0.91897 1.41701,-0.93731 0.0391,-0.0237 0.0549,0.004 0.0549,0.096 0,0.12111 -0.0889,0.18813 -1.39504,1.05125 -10.0548,6.64455 -20.82105,12.10362 -31.66137,16.05401 -1.16593,0.42489 -1.45123,0.51963 -1.38761,0.4608 z"
     id="path68"
     inkscape:connector-curvature="0" />
  <path
     style="fill:#fff200;fill-opacity:1;stroke-width:0.04393837"
     d="m 114.94488,227.03311 c -0.29452,-0.0541 -0.58693,-0.1949 -0.83325,-0.40113 -0.27923,-0.23378 -0.2797,-0.31474 -6.4e-4,-0.10989 0.39697,0.2914 0.68071,0.39318 1.1511,0.41289 1.07483,0.0451 2.79712,-0.40564 8.45418,-2.21228 10.31491,-3.29417 19.9461,-7.53867 29.31456,-12.91903 0.85476,-0.49089 1.03702,-0.57977 1.1351,-0.55354 0.10312,0.0276 -0.0423,0.12215 -1.23794,0.80483 -7.00761,4.00132 -14.36453,7.4445 -21.98386,10.28887 -4.3766,1.63383 -10.72875,3.71078 -13.37923,4.37458 -1.11418,0.27905 -2.14221,0.40253 -2.62002,0.3147 z"
     id="path70"
     inkscape:connector-curvature="0" />
  <path
     style="fill:#fff200;fill-opacity:1;stroke-width:0.04393837"
     d="m 113.74732,226.23797 c -0.35844,-0.42598 -0.4645,-0.86748 -0.29853,-1.24268 0.0841,-0.19014 0.52563,-0.71276 0.56711,-0.67128 0.0101,0.0101 -0.0329,0.0994 -0.0955,0.19859 -0.37451,0.59327 -0.42456,1.2194 -0.13195,1.65059 0.14012,0.20648 0.11346,0.24849 -0.0411,0.0648 z"
     id="path72"
     inkscape:connector-curvature="0" />
  <path
     style="fill:#fff200;fill-opacity:1;stroke-width:0.04393837"
     d="m 147.61874,239.21629 c -15.0605,-0.43302 -29.55848,-4.55475 -42.4997,-12.08255 -7.163765,-4.16711 -13.751005,-9.34479 -19.482959,-15.31393 -0.783204,-0.81561 -0.788512,-0.82247 -0.774967,-1.00095 l 0.01364,-0.1797 1.032551,1.08549 c 2.802938,2.94664 6.353038,6.1233 9.842194,8.8069 5.645811,4.34232 11.941491,8.07132 18.410171,10.90455 7.84819,3.43743 16.25173,5.78786 24.60549,6.88205 5.27665,0.69115 11.85185,0.81247 18.01473,0.3324 1.07569,-0.0838 0.97448,-0.0944 0.95831,0.10087 l -0.0136,0.16477 -0.65908,0.0523 c -2.86579,0.2274 -6.67804,0.3274 -9.44675,0.2478 z"
     id="path74"
     inkscape:connector-curvature="0" />
  <path
     style="fill:#fff200;fill-opacity:1;stroke-width:0.04393837"
     d="m 157.74653,238.74243 c 0,-0.18241 -0.0927,-0.1615 1.27422,-0.28745 2.70998,-0.24973 5.8747,-0.69773 8.56798,-1.21289 8.15431,-1.55973 16.72693,-4.63924 24.38575,-8.75997 0.49539,-0.26654 0.90566,-0.48461 0.91173,-0.48461 0.006,0 0.011,0.0579 0.011,0.12865 0,0.11843 -0.0393,0.15037 -0.49431,0.40192 -0.76411,0.42243 -3.11343,1.61176 -4.16316,2.10757 -9.29917,4.39226 -18.953,7.08872 -29.16976,8.14756 -1.39968,0.14506 -1.32347,0.14741 -1.32347,-0.0408 z"
     id="path76"
     inkscape:connector-curvature="0" />
  <path
     style="fill:#fff200;fill-opacity:1;stroke-width:0.06914723"
     d=""
     id="path78"
     inkscape:connector-curvature="0" />
  <path
     style="fill:#fff200;fill-opacity:1;stroke-width:0.06914723"
     d=""
     id="path82"
     inkscape:connector-curvature="0" />
  <path
     style="fill:#fff200;fill-opacity:1;stroke-width:0.06914723"
     d="m 192.89152,228.0998 c 0.002,-0.0833 0.34644,-0.31326 1.10509,-0.73766 3.1557,-1.76534 6.97639,-4.31196 10.23229,-6.82018 7.38916,-5.69233 14.00602,-12.68728 19.19442,-20.29121 2.4295,-3.56058 4.17624,-6.52377 6.11414,-10.37209 0.97213,-1.93048 2.55777,-5.37913 2.55777,-5.56297 0,-0.0399 0.0643,-0.0725 0.14296,-0.0725 0.18572,0 0.19574,-0.0291 -0.63193,1.83604 -7.76292,17.49375 -20.72485,31.87225 -37.28389,41.35856 -0.75177,0.43067 -1.38188,0.78304 -1.40024,0.78304 -0.0184,0 -0.0321,-0.0545 -0.0306,-0.12101 z"
     id="path84"
     inkscape:connector-curvature="0" />
  <path
     style="fill:#fff200;fill-opacity:1;stroke-width:0.06914723"
     d="m 232.18386,184.15673 c 0.0188,-0.0475 0.25222,-0.63097 0.5186,-1.29651 0.98406,-2.45866 2.10447,-5.74988 2.85271,-8.37992 0.39673,-1.39448 1.17957,-4.48376 1.28159,-5.05745 0.0435,-0.24461 0.18706,-0.39599 0.2838,-0.29925 0.0485,0.0485 -0.32692,1.66455 -0.85404,3.6757 -0.75844,2.89376 -1.87011,6.33354 -2.9498,9.12743 -0.89941,2.32738 -0.89437,2.31614 -1.03873,2.3163 -0.0749,8e-5 -0.11413,-0.0359 -0.0941,-0.0863 z"
     id="path87"
     inkscape:connector-curvature="0" />
  <path
     style="fill:#fff200;fill-opacity:1;stroke-width:0.06914723"
     d="m 224.07595,100.59579 c -4.87552,-7.341159 -11.34669,-14.365054 -18.46411,-20.041174 -9.92882,-7.918213 -21.39942,-13.637751 -33.74385,-16.825559 -1.17259,-0.30281 -3.06397,-0.736381 -4.66743,-1.06994 l -0.48403,-0.10069 0.52419,-0.0072 c 0.37732,-0.0052 0.88104,0.07103 1.79783,0.272013 16.45083,3.606373 31.46619,11.720027 43.37556,23.438293 4.00538,3.941104 7.09549,7.537185 10.13081,11.789603 0.85591,1.199108 2.28985,3.309664 2.28985,3.370324 0,0.0162 -0.0429,0.0294 -0.0955,0.0294 -0.0525,0 -0.35102,-0.38479 -0.66336,-0.85509 z"
     id="path89"
     inkscape:connector-curvature="0" />
  <path
     style="fill:#fff200;fill-opacity:1;stroke-width:0.06914723"
     d="m 104.51859,73.347864 c 0,-0.207939 2.79465,-1.771135 6.01581,-3.364954 15.80238,-7.81898 33.72158,-10.770041 51.2381,-8.438252 1.37141,0.182561 4.20177,0.649726 5.22061,0.861689 l 0.62233,0.12947 -0.6569,-0.01926 c -0.37565,-0.01102 -1.35262,-0.141748 -2.28186,-0.305343 -13.79786,-2.429157 -28.65413,-1.302957 -42.42183,3.215847 -5.75956,1.89039 -11.63448,4.516196 -16.80277,7.51003 -0.45637,0.264361 -0.85311,0.494093 -0.88163,0.510515 -0.0285,0.01642 -0.0519,-0.02846 -0.0519,-0.09974 z"
     id="path91"
     inkscape:connector-curvature="0" />
  <path
     style="fill:#fff200;fill-opacity:1;stroke-width:0.06914723"
     d="m 63.143837,129.53042 c 5.172418,-21.99081 18.599118,-41.29184 37.433363,-53.810864 1.5586,-1.035997 3.8173,-2.457699 3.9046,-2.457699 0.0202,0 0.0358,0.05445 0.0345,0.121008 -0.002,0.08042 -0.29485,0.294965 -0.8745,0.639611 -1.0703,0.636376 -3.654547,2.332452 -4.924286,3.231879 -10.054224,7.121963 -18.479186,16.203073 -24.779049,26.708875 -2.646636,4.41359 -5.030875,9.28431 -7.294228,14.90123 -1.177822,2.92298 -2.162809,6.04242 -3.023978,9.57689 -0.480808,1.97337 -0.427568,1.79783 -0.545271,1.79783 -0.07993,0 -0.0673,-0.12998 0.06883,-0.70876 z"
     id="path93"
     inkscape:connector-curvature="0" />
  <path
     style="fill:#fff200;fill-opacity:1;stroke-width:0.06914723"
     d="m 68.04848,185.29766 c -0.184316,-0.38456 -1.22571,-2.96542 -1.597359,-3.95868 -5.538456,-14.80201 -7.067181,-30.82164 -4.419483,-46.31211 0.201977,-1.18168 0.915472,-4.79295 0.955427,-4.83579 0.0069,-0.007 0.0508,0.0101 0.09747,0.0389 0.06506,0.0402 0.03526,0.28541 -0.127704,1.05074 -0.942686,4.42727 -1.535236,8.74811 -1.876978,13.68681 -0.118938,1.71883 -0.119844,8.59432 -0.0014,10.26836 0.530555,7.49577 1.879273,14.60719 4.098161,21.60851 0.895575,2.82583 1.89078,5.48768 3.225117,8.62612 0.02207,0.0519 -0.01633,0.0864 -0.09614,0.0864 -0.08536,0 -0.177329,-0.0927 -0.257165,-0.2593 z"
     id="path95"
     inkscape:connector-curvature="0" />
  <path
     style="fill:#fff200;fill-opacity:1;stroke-width:0.06914723"
     d="m 83.862859,209.89048 c -6.295425,-6.93317 -11.693721,-15.22476 -15.426085,-23.69391 -0.272382,-0.61806 -0.276767,-0.63953 -0.130172,-0.63739 0.125674,0.002 0.204241,0.12346 0.45786,0.70876 0.47498,1.09616 1.588775,3.40312 2.360853,4.88995 3.490614,6.72203 8.074744,13.29438 13.070142,18.7389 0.516621,0.56307 0.655597,0.75567 0.61912,0.85803 -0.03903,0.10953 -0.200981,-0.0375 -0.951718,-0.86434 z"
     id="path97"
     inkscape:connector-curvature="0" />
</svg>
