<svg width="1500" height="1500" viewBox="0 0 1500 1500" fill="none" xmlns="http://www.w3.org/2000/svg">
<path d="M1330 749.161C1330 889.326 1265.08 1012.19 1160.12 1118.14C1055.16 1221.68 910.157 1308.43 750 1321.31C537.426 1340.89 377.017 1253 275.971 1073.06C224.817 983.023 170 866.597 170 749.161C170 546.362 246.289 408.217 383.584 302.272C481.598 226.507 616.62 162.359 750 177.133C910.157 192.539 1004.38 193.423 1109.34 294.569C1214.3 393.695 1330 605.838 1330 749.161Z" fill="#FFF033"/>
<mask id="path-2-outside-1" maskUnits="userSpaceOnUse" x="208.111" y="183.821" width="1083.89" height="1153.72" fill="black">
<rect fill="white" x="208.111" y="183.821" width="1083.89" height="1153.72"/>
<path d="M1161.84 894.192L955.063 439.68C963.571 422.155 965.277 401.434 957.888 381.882C943.563 343.977 900.823 324.883 862.618 339.321C847.292 345.113 835.174 355.537 826.866 368.275L689.089 369.849C672.641 336.128 632.854 319.632 596.805 333.256C561.117 346.743 542.182 384.746 551.447 420.576L383.635 519.358C364.07 504.76 337.697 499.987 313.078 509.291C274.856 523.735 255.41 566.33 269.729 604.219C283.078 639.542 321.068 658.163 357.117 648.918L492.822 898.837C475.238 918.677 468.637 947.034 478.579 973.343C492.91 1011.27 535.65 1030.36 573.872 1015.91C575.613 1015.26 577.092 1014.27 578.753 1013.5L656.952 1129.14C635.112 1148.92 626.202 1180.56 637.153 1209.54C651.485 1247.46 694.248 1266.56 732.47 1252.12C765.002 1239.82 783.685 1207.1 779.741 1174.24L1112.62 1014.35C1132.22 1037.54 1165 1047.28 1195.19 1035.87C1233.39 1021.43 1252.81 978.824 1238.48 940.901C1226.45 909.05 1194.41 890.799 1161.84 894.192ZM1143.44 898.254C1143.37 898.28 1143.29 898.289 1143.22 898.315C1141.76 898.869 1140.53 899.726 1139.13 900.352L965.135 737.018C973.277 719.67 974.743 699.255 967.477 680.028C958.628 656.611 938.899 640.432 916.121 634.848L920.422 473.922C929.106 469.741 936.654 464.113 942.875 457.324L1143.44 898.254ZM1096.29 957.007L961.61 953.539C961.382 945.689 960.178 937.758 957.249 930.009C949.763 910.201 934.44 895.72 916.138 888.269L923.669 775.149C923.841 775.084 924.016 775.077 924.171 775.018C936.705 770.282 946.957 762.322 954.92 752.685L1122.89 910.359C1108.34 922.154 1098.95 938.818 1096.29 957.007ZM588.031 885.454L601.839 747.443C611.284 747.724 620.956 746.259 630.352 742.708C635.748 740.668 640.653 737.955 645.265 734.883L822.074 923.66C817.473 932.808 814.639 942.773 814.132 953.111L621.261 939.654C620.649 933.395 619.518 927.117 617.191 920.959C611.395 905.673 600.883 893.655 588.031 885.454ZM584.849 622.302C613.554 611.454 645.65 625.793 656.413 654.274C667.177 682.754 652.592 714.754 623.887 725.602C595.165 736.457 563.045 722.107 552.282 693.627C541.519 665.146 556.126 633.157 584.849 622.302ZM648.748 470.756C682.867 457.862 701.819 422.511 695.304 388.066L818.256 386.679C813.521 401.781 813.305 418.362 819.31 434.253C824.029 446.74 832.019 456.935 841.736 464.816L667.603 635.657C658.218 620.262 643.608 609.441 626.978 604.172L641.669 472.669C644.022 472.014 646.421 471.636 648.748 470.756ZM917.724 757.906C889.019 768.754 856.882 754.411 846.112 725.914C835.355 697.45 849.963 665.461 878.685 654.606C907.373 643.765 939.487 658.097 950.244 686.561C961.013 715.058 946.412 747.065 917.724 757.906ZM861.997 887.441C850.188 891.904 840.473 899.25 832.701 908.091L659.059 722.691C663.643 717.615 667.557 712.07 670.542 705.996L824.623 710.498C825.006 717.821 826.144 725.21 828.872 732.429C840.837 764.091 872.599 782.29 904.978 779.183L898.044 883.612C886.213 882.023 873.927 882.932 861.997 887.441ZM872.221 637.501C847.429 646.87 830.755 668.126 825.854 692.224L676.714 687.869C678.937 676.805 678.476 665.211 675.248 653.802L857.579 474.937C871.143 481.11 886.555 483.105 901.862 480.233L897.78 632.924C889.246 633.022 880.634 634.321 872.221 637.501ZM835.929 975.858C825.172 947.394 839.756 915.394 868.479 904.54C897.167 893.698 929.28 908.031 940.043 936.511C950.807 964.992 936.229 997.009 907.524 1007.86C878.795 1018.69 846.692 1004.34 835.929 975.858ZM940.647 388.398C951.417 416.895 936.833 448.895 908.128 459.743C879.423 470.591 847.303 456.242 836.533 427.744C825.77 399.263 840.36 367.281 869.083 356.426C897.771 345.585 929.884 359.917 940.647 388.398ZM603.252 350.368C631.94 339.526 664.053 353.859 674.81 382.322C685.58 410.82 670.995 442.82 642.29 453.668C613.585 464.516 581.465 450.166 570.696 421.669C559.939 393.205 574.547 361.216 603.252 350.368ZM558.248 437.789C571.429 461.407 596.353 475.485 622.858 475.341L608.85 600.623C598.775 600.032 588.436 601.398 578.367 605.203C557.748 612.996 542.88 629.073 535.546 648.089L407.33 605.311C414.109 588.733 415.088 569.792 408.3 551.831C405.585 544.647 401.588 538.397 397.056 532.662L558.248 437.789ZM286.98 597.68C276.223 569.216 290.831 537.227 319.553 526.373C348.241 515.531 380.337 529.87 391.094 558.334C401.864 586.831 387.28 618.831 358.592 629.673C329.869 640.527 297.75 626.178 286.98 597.68ZM374.405 642.111C383.919 636.893 392.012 629.945 398.24 621.609L531.164 665.951C529.84 677.203 530.792 688.846 535.052 700.118C543.54 722.578 562.081 738.169 583.659 744.382L570.366 877.292C555.047 872.467 538.121 872.256 521.915 878.38C516.502 880.426 511.586 883.164 506.968 886.219L374.405 642.111ZM495.813 966.81C485.056 938.347 499.657 906.34 528.362 895.492C557.068 884.644 589.164 898.983 599.927 927.464C610.69 955.945 596.106 987.944 567.401 998.792C538.689 1009.62 506.576 995.291 495.813 966.81ZM594.397 1003.7C608.62 992.071 617.851 975.778 620.661 957.982L815.84 971.603C816.592 975.209 817.344 978.815 818.689 982.373C822.671 992.91 829.011 1001.81 836.684 1009.14L747.747 1122.27C728.579 1109.56 703.73 1105.79 680.49 1114.57C677.524 1115.69 674.884 1117.26 672.165 1118.72L594.397 1003.7ZM726.01 1234.97C697.287 1245.83 665.168 1231.48 654.398 1202.98C643.641 1174.52 658.242 1142.51 686.965 1131.66C715.653 1120.81 747.749 1135.15 758.512 1163.63C769.275 1192.11 754.698 1224.13 726.01 1234.97ZM775.225 1156.09C771.945 1147.82 767.262 1140.54 761.597 1134.26L851.459 1019.97C869.916 1030.34 892.559 1033.06 913.971 1024.97C938.211 1015.81 954.79 995.292 960.077 971.849L1095.85 975.352C1096.5 981.343 1097.63 987.366 1099.86 993.267C1100.61 995.251 1101.73 996.96 1102.63 998.827L775.225 1156.09ZM1188.72 1018.7C1160.01 1029.55 1127.88 1015.21 1117.11 986.711C1106.35 958.247 1120.96 926.258 1149.68 915.404C1178.37 904.562 1210.48 918.895 1221.24 947.358C1231.99 975.863 1217.41 1007.86 1188.72 1018.7Z"/>
</mask>
<path d="M1161.84 894.192L955.063 439.68C963.571 422.155 965.277 401.434 957.888 381.882C943.563 343.977 900.823 324.883 862.618 339.321C847.292 345.113 835.174 355.537 826.866 368.275L689.089 369.849C672.641 336.128 632.854 319.632 596.805 333.256C561.117 346.743 542.182 384.746 551.447 420.576L383.635 519.358C364.07 504.76 337.697 499.987 313.078 509.291C274.856 523.735 255.41 566.33 269.729 604.219C283.078 639.542 321.068 658.163 357.117 648.918L492.822 898.837C475.238 918.677 468.637 947.034 478.579 973.343C492.91 1011.27 535.65 1030.36 573.872 1015.91C575.613 1015.26 577.092 1014.27 578.753 1013.5L656.952 1129.14C635.112 1148.92 626.202 1180.56 637.153 1209.54C651.485 1247.46 694.248 1266.56 732.47 1252.12C765.002 1239.82 783.685 1207.1 779.741 1174.24L1112.62 1014.35C1132.22 1037.54 1165 1047.28 1195.19 1035.87C1233.39 1021.43 1252.81 978.824 1238.48 940.901C1226.45 909.05 1194.41 890.799 1161.84 894.192ZM1143.44 898.254C1143.37 898.28 1143.29 898.289 1143.22 898.315C1141.76 898.869 1140.53 899.726 1139.13 900.352L965.135 737.018C973.277 719.67 974.743 699.255 967.477 680.028C958.628 656.611 938.899 640.432 916.121 634.848L920.422 473.922C929.106 469.741 936.654 464.113 942.875 457.324L1143.44 898.254ZM1096.29 957.007L961.61 953.539C961.382 945.689 960.178 937.758 957.249 930.009C949.763 910.201 934.44 895.72 916.138 888.269L923.669 775.149C923.841 775.084 924.016 775.077 924.171 775.018C936.705 770.282 946.957 762.322 954.92 752.685L1122.89 910.359C1108.34 922.154 1098.95 938.818 1096.29 957.007ZM588.031 885.454L601.839 747.443C611.284 747.724 620.956 746.259 630.352 742.708C635.748 740.668 640.653 737.955 645.265 734.883L822.074 923.66C817.473 932.808 814.639 942.773 814.132 953.111L621.261 939.654C620.649 933.395 619.518 927.117 617.191 920.959C611.395 905.673 600.883 893.655 588.031 885.454ZM584.849 622.302C613.554 611.454 645.65 625.793 656.413 654.274C667.177 682.754 652.592 714.754 623.887 725.602C595.165 736.457 563.045 722.107 552.282 693.627C541.519 665.146 556.126 633.157 584.849 622.302ZM648.748 470.756C682.867 457.862 701.819 422.511 695.304 388.066L818.256 386.679C813.521 401.781 813.305 418.362 819.31 434.253C824.029 446.74 832.019 456.935 841.736 464.816L667.603 635.657C658.218 620.262 643.608 609.441 626.978 604.172L641.669 472.669C644.022 472.014 646.421 471.636 648.748 470.756ZM917.724 757.906C889.019 768.754 856.882 754.411 846.112 725.914C835.355 697.45 849.963 665.461 878.685 654.606C907.373 643.765 939.487 658.097 950.244 686.561C961.013 715.058 946.412 747.065 917.724 757.906ZM861.997 887.441C850.188 891.904 840.473 899.25 832.701 908.091L659.059 722.691C663.643 717.615 667.557 712.07 670.542 705.996L824.623 710.498C825.006 717.821 826.144 725.21 828.872 732.429C840.837 764.091 872.599 782.29 904.978 779.183L898.044 883.612C886.213 882.023 873.927 882.932 861.997 887.441ZM872.221 637.501C847.429 646.87 830.755 668.126 825.854 692.224L676.714 687.869C678.937 676.805 678.476 665.211 675.248 653.802L857.579 474.937C871.143 481.11 886.555 483.105 901.862 480.233L897.78 632.924C889.246 633.022 880.634 634.321 872.221 637.501ZM835.929 975.858C825.172 947.394 839.756 915.394 868.479 904.54C897.167 893.698 929.28 908.031 940.043 936.511C950.807 964.992 936.229 997.009 907.524 1007.86C878.795 1018.69 846.692 1004.34 835.929 975.858ZM940.647 388.398C951.417 416.895 936.833 448.895 908.128 459.743C879.423 470.591 847.303 456.242 836.533 427.744C825.77 399.263 840.36 367.281 869.083 356.426C897.771 345.585 929.884 359.917 940.647 388.398ZM603.252 350.368C631.94 339.526 664.053 353.859 674.81 382.322C685.58 410.82 670.995 442.82 642.29 453.668C613.585 464.516 581.465 450.166 570.696 421.669C559.939 393.205 574.547 361.216 603.252 350.368ZM558.248 437.789C571.429 461.407 596.353 475.485 622.858 475.341L608.85 600.623C598.775 600.032 588.436 601.398 578.367 605.203C557.748 612.996 542.88 629.073 535.546 648.089L407.33 605.311C414.109 588.733 415.088 569.792 408.3 551.831C405.585 544.647 401.588 538.397 397.056 532.662L558.248 437.789ZM286.98 597.68C276.223 569.216 290.831 537.227 319.553 526.373C348.241 515.531 380.337 529.87 391.094 558.334C401.864 586.831 387.28 618.831 358.592 629.673C329.869 640.527 297.75 626.178 286.98 597.68ZM374.405 642.111C383.919 636.893 392.012 629.945 398.24 621.609L531.164 665.951C529.84 677.203 530.792 688.846 535.052 700.118C543.54 722.578 562.081 738.169 583.659 744.382L570.366 877.292C555.047 872.467 538.121 872.256 521.915 878.38C516.502 880.426 511.586 883.164 506.968 886.219L374.405 642.111ZM495.813 966.81C485.056 938.347 499.657 906.34 528.362 895.492C557.068 884.644 589.164 898.983 599.927 927.464C610.69 955.945 596.106 987.944 567.401 998.792C538.689 1009.62 506.576 995.291 495.813 966.81ZM594.397 1003.7C608.62 992.071 617.851 975.778 620.661 957.982L815.84 971.603C816.592 975.209 817.344 978.815 818.689 982.373C822.671 992.91 829.011 1001.81 836.684 1009.14L747.747 1122.27C728.579 1109.56 703.73 1105.79 680.49 1114.57C677.524 1115.69 674.884 1117.26 672.165 1118.72L594.397 1003.7ZM726.01 1234.97C697.287 1245.83 665.168 1231.48 654.398 1202.98C643.641 1174.52 658.242 1142.51 686.965 1131.66C715.653 1120.81 747.749 1135.15 758.512 1163.63C769.275 1192.11 754.698 1224.13 726.01 1234.97ZM775.225 1156.09C771.945 1147.82 767.262 1140.54 761.597 1134.26L851.459 1019.97C869.916 1030.34 892.559 1033.06 913.971 1024.97C938.211 1015.81 954.79 995.292 960.077 971.849L1095.85 975.352C1096.5 981.343 1097.63 987.366 1099.86 993.267C1100.61 995.251 1101.73 996.96 1102.63 998.827L775.225 1156.09ZM1188.72 1018.7C1160.01 1029.55 1127.88 1015.21 1117.11 986.711C1106.35 958.247 1120.96 926.258 1149.68 915.404C1178.37 904.562 1210.48 918.895 1221.24 947.358C1231.99 975.863 1217.41 1007.86 1188.72 1018.7Z" fill="black"/>
<path d="M1161.84 894.192L955.063 439.68C963.571 422.155 965.277 401.434 957.888 381.882C943.563 343.977 900.823 324.883 862.618 339.321C847.292 345.113 835.174 355.537 826.866 368.275L689.089 369.849C672.641 336.128 632.854 319.632 596.805 333.256C561.117 346.743 542.182 384.746 551.447 420.576L383.635 519.358C364.07 504.76 337.697 499.987 313.078 509.291C274.856 523.735 255.41 566.33 269.729 604.219C283.078 639.542 321.068 658.163 357.117 648.918L492.822 898.837C475.238 918.677 468.637 947.034 478.579 973.343C492.91 1011.27 535.65 1030.36 573.872 1015.91C575.613 1015.26 577.092 1014.27 578.753 1013.5L656.952 1129.14C635.112 1148.92 626.202 1180.56 637.153 1209.54C651.485 1247.46 694.248 1266.56 732.47 1252.12C765.002 1239.82 783.685 1207.1 779.741 1174.24L1112.62 1014.35C1132.22 1037.54 1165 1047.28 1195.19 1035.87C1233.39 1021.43 1252.81 978.824 1238.48 940.901C1226.45 909.05 1194.41 890.799 1161.84 894.192ZM1143.44 898.254C1143.37 898.28 1143.29 898.289 1143.22 898.315C1141.76 898.869 1140.53 899.726 1139.13 900.352L965.135 737.018C973.277 719.67 974.743 699.255 967.477 680.028C958.628 656.611 938.899 640.432 916.121 634.848L920.422 473.922C929.106 469.741 936.654 464.113 942.875 457.324L1143.44 898.254ZM1096.29 957.007L961.61 953.539C961.382 945.689 960.178 937.758 957.249 930.009C949.763 910.201 934.44 895.72 916.138 888.269L923.669 775.149C923.841 775.084 924.016 775.077 924.171 775.018C936.705 770.282 946.957 762.322 954.92 752.685L1122.89 910.359C1108.34 922.154 1098.95 938.818 1096.29 957.007ZM588.031 885.454L601.839 747.443C611.284 747.724 620.956 746.259 630.352 742.708C635.748 740.668 640.653 737.955 645.265 734.883L822.074 923.66C817.473 932.808 814.639 942.773 814.132 953.111L621.261 939.654C620.649 933.395 619.518 927.117 617.191 920.959C611.395 905.673 600.883 893.655 588.031 885.454ZM584.849 622.302C613.554 611.454 645.65 625.793 656.413 654.274C667.177 682.754 652.592 714.754 623.887 725.602C595.165 736.457 563.045 722.107 552.282 693.627C541.519 665.146 556.126 633.157 584.849 622.302ZM648.748 470.756C682.867 457.862 701.819 422.511 695.304 388.066L818.256 386.679C813.521 401.781 813.305 418.362 819.31 434.253C824.029 446.74 832.019 456.935 841.736 464.816L667.603 635.657C658.218 620.262 643.608 609.441 626.978 604.172L641.669 472.669C644.022 472.014 646.421 471.636 648.748 470.756ZM917.724 757.906C889.019 768.754 856.882 754.411 846.112 725.914C835.355 697.45 849.963 665.461 878.685 654.606C907.373 643.765 939.487 658.097 950.244 686.561C961.013 715.058 946.412 747.065 917.724 757.906ZM861.997 887.441C850.188 891.904 840.473 899.25 832.701 908.091L659.059 722.691C663.643 717.615 667.557 712.07 670.542 705.996L824.623 710.498C825.006 717.821 826.144 725.21 828.872 732.429C840.837 764.091 872.599 782.29 904.978 779.183L898.044 883.612C886.213 882.023 873.927 882.932 861.997 887.441ZM872.221 637.501C847.429 646.87 830.755 668.126 825.854 692.224L676.714 687.869C678.937 676.805 678.476 665.211 675.248 653.802L857.579 474.937C871.143 481.11 886.555 483.105 901.862 480.233L897.78 632.924C889.246 633.022 880.634 634.321 872.221 637.501ZM835.929 975.858C825.172 947.394 839.756 915.394 868.479 904.54C897.167 893.698 929.28 908.031 940.043 936.511C950.807 964.992 936.229 997.009 907.524 1007.86C878.795 1018.69 846.692 1004.34 835.929 975.858ZM940.647 388.398C951.417 416.895 936.833 448.895 908.128 459.743C879.423 470.591 847.303 456.242 836.533 427.744C825.77 399.263 840.36 367.281 869.083 356.426C897.771 345.585 929.884 359.917 940.647 388.398ZM603.252 350.368C631.94 339.526 664.053 353.859 674.81 382.322C685.58 410.82 670.995 442.82 642.29 453.668C613.585 464.516 581.465 450.166 570.696 421.669C559.939 393.205 574.547 361.216 603.252 350.368ZM558.248 437.789C571.429 461.407 596.353 475.485 622.858 475.341L608.85 600.623C598.775 600.032 588.436 601.398 578.367 605.203C557.748 612.996 542.88 629.073 535.546 648.089L407.33 605.311C414.109 588.733 415.088 569.792 408.3 551.831C405.585 544.647 401.588 538.397 397.056 532.662L558.248 437.789ZM286.98 597.68C276.223 569.216 290.831 537.227 319.553 526.373C348.241 515.531 380.337 529.87 391.094 558.334C401.864 586.831 387.28 618.831 358.592 629.673C329.869 640.527 297.75 626.178 286.98 597.68ZM374.405 642.111C383.919 636.893 392.012 629.945 398.24 621.609L531.164 665.951C529.84 677.203 530.792 688.846 535.052 700.118C543.54 722.578 562.081 738.169 583.659 744.382L570.366 877.292C555.047 872.467 538.121 872.256 521.915 878.38C516.502 880.426 511.586 883.164 506.968 886.219L374.405 642.111ZM495.813 966.81C485.056 938.347 499.657 906.34 528.362 895.492C557.068 884.644 589.164 898.983 599.927 927.464C610.69 955.945 596.106 987.944 567.401 998.792C538.689 1009.62 506.576 995.291 495.813 966.81ZM594.397 1003.7C608.62 992.071 617.851 975.778 620.661 957.982L815.84 971.603C816.592 975.209 817.344 978.815 818.689 982.373C822.671 992.91 829.011 1001.81 836.684 1009.14L747.747 1122.27C728.579 1109.56 703.73 1105.79 680.49 1114.57C677.524 1115.69 674.884 1117.26 672.165 1118.72L594.397 1003.7ZM726.01 1234.97C697.287 1245.83 665.168 1231.48 654.398 1202.98C643.641 1174.52 658.242 1142.51 686.965 1131.66C715.653 1120.81 747.749 1135.15 758.512 1163.63C769.275 1192.11 754.698 1224.13 726.01 1234.97ZM775.225 1156.09C771.945 1147.82 767.262 1140.54 761.597 1134.26L851.459 1019.97C869.916 1030.34 892.559 1033.06 913.971 1024.97C938.211 1015.81 954.79 995.292 960.077 971.849L1095.85 975.352C1096.5 981.343 1097.63 987.366 1099.86 993.267C1100.61 995.251 1101.73 996.96 1102.63 998.827L775.225 1156.09ZM1188.72 1018.7C1160.01 1029.55 1127.88 1015.21 1117.11 986.711C1106.35 958.247 1120.96 926.258 1149.68 915.404C1178.37 904.562 1210.48 918.895 1221.24 947.358C1231.99 975.863 1217.41 1007.86 1188.72 1018.7Z" stroke="black" stroke-width="20" mask="url(#path-2-outside-1)"/>
</svg>
