<svg width="1500" height="1500" viewBox="0 0 1500 1500" fill="none" xmlns="http://www.w3.org/2000/svg">
<path d="M1330 749.161C1330 889.326 1265.08 1012.19 1160.12 1118.14C1055.16 1221.68 910.157 1308.43 750 1321.31C537.426 1340.89 377.017 1253 275.971 1073.06C224.817 983.023 170 866.597 170 749.161C170 546.362 246.289 408.217 383.584 302.272C481.598 226.507 616.62 162.359 750 177.133C910.157 192.539 1004.38 193.423 1109.34 294.569C1214.3 393.695 1330 605.838 1330 749.161Z" fill="#FFF033"/>
<path d="M486.19 636.178C491.706 629.34 494.365 620.639 493.614 611.89C492.863 603.142 488.758 595.02 482.157 589.219C475.556 583.418 466.967 580.386 458.181 580.754C449.396 581.122 441.092 584.863 435 591.195C406.254 623.799 381.877 659.999 362.482 698.882L344.565 734.834C342.22 739.547 341 744.737 341 749.999C341 755.261 342.22 760.452 344.565 765.164L362.482 801.116C441.484 958.727 590.105 1056.7 750.499 1056.7C788.211 1056.65 825.726 1051.26 861.922 1040.69C866.224 1039.43 870.237 1037.35 873.732 1034.54C877.226 1031.74 880.134 1028.28 882.289 1024.36C884.444 1020.43 885.803 1016.12 886.291 1011.67C886.778 1007.23 886.382 1002.72 885.128 998.428C883.873 994.132 881.783 990.125 878.977 986.635C876.171 983.146 872.705 980.242 868.775 978.09C864.846 975.938 860.53 974.58 856.075 974.094C851.62 973.608 847.113 974.002 842.811 975.255C812.836 984.075 781.748 988.551 750.499 988.546C616.211 988.546 490.968 905.054 423.568 770.616L413.33 749.999L423.568 729.382C440.344 695.756 461.391 664.43 486.19 636.178Z" fill="#231F20"/>
<path d="M1138.52 698.883C1059.52 541.272 910.895 443.297 750.501 443.297C679.025 443.483 608.885 462.654 547.278 498.845L433.296 385.194C426.767 379.611 418.37 376.694 409.781 377.025C401.192 377.357 393.045 380.912 386.967 386.981C380.889 393.05 377.329 401.186 376.997 409.763C376.665 418.339 379.587 426.725 385.178 433.244L608.194 656.115C586.617 688.873 577.015 728.059 581.005 767.064C584.995 806.07 602.335 842.507 630.099 870.232C657.862 897.956 694.352 915.271 733.412 919.256C772.473 923.24 811.715 913.651 844.519 892.106L1067.71 1114.81C1074.23 1120.39 1082.63 1123.31 1091.22 1122.97C1099.81 1122.64 1107.96 1119.09 1114.03 1113.02C1120.11 1106.95 1123.67 1098.81 1124 1090.24C1124.34 1081.66 1121.42 1073.27 1115.82 1066.76L1010.2 961.284C1063.85 917.568 1107.58 862.975 1138.52 801.117L1156.43 765.165C1158.78 760.453 1160 755.262 1160 750C1160 744.738 1158.78 739.548 1156.43 734.835L1138.52 698.883ZM677.812 822.246C662.94 807.299 653.057 788.128 649.514 767.358C645.971 746.587 648.941 725.23 658.018 706.21L794.524 842.522C775.406 851.561 753.953 854.465 733.115 850.834C712.276 847.203 693.076 837.216 678.153 822.246H677.812ZM1077.09 771.128C1049.52 826.455 1010.01 874.988 961.402 913.234L597.785 549.28C644.965 524.754 697.312 511.788 750.501 511.454C884.788 511.454 1010.03 594.945 1077.43 729.383L1087.67 750L1077.09 771.128Z" fill="#231F20"/>
<path d="M784.627 579.609C775.576 579.609 766.896 583.199 760.496 589.59C754.096 595.981 750.5 604.649 750.5 613.687C750.5 622.725 754.096 631.393 760.496 637.784C766.896 644.175 775.576 647.765 784.627 647.765C802.729 647.765 820.089 654.946 832.889 667.728C845.689 680.51 852.88 697.845 852.88 715.921C852.88 724.96 856.475 733.627 862.875 740.018C869.275 746.409 877.955 750 887.006 750C896.057 750 904.737 746.409 911.137 740.018C917.537 733.627 921.133 724.96 921.133 715.921C921.133 679.769 906.751 645.098 881.151 619.534C855.551 593.971 820.83 579.609 784.627 579.609Z" fill="#231F20"/>
</svg>
