<svg width="1500" height="1500" viewBox="0 0 1500 1500" fill="none" xmlns="http://www.w3.org/2000/svg">
<path d="M1330 749.161C1330 889.326 1265.08 1012.19 1160.12 1118.14C1055.16 1221.68 910.157 1308.43 750 1321.31C537.426 1340.89 377.017 1253 275.971 1073.06C224.817 983.023 170 866.597 170 749.161C170 546.362 246.289 408.217 383.584 302.272C481.598 226.507 616.62 162.359 750 177.133C910.157 192.539 1004.38 193.423 1109.34 294.569C1214.3 393.695 1330 605.838 1330 749.161Z" fill="#FFF033"/>
<path d="M492.71 1024.08H628.984C652.698 1024.08 671.945 1006.54 671.945 984.923C671.945 963.31 652.698 945.769 628.984 945.769H598.309L965.287 607.891V632.538C965.287 654.151 984.533 671.692 1008.25 671.692C1031.96 671.692 1051.21 654.151 1051.21 632.538V515.077C1051.21 493.464 1031.96 475.923 1008.25 475.923H872.017C848.302 475.923 829.056 493.464 829.056 515.077C829.056 536.69 848.302 554.231 872.017 554.231H902.649L535.671 892.128V860.766C535.671 839.153 516.424 821.612 492.71 821.612C468.995 821.612 449.748 839.153 449.748 860.766V984.923C449.748 1006.54 468.995 1024.08 492.71 1024.08Z" fill="black"/>
</svg>
