<svg xmlns="http://www.w3.org/2000/svg" width="300" height="300" viewBox="0 0 300 300"><title>black_2</title><path d="M150,50A100,100,0,1,0,250,150,100,100,0,0,0,150,50Zm32.17,168.75c-45.43,20.14-95.87-6.9-106.81-54.6a14.879,14.879,0,0,1,12.85,2.13c3.46,2.66,5.35,7.61,7.38,11.49,4.21,8.01,10.46,14.76,17.47,20.45,31.31,25.4,75.72,11.34,92.15-20.45,0,0-5.12-.4-9.08-.7a4.235,4.235,0,0,1-3.85-4.85,2.432,2.432,0,0,1,1.42-1.86c5.4-2.36,27.01-11.41,29.24-5.87,2.23,5.56-1.6,13.23-3.56,17.46A73.921,73.921,0,0,1,182.17,218.75Zm-40.84-75.54c-7.88-3.85-10.28-14.11-12.56-21.99h-1.05c-.51,5.05-4.26,20.93-11.42,19.98-5.61-.75-8.46-12.34-9.52-16.84h-1.05c-1.38,9.33-5.66,22.93-14.66,27.23-5.99-14.19,2.02-51.6,16.75-58.64l8.38,25.13h1.05c1.13-4.89,4.86-22.37,11.49-22.37,4.05,0,6.4,7.92,7.55,10.85C140.76,117.98,144.24,131,141.33,143.21Zm14.66-42.93c8.41,2.42,10.79,13.28,12.57,20.94h1.04c1.04-4.47,5.39-22.17,12.42-19.47,5.46,2.1,7.44,11.55,9.57,16.33,2.59-8.95,5.65-23.33,15.71-26.18,3.32,13.96-1.06,29.94-6.28,42.93-2.44,6.06-4.78,12.73-11.52,14.66l-8.38-25.13h-1.05c-.73,8.38-4.61,20.29-12.56,24.09C160.06,134.29,152.1,116.64,155.99,100.28Z"/></svg>