<svg xmlns="http://www.w3.org/2000/svg" width="300" height="300" viewBox="0 0 300 300"><title>black_1</title><path d="M150,50A100,100,0,1,0,250,150,100,100,0,0,0,150,50Zm0,189.268A89.268,89.268,0,1,1,239.268,150,89.268,89.268,0,0,1,150,239.268Z"/><path d="M222.936,164.481c-2.228-5.538-23.84,3.511-29.24,5.875a2.43,2.43,0,0,0-1.417,1.857,4.226,4.226,0,0,0,3.853,4.85l9.073.7c-16.426,31.8-60.839,45.855-92.147,20.452-7.007-5.684-13.258-12.439-17.466-20.452-2.034-3.874-3.921-8.829-7.38-11.488a14.881,14.881,0,0,0-12.85-2.125c10.935,47.7,61.374,74.738,106.807,54.6a73.94,73.94,0,0,0,37.213-36.793C221.336,177.712,225.174,170.042,222.936,164.481Z"/><path d="M105.728,124.358h1.048c1.065,4.5,3.912,16.092,9.528,16.836,7.156.947,10.908-14.932,11.414-19.978h1.047c2.282,7.884,4.686,18.136,12.566,21.99,2.906-12.21-.574-25.231-5.039-36.649-1.148-2.937-3.5-10.853-7.553-10.853-6.632,0-10.361,17.483-11.492,22.371H116.2l-8.377-25.131c-14.735,7.037-22.74,44.454-16.754,58.639C100.069,147.286,104.352,133.683,105.728,124.358Z"/><path d="M180.074,124.358h1.047l8.377,25.131c6.74-1.937,9.084-8.607,11.518-14.66,5.224-12.993,9.607-28.972,6.283-42.932-10.057,2.848-13.117,17.23-15.706,26.178-2.13-4.781-4.114-14.227-9.576-16.328-7.032-2.7-11.378,15-12.414,19.469h-1.047c-1.773-7.663-4.152-18.523-12.566-20.942-3.9,16.36,4.07,34.009,11.519,48.168C175.463,144.641,179.338,132.737,180.074,124.358Z"/></svg>