<svg xmlns="http://www.w3.org/2000/svg" width="1127" height="1113" viewBox="0 0 1127 1113"><defs><style>.a{fill:#fff;}.b{fill:#fff200;}</style></defs><title>composite</title><path d="M911,806a100,100,0,1,0,100,100A100,100,0,0,0,911,806Zm32.17,168.75c-45.43,20.14-95.87-6.9-106.81-54.6a14.879,14.879,0,0,1,12.85,2.13c3.46,2.66,5.35,7.61,7.38,11.49,4.21,8.01,10.46,14.76,17.47,20.45,31.31,25.4,75.72,11.34,92.15-20.45,0,0-5.12-.4-9.08-.7a4.235,4.235,0,0,1-3.85-4.85,2.432,2.432,0,0,1,1.42-1.86c5.4-2.36,27.01-11.41,29.24-5.87,2.23,5.56-1.6,13.23-3.56,17.46A73.921,73.921,0,0,1,943.17,974.75Zm-40.84-75.54c-7.88-3.85-10.28-14.11-12.56-21.99h-1.05c-.51,5.05-4.26,20.93-11.42,19.98-5.61-.75-8.46-12.34-9.52-16.84h-1.05c-1.38,9.33-5.66,22.93-14.66,27.23-5.99-14.19,2.02-51.6,16.75-58.64l8.38,25.13h1.05c1.13-4.89,4.86-22.37,11.49-22.37,4.05,0,6.4,7.92,7.55,10.85C901.76,873.98,905.24,887,902.33,899.21Zm14.66-42.93c8.41,2.42,10.79,13.28,12.57,20.94h1.04c1.04-4.47,5.39-22.17,12.42-19.47,5.46,2.1,7.44,11.55,9.57,16.33,2.59-8.95,5.65-23.33,15.71-26.18,3.32,13.96-1.06,29.94-6.28,42.93-2.44,6.06-4.78,12.73-11.52,14.66l-8.38-25.13h-1.05c-.73,8.38-4.61,20.29-12.56,24.09C921.06,890.29,913.1,872.64,916.99,856.28Z"/><path class="a" d="M561,806A100,100,0,1,0,661,906,100,100,0,0,0,561,806Zm32.17,168.74c-45.43,20.15-95.87-6.89-106.81-54.59a14.877,14.877,0,0,1,12.85,2.12c3.46,2.66,5.35,7.62,7.38,11.49,4.21,8.01,10.46,14.77,17.47,20.45,31.31,25.41,75.72,11.35,92.15-20.45,0,0-5.12-.39-9.08-.7a4.222,4.222,0,0,1-3.85-4.85,2.4,2.4,0,0,1,1.42-1.85c5.4-2.37,27.01-11.42,29.24-5.88,2.23,5.56-1.6,13.23-3.56,17.47A73.94,73.94,0,0,1,593.17,974.74Zm-40.84-75.53c-7.88-3.86-10.28-14.11-12.56-21.99h-1.05c-.51,5.04-4.26,20.92-11.42,19.97-5.61-.74-8.46-12.34-9.52-16.83h-1.05c-1.38,9.32-5.66,22.93-14.66,27.22-5.99-14.18,2.02-51.6,16.75-58.64l8.38,25.13h1.05c1.13-4.88,4.86-22.37,11.49-22.37,4.05,0,6.4,7.92,7.55,10.86C551.76,873.98,555.24,887,552.33,899.21Zm14.66-42.94c8.41,2.42,10.79,13.28,12.57,20.95h1.04c1.04-4.48,5.39-22.18,12.42-19.47,5.46,2.1,7.44,11.54,9.57,16.32,2.59-8.94,5.65-23.32,15.71-26.17,3.32,13.96-1.06,29.94-6.28,42.93-2.44,6.05-4.78,12.72-11.52,14.66l-8.38-25.13h-1.05c-.73,8.38-4.61,20.28-12.56,24.08C571.06,890.28,563.1,872.63,566.99,856.27Z"/><path class="b" d="M211,806A100,100,0,1,0,311,906,100,100,0,0,0,211,806Zm32.17,168.74c-45.43,20.15-95.87-6.89-106.81-54.59a14.877,14.877,0,0,1,12.85,2.12c3.46,2.66,5.35,7.62,7.38,11.49,4.21,8.01,10.46,14.77,17.47,20.45,31.31,25.41,75.72,11.35,92.15-20.45,0,0-5.12-.39-9.08-.7a4.222,4.222,0,0,1-3.85-4.85,2.4,2.4,0,0,1,1.42-1.85c5.4-2.37,27.01-11.42,29.24-5.88,2.23,5.56-1.6,13.23-3.56,17.47A73.94,73.94,0,0,1,243.17,974.74Zm-40.84-75.53c-7.88-3.86-10.28-14.11-12.56-21.99h-1.05c-.51,5.04-4.26,20.92-11.42,19.97-5.61-.74-8.46-12.34-9.52-16.83h-1.05c-1.38,9.32-5.66,22.93-14.66,27.22-5.99-14.18,2.02-51.6,16.75-58.64l8.38,25.13h1.05c1.13-4.88,4.86-22.37,11.49-22.37,4.05,0,6.4,7.92,7.55,10.86C201.76,873.98,205.24,887,202.33,899.21Zm14.66-42.94c8.41,2.42,10.79,13.28,12.57,20.95h1.04c1.04-4.48,5.39-22.18,12.42-19.47,5.46,2.1,7.44,11.54,9.57,16.32,2.59-8.94,5.65-23.32,15.71-26.17,3.32,13.96-1.06,29.94-6.28,42.93-2.44,6.05-4.78,12.72-11.52,14.66l-8.38-25.13h-1.05c-.73,8.38-4.61,20.28-12.56,24.08C221.06,890.28,213.1,872.63,216.99,856.27Z"/><path d="M911,456a100,100,0,1,0,100,100A100,100,0,0,0,911,456Zm0,189.268A89.268,89.268,0,1,1,1000.268,556,89.268,89.268,0,0,1,911,645.268Z"/><path d="M983.936,570.481c-2.228-5.538-23.84,3.511-29.24,5.875a2.43,2.43,0,0,0-1.417,1.857,4.226,4.226,0,0,0,3.853,4.85l9.073.7c-16.426,31.8-60.839,45.855-92.147,20.452-7.007-5.684-13.258-12.439-17.466-20.452-2.034-3.874-3.921-8.829-7.38-11.488a14.881,14.881,0,0,0-12.85-2.125c10.935,47.7,61.374,74.738,106.807,54.6a73.94,73.94,0,0,0,37.213-36.793C982.336,583.712,986.174,576.042,983.936,570.481Z"/><path d="M866.728,530.358h1.048c1.065,4.5,3.912,16.092,9.528,16.836,7.156.947,10.908-14.932,11.414-19.978h1.047c2.282,7.884,4.686,18.136,12.566,21.99,2.906-12.21-.574-25.231-5.039-36.649-1.148-2.937-3.5-10.853-7.553-10.853-6.632,0-10.361,17.483-11.492,22.371H877.2l-8.377-25.131c-14.735,7.037-22.74,44.454-16.754,58.639C861.069,553.286,865.352,539.683,866.728,530.358Z"/><path d="M941.074,530.358h1.047l8.377,25.131c6.74-1.937,9.084-8.607,11.518-14.66,5.224-12.993,9.607-28.972,6.283-42.932-10.057,2.848-13.117,17.23-15.706,26.178-2.13-4.781-4.114-14.227-9.576-16.328-7.032-2.7-11.378,15-12.414,19.469h-1.047c-1.773-7.663-4.152-18.523-12.566-20.942-3.895,16.36,4.07,34.009,11.519,48.168C936.463,550.641,940.338,538.737,941.074,530.358Z"/><path class="a" d="M561,456A100,100,0,1,0,661,556,100,100,0,0,0,561,456Zm0,189.268A89.268,89.268,0,1,1,650.268,556,89.268,89.268,0,0,1,561,645.268Z"/><path class="a" d="M591.074,530.358h1.047l8.377,25.131c6.74-1.937,9.084-8.607,11.518-14.66,5.224-12.993,9.607-28.972,6.283-42.932-10.057,2.848-13.117,17.23-15.706,26.178-2.13-4.781-4.114-14.227-9.576-16.328-7.032-2.7-11.378,15-12.414,19.469h-1.047c-1.773-7.663-4.152-18.523-12.566-20.942-3.895,16.36,4.07,34.009,11.519,48.168C586.463,550.641,590.338,538.737,591.074,530.358Z"/><path class="a" d="M516.728,530.358h1.048c1.065,4.5,3.912,16.092,9.528,16.836,7.156.947,10.908-14.932,11.414-19.978h1.047c2.282,7.884,4.686,18.136,12.566,21.99,2.906-12.21-.574-25.231-5.039-36.649-1.148-2.937-3.5-10.853-7.553-10.853-6.632,0-10.361,17.483-11.492,22.371H527.2l-8.377-25.131c-14.735,7.037-22.74,44.454-16.754,58.639C511.069,553.286,515.352,539.683,516.728,530.358Z"/><path class="a" d="M633.936,570.481c-2.228-5.538-23.84,3.511-29.24,5.875a2.43,2.43,0,0,0-1.417,1.857,4.226,4.226,0,0,0,3.853,4.85l9.073.7c-16.426,31.8-60.839,45.855-92.147,20.452-7.007-5.684-13.258-12.439-17.466-20.452-2.034-3.874-3.921-8.829-7.38-11.488a14.881,14.881,0,0,0-12.85-2.125c10.935,47.7,61.374,74.738,106.807,54.6a73.94,73.94,0,0,0,37.213-36.793C632.336,583.712,636.174,576.042,633.936,570.481Z"/><path class="b" d="M211,456A100,100,0,1,0,311,556,100,100,0,0,0,211,456Zm0,189.268A89.268,89.268,0,1,1,300.268,556,89.268,89.268,0,0,1,211,645.268Z"/><path class="b" d="M283.936,570.481c-2.228-5.538-23.84,3.511-29.24,5.875a2.43,2.43,0,0,0-1.417,1.857,4.226,4.226,0,0,0,3.853,4.85l9.073.7c-16.426,31.8-60.839,45.855-92.147,20.452-7.007-5.684-13.258-12.439-17.466-20.452-2.034-3.874-3.921-8.829-7.38-11.488a14.881,14.881,0,0,0-12.85-2.125c10.935,47.7,61.374,74.738,106.807,54.6a73.94,73.94,0,0,0,37.213-36.793C282.336,583.712,286.174,576.042,283.936,570.481Z"/><path class="b" d="M166.728,530.358h1.048c1.065,4.5,3.912,16.092,9.528,16.836,7.156.947,10.908-14.932,11.414-19.978h1.047c2.282,7.884,4.686,18.136,12.566,21.99,2.906-12.21-.574-25.231-5.039-36.649-1.148-2.937-3.5-10.853-7.553-10.853-6.632,0-10.361,17.483-11.492,22.371H177.2l-8.377-25.131c-14.735,7.037-22.74,44.454-16.754,58.639C161.069,553.286,165.352,539.683,166.728,530.358Z"/><path class="b" d="M241.074,530.358h1.047l8.377,25.131c6.74-1.937,9.084-8.607,11.518-14.66,5.224-12.993,9.607-28.972,6.283-42.932-10.057,2.848-13.117,17.23-15.706,26.178-2.13-4.781-4.114-14.227-9.576-16.328-7.032-2.7-11.378,15-12.414,19.469h-1.047c-1.773-7.663-4.152-18.523-12.566-20.942-3.9,16.36,4.07,34.009,11.519,48.168C236.463,550.641,240.338,538.737,241.074,530.358Z"/><path class="a" d="M911,106a100,100,0,1,0,100,100A100,100,0,0,0,911,106Zm0,189.268A89.268,89.268,0,1,1,1000.268,206,89.268,89.268,0,0,1,911,295.268Z"/><path d="M911,116.732A89.268,89.268,0,1,0,1000.268,206,89.268,89.268,0,0,0,911,116.732Zm5.99,39.542c8.414,2.419,10.793,13.279,12.566,20.942H930.6c1.036-4.472,5.382-22.173,12.414-19.469,5.462,2.1,7.446,11.547,9.576,16.328,2.589-8.948,5.649-23.33,15.706-26.178,3.324,13.96-1.059,29.939-6.283,42.932-2.434,6.053-4.778,12.723-11.518,14.66l-8.377-25.131h-1.047c-.736,8.379-4.611,20.283-12.565,24.084C921.06,190.283,913.1,172.634,916.99,156.274Zm-48.167-7.33,8.377,25.131h1.047c1.131-4.888,4.86-22.371,11.492-22.371,4.048,0,6.4,7.916,7.553,10.853,4.465,11.418,7.945,24.439,5.039,36.649-7.88-3.854-10.284-14.106-12.566-21.99h-1.047c-.506,5.046-4.258,20.925-11.414,19.978-5.616-.744-8.463-12.341-9.528-16.836h-1.048c-1.376,9.325-5.659,22.928-14.659,27.225C846.083,193.4,854.088,155.981,868.823,148.944Zm74.346,125.8c-45.433,20.143-95.872-6.9-106.807-54.595a14.881,14.881,0,0,1,12.85,2.125c3.459,2.659,5.346,7.614,7.38,11.488,4.208,8.013,10.459,14.768,17.466,20.452,31.308,25.4,75.721,11.344,92.147-20.452l-9.073-.7a4.226,4.226,0,0,1-3.853-4.85,2.43,2.43,0,0,1,1.417-1.857c5.4-2.364,27.012-11.413,29.24-5.875,2.238,5.561-1.6,13.231-3.554,17.469A73.94,73.94,0,0,1,943.169,274.743Z"/><path class="a" d="M941.074,180.358h1.047l8.377,25.131c6.74-1.937,9.084-8.607,11.518-14.66,5.224-12.993,9.607-28.972,6.283-42.932-10.057,2.848-13.117,17.23-15.706,26.178-2.13-4.781-4.114-14.227-9.576-16.328-7.032-2.7-11.378,15-12.414,19.469h-1.047c-1.773-7.663-4.152-18.523-12.566-20.942-3.895,16.36,4.07,34.009,11.519,48.168C936.463,200.641,940.338,188.737,941.074,180.358Z"/><path class="a" d="M866.728,180.358h1.048c1.065,4.5,3.912,16.092,9.528,16.836,7.156.947,10.908-14.932,11.414-19.978h1.047c2.282,7.884,4.686,18.136,12.566,21.99,2.906-12.21-.574-25.231-5.039-36.649-1.148-2.937-3.5-10.853-7.553-10.853-6.632,0-10.361,17.483-11.492,22.371H877.2l-8.377-25.131c-14.735,7.037-22.74,44.454-16.754,58.639C861.069,203.286,865.352,189.683,866.728,180.358Z"/><path class="a" d="M983.936,220.481c-2.228-5.538-23.84,3.511-29.24,5.875a2.43,2.43,0,0,0-1.417,1.857,4.226,4.226,0,0,0,3.853,4.85l9.073.7c-16.426,31.8-60.839,45.855-92.147,20.452-7.007-5.684-13.258-12.439-17.466-20.452-2.034-3.874-3.921-8.829-7.38-11.488a14.881,14.881,0,0,0-12.85-2.125c10.935,47.7,61.374,74.738,106.807,54.6a73.94,73.94,0,0,0,37.213-36.793C982.336,233.712,986.174,226.042,983.936,220.481Z"/><path d="M561,106A100,100,0,1,0,661,206,100,100,0,0,0,561,106Zm0,189.268A89.268,89.268,0,1,1,650.268,206,89.268,89.268,0,0,1,561,295.268Z"/><path class="a" d="M561,116.732A89.268,89.268,0,1,0,650.268,206,89.268,89.268,0,0,0,561,116.732Zm5.99,39.542c8.414,2.419,10.793,13.279,12.566,20.942H580.6c1.036-4.472,5.382-22.173,12.414-19.469,5.462,2.1,7.446,11.547,9.576,16.328,2.589-8.948,5.649-23.33,15.706-26.178,3.324,13.96-1.059,29.939-6.283,42.932-2.434,6.053-4.778,12.723-11.518,14.66l-8.377-25.131h-1.047c-.736,8.379-4.611,20.283-12.565,24.084C571.06,190.283,563.1,172.634,566.99,156.274Zm-48.167-7.33,8.377,25.131h1.047c1.131-4.888,4.86-22.371,11.492-22.371,4.048,0,6.4,7.916,7.553,10.853,4.465,11.418,7.945,24.439,5.039,36.649-7.88-3.854-10.284-14.106-12.566-21.99h-1.047c-.506,5.046-4.258,20.925-11.414,19.978-5.616-.744-8.463-12.341-9.528-16.836h-1.048c-1.376,9.325-5.659,22.928-14.659,27.225C496.083,193.4,504.088,155.981,518.823,148.944Zm74.346,125.8c-45.433,20.143-95.872-6.9-106.807-54.595a14.881,14.881,0,0,1,12.85,2.125c3.459,2.659,5.346,7.614,7.38,11.488,4.208,8.013,10.459,14.768,17.466,20.452,31.308,25.4,75.721,11.344,92.147-20.452l-9.073-.7a4.226,4.226,0,0,1-3.853-4.85,2.43,2.43,0,0,1,1.417-1.857c5.4-2.364,27.012-11.413,29.24-5.875,2.238,5.561-1.6,13.231-3.554,17.469A73.94,73.94,0,0,1,593.169,274.743Z"/><path d="M633.936,220.481c-2.228-5.538-23.84,3.511-29.24,5.875a2.43,2.43,0,0,0-1.417,1.857,4.226,4.226,0,0,0,3.853,4.85l9.073.7c-16.426,31.8-60.839,45.855-92.147,20.452-7.007-5.684-13.258-12.439-17.466-20.452-2.034-3.874-3.921-8.829-7.38-11.488a14.881,14.881,0,0,0-12.85-2.125c10.935,47.7,61.374,74.738,106.807,54.6a73.94,73.94,0,0,0,37.213-36.793C632.336,233.712,636.174,226.042,633.936,220.481Z"/><path d="M516.728,180.358h1.048c1.065,4.5,3.912,16.092,9.528,16.836,7.156.947,10.908-14.932,11.414-19.978h1.047c2.282,7.884,4.686,18.136,12.566,21.99,2.906-12.21-.574-25.231-5.039-36.649-1.148-2.937-3.5-10.853-7.553-10.853-6.632,0-10.361,17.483-11.492,22.371H527.2l-8.377-25.131c-14.735,7.037-22.74,44.454-16.754,58.639C511.069,203.286,515.352,189.683,516.728,180.358Z"/><path d="M591.074,180.358h1.047l8.377,25.131c6.74-1.937,9.084-8.607,11.518-14.66,5.224-12.993,9.607-28.972,6.283-42.932-10.057,2.848-13.117,17.23-15.706,26.178-2.13-4.781-4.114-14.227-9.576-16.328-7.032-2.7-11.378,15-12.414,19.469h-1.047c-1.773-7.663-4.152-18.523-12.566-20.942-3.895,16.36,4.07,34.009,11.519,48.168C586.463,200.641,590.338,188.737,591.074,180.358Z"/><path d="M211,106A100,100,0,1,0,311,206,100,100,0,0,0,211,106Zm0,189.268A89.268,89.268,0,1,1,300.268,206,89.268,89.268,0,0,1,211,295.268Z"/><path class="b" d="M211,116.732A89.268,89.268,0,1,0,300.268,206,89.268,89.268,0,0,0,211,116.732Zm5.99,39.542c8.414,2.419,10.793,13.279,12.566,20.942H230.6c1.036-4.472,5.382-22.173,12.414-19.469,5.462,2.1,7.446,11.547,9.576,16.328,2.589-8.948,5.649-23.33,15.706-26.178,3.324,13.96-1.059,29.939-6.283,42.932-2.434,6.053-4.778,12.723-11.518,14.66l-8.377-25.131h-1.047c-.736,8.379-4.611,20.283-12.565,24.084C221.06,190.283,213.1,172.634,216.99,156.274Zm-48.167-7.33,8.377,25.131h1.047c1.131-4.888,4.86-22.371,11.492-22.371,4.048,0,6.405,7.916,7.553,10.853,4.465,11.418,7.945,24.439,5.039,36.649-7.88-3.854-10.284-14.106-12.566-21.99h-1.047c-.506,5.046-4.258,20.925-11.414,19.978-5.616-.744-8.463-12.341-9.528-16.836h-1.048c-1.376,9.325-5.659,22.928-14.659,27.225C146.083,193.4,154.088,155.981,168.823,148.944Zm74.346,125.8c-45.433,20.143-95.872-6.9-106.807-54.595a14.881,14.881,0,0,1,12.85,2.125c3.459,2.659,5.346,7.614,7.38,11.488,4.208,8.013,10.459,14.768,17.466,20.452,31.308,25.4,75.721,11.344,92.147-20.452l-9.073-.7a4.226,4.226,0,0,1-3.853-4.85,2.43,2.43,0,0,1,1.417-1.857c5.4-2.364,27.012-11.413,29.24-5.875,2.238,5.561-1.6,13.231-3.554,17.469A73.94,73.94,0,0,1,243.169,274.743Z"/><path d="M283.936,220.481c-2.228-5.538-23.84,3.511-29.24,5.875a2.43,2.43,0,0,0-1.417,1.857,4.226,4.226,0,0,0,3.853,4.85l9.073.7c-16.426,31.8-60.839,45.855-92.147,20.452-7.007-5.684-13.258-12.439-17.466-20.452-2.034-3.874-3.921-8.829-7.38-11.488a14.881,14.881,0,0,0-12.85-2.125c10.935,47.7,61.374,74.738,106.807,54.6a73.94,73.94,0,0,0,37.213-36.793C282.336,233.712,286.174,226.042,283.936,220.481Z"/><path d="M166.728,180.358h1.048c1.065,4.5,3.912,16.092,9.528,16.836,7.156.947,10.908-14.932,11.414-19.978h1.047c2.282,7.884,4.686,18.136,12.566,21.99,2.906-12.21-.574-25.231-5.039-36.649-1.148-2.937-3.5-10.853-7.553-10.853-6.632,0-10.361,17.483-11.492,22.371H177.2l-8.377-25.131c-14.735,7.037-22.74,44.454-16.754,58.639C161.069,203.286,165.352,189.683,166.728,180.358Z"/><path d="M241.074,180.358h1.047l8.377,25.131c6.74-1.937,9.084-8.607,11.518-14.66,5.224-12.993,9.607-28.972,6.283-42.932-10.057,2.848-13.117,17.23-15.706,26.178-2.13-4.781-4.114-14.227-9.576-16.328-7.032-2.7-11.378,15-12.414,19.469h-1.047c-1.773-7.663-4.152-18.523-12.566-20.942-3.9,16.36,4.07,34.009,11.519,48.168C236.463,200.641,240.338,188.737,241.074,180.358Z"/></svg>