<svg xmlns="http://www.w3.org/2000/svg" width="300" height="300" viewBox="0 0 300 300"><defs><style>.a{fill:#fff200;}</style></defs><title>yellow_2</title><path class="a" d="M150,50A100,100,0,1,0,250,150,100,100,0,0,0,150,50Zm32.17,168.74c-45.43,20.15-95.87-6.89-106.81-54.59a14.877,14.877,0,0,1,12.85,2.12c3.46,2.66,5.35,7.62,7.38,11.49,4.21,8.01,10.46,14.77,17.47,20.45,31.31,25.41,75.72,11.35,92.15-20.45,0,0-5.12-.39-9.08-.7a4.222,4.222,0,0,1-3.85-4.85,2.4,2.4,0,0,1,1.42-1.85c5.4-2.37,27.01-11.42,29.24-5.88,2.23,5.56-1.6,13.23-3.56,17.47A73.94,73.94,0,0,1,182.17,218.74Zm-40.84-75.53c-7.88-3.86-10.28-14.11-12.56-21.99h-1.05c-.51,5.04-4.26,20.92-11.42,19.97-5.61-.74-8.46-12.34-9.52-16.83h-1.05c-1.38,9.32-5.66,22.93-14.66,27.22-5.99-14.18,2.02-51.6,16.75-58.64l8.38,25.13h1.05c1.13-4.88,4.86-22.37,11.49-22.37,4.05,0,6.4,7.92,7.55,10.86C140.76,117.98,144.24,131,141.33,143.21Zm14.66-42.94c8.41,2.42,10.79,13.28,12.57,20.95h1.04c1.04-4.48,5.39-22.18,12.42-19.47,5.46,2.1,7.44,11.54,9.57,16.32,2.59-8.94,5.65-23.32,15.71-26.17,3.32,13.96-1.06,29.94-6.28,42.93-2.44,6.05-4.78,12.72-11.52,14.66l-8.38-25.13h-1.05c-.73,8.38-4.61,20.28-12.56,24.08C160.06,134.28,152.1,116.63,155.99,100.27Z"/></svg>