<svg xmlns="http://www.w3.org/2000/svg" width="300" height="300" viewBox="0 0 300 300"><defs><style>.a{fill:#fff200;}</style></defs><title>yellow_0</title><path d="M150,50A100,100,0,1,0,250,150,100,100,0,0,0,150,50Zm0,189.268A89.268,89.268,0,1,1,239.268,150,89.268,89.268,0,0,1,150,239.268Z"/><path class="a" d="M150,60.732A89.268,89.268,0,1,0,239.268,150,89.268,89.268,0,0,0,150,60.732Zm5.99,39.542c8.414,2.419,10.793,13.279,12.566,20.942H169.6c1.036-4.472,5.382-22.173,12.414-19.469,5.462,2.1,7.446,11.547,9.576,16.328,2.589-8.948,5.649-23.33,15.706-26.178,3.324,13.96-1.059,29.939-6.283,42.932-2.434,6.053-4.778,12.723-11.518,14.66l-8.377-25.131h-1.047c-.736,8.379-4.611,20.283-12.565,24.084C160.06,134.283,152.1,116.634,155.99,100.274Zm-48.167-7.33,8.377,25.131h1.047c1.131-4.888,4.86-22.371,11.492-22.371,4.048,0,6.405,7.916,7.553,10.853,4.465,11.418,7.945,24.439,5.039,36.649-7.88-3.854-10.284-14.106-12.566-21.99h-1.047c-.506,5.046-4.258,20.925-11.414,19.978-5.616-.744-8.463-12.341-9.528-16.836h-1.048c-1.376,9.325-5.659,22.928-14.659,27.225C85.083,137.4,93.088,99.981,107.823,92.944Zm74.346,125.8c-45.433,20.143-95.872-6.9-106.807-54.595a14.881,14.881,0,0,1,12.85,2.125c3.459,2.659,5.346,7.614,7.38,11.488,4.208,8.013,10.459,14.768,17.466,20.452,31.308,25.4,75.721,11.344,92.147-20.452l-9.073-.7a4.226,4.226,0,0,1-3.853-4.85,2.43,2.43,0,0,1,1.417-1.857c5.4-2.364,27.012-11.413,29.24-5.875,2.238,5.561-1.6,13.231-3.554,17.469A73.94,73.94,0,0,1,182.169,218.743Z"/><path d="M222.936,164.481c-2.228-5.538-23.84,3.511-29.24,5.875a2.43,2.43,0,0,0-1.417,1.857,4.226,4.226,0,0,0,3.853,4.85l9.073.7c-16.426,31.8-60.839,45.855-92.147,20.452-7.007-5.684-13.258-12.439-17.466-20.452-2.034-3.874-3.921-8.829-7.38-11.488a14.881,14.881,0,0,0-12.85-2.125c10.935,47.7,61.374,74.738,106.807,54.6a73.94,73.94,0,0,0,37.213-36.793C221.336,177.712,225.174,170.042,222.936,164.481Z"/><path d="M105.728,124.358h1.048c1.065,4.5,3.912,16.092,9.528,16.836,7.156.947,10.908-14.932,11.414-19.978h1.047c2.282,7.884,4.686,18.136,12.566,21.99,2.906-12.21-.574-25.231-5.039-36.649-1.148-2.937-3.5-10.853-7.553-10.853-6.632,0-10.361,17.483-11.492,22.371H116.2l-8.377-25.131c-14.735,7.037-22.74,44.454-16.754,58.639C100.069,147.286,104.352,133.683,105.728,124.358Z"/><path d="M180.074,124.358h1.047l8.377,25.131c6.74-1.937,9.084-8.607,11.518-14.66,5.224-12.993,9.607-28.972,6.283-42.932-10.057,2.848-13.117,17.23-15.706,26.178-2.13-4.781-4.114-14.227-9.576-16.328-7.032-2.7-11.378,15-12.414,19.469h-1.047c-1.773-7.663-4.152-18.523-12.566-20.942-3.9,16.36,4.07,34.009,11.519,48.168C175.463,144.641,179.338,132.737,180.074,124.358Z"/></svg>