<?xml version="1.0" encoding="UTF-8" standalone="no"?>
<svg xmlns:svg="http://www.w3.org/2000/svg" xmlns="http://www.w3.org/2000/svg" version="1.1" width="100%" height="100%" viewBox="0 0 302 43">
<g transform="matrix(1,0,0,-1,0,43)">
<path d="m120.79 20.75 0-10.29c2.12-2.46 4.86-3.83 7.6-3.83 3.83 0 5.78 3.2 5.78 9.03 0 5.77-1.94 8.98-5.77 8.98-2.74 0-5.49-1.37-7.6-3.89zm-8.23 21.55 8.23 0 0-15.04c2.46 2.12 5.55 4 10.06 4 6.8 0 11.66-5.09 11.66-15.66C142.52 5.15 137.66 0 130.85 0c-4.52 0-7.6 1.83-10.06 3.89l0-3.26-8.23 0 0 41.68M148.58 0.63l0 30.01 8.23 0 0-30.01-8.23 0zm-0.23 41.68 8.69 0 0-7.15-8.69 0 0 7.15M162.74 30.64l4.12 0 0 7.55 8.18 1.14 0-8.69 8.18 0 0-6.06-8.18 0 0-14.58c0-2.52 1.32-2.86 2.57-2.86 1.43 0 3.89 1.03 4.69 1.37L185.21 2.4C183.32 1.54 179.49 0 175.55 0c-5.72 0-8.69 3.09-8.69 10.12l0 14.46-4.12 0 0 6.06M203.11 24.93c-5.03 0-7.2-3.49-7.2-9.26 0-5.77 2.17-9.32 7.2-9.32 4.97 0 7.2 3.49 7.2 9.26 0 5.77-2.23 9.32-7.2 9.32zM203.11 0c-10.06 0-15.55 5.77-15.55 15.66 0 9.83 5.49 15.61 15.55 15.61 10 0 15.49-5.83 15.49-15.66C218.6 5.77 213.11 0 203.11 0M232.6 27.04c2.63 1.83 6.86 4.23 11.66 4.23 6.46 0 8.98-3.83 8.98-9.43l0-21.21-8.23 0 0 19.32c0 2.8-0.8 4.92-3.94 4.92-3.09 0-6.63-2.17-8.46-3.89l0-20.35-8.23 0 0 30.01 8.23 0 0-3.6M260.35 0.63l0 30.01 8.23 0 0-30.01-8.23 0zm-0.23 41.68 8.69 0 0-7.15-8.69 0 0 7.15M297.91 21.55c-2 0.92-5.43 2.69-8.35 2.69-4 0-6.52-3.37-6.52-8.58 0-5.2 2.52-8.63 6.52-8.63 2.92 0 6.35 1.77 8.35 2.69l3.32-6.06C298.53 2.34 293.45 0 288.3 0c-7.09 0-13.66 4.92-13.66 15.66 0 10.75 6.57 15.61 13.66 15.61 5.15 0 10.23-2.4 12.92-3.66l-3.31-6.06M82.52 42.31l-25.01 0 5-8.34 15 0 7.5-12.5-7.5-12.5-15 0-5-8.34 25.01 0L95.02 21.47 82.52 42.31" fill="#015cab"/>
<path d="M47.51 42.31 35.01 21.47 47.51 0.63 60.01 21.47 47.51 42.31" fill="#39b54a"/>
<path d="m32.51 8.96-15 0-7.5 12.5 7.5 12.5 15 0 5 8.34-25.01 0L0 21.47 12.5 0.63l25.01 0-5 8.34" fill="#015cab"/>
</g></svg>