<?xml version="1.0" encoding="utf-8"?>
<!-- Generator: Adobe Illustrator 19.1.0, SVG Export Plug-In . SVG Version: 6.00 Build 0)  -->
<svg version="1.1" id="Layer_1" xmlns="http://www.w3.org/2000/svg" xmlns:xlink="http://www.w3.org/1999/xlink" x="0px" y="0px"
	 viewBox="180 197.9 313.2 50" style="enable-background:new 180 197.9 313.2 50;" xml:space="preserve">
<style type="text/css">
	.block{fill:#FFFFFF;}
	.cypher{fill:#0b8ed8;}
</style>
<g>
	<!-- Gear icon -->
	<path class="block" d="M230,199.5c0-0.9-0.7-1.6-1.6-1.6h-46.8c-0.9,0-1.6,0.7-1.6,1.6v46.8c0,0.9,0.7,1.6,1.6,1.6h46.8
		c0.9,0,1.6-0.7,1.6-1.6V199.5z M222.4,229.3l-5.9-2.1c-0.5,1.4-1.2,2.6-2.2,3.8l4.8,4c-1.4,1.7-3.1,3.1-5,4.2l-3.1-5.4
		c-1.2,0.7-2.6,1.2-4.1,1.5l1.1,6.2c-1.1,0.2-2.2,0.3-3.3,0.3s-2.2-0.1-3.2-0.3l1.1-6.2c-1.5-0.3-2.8-0.8-4.1-1.5l-3.1,5.4
		c-1.9-1.1-3.6-2.5-5-4.2l4.8-4c-0.9-1.1-1.7-2.4-2.2-3.8l-5.9,2.1c-0.7-2.1-1.2-4.2-1.2-6.4h6.1l0,0c0-1.5,0.4-2.9,0.9-4.3
		l-5.7-2.1c0.7-2.1,1.8-4,3.2-5.6l4.8,4c0.9-1.1,2.1-2.1,3.3-2.8l-3.1-5.4c1.9-1.1,4-1.9,6.1-2.2l1.1,6.2c0.7-0.1,1.4-0.2,2.2-0.2
		c0.7,0,1.5,0.1,2.1,0.2l1.1-6.3c2.2,0.4,4.2,1.1,6.1,2.2L211,212c1.3,0.7,2.4,1.7,3.3,2.8l4.8-4c1.4,1.7,2.5,3.6,3.3,5.6l-5.9,2.2
		c0.5,1.3,0.8,2.7,0.8,4.3h6.3C223.6,225.1,223.2,227.3,222.4,229.3z"/>
	<!-- Block -->
	<path class="block" d="M249.7,210.8c5,0,8.2,2.3,8.2,6.1c0,2.7-1.6,4.8-4.3,5.4c3.3,0.6,5.2,2.9,5.2,6.2c0,4.2-3.4,6.7-8.9,6.7h-10.7
		v-24.4H249.7L249.7,210.8z M243.3,220.9h6.3c2.6,0,4.2-1.2,4.2-3.3s-1.6-3.2-4.2-3.2h-6.3V220.9z M243.3,231.5h6.3
		c3.2,0,5.1-1.3,5.1-3.5s-1.9-3.4-5.1-3.4h-6.3V231.5z"/>
	<path class="block" d="M277.6,231.4v3.7H263v-24.3h4.1v20.6H277.6L277.6,231.4z"/>
	<path class="block" d="M304.6,223c0,7-5.6,12.3-12.9,12.3s-12.9-5.4-12.9-12.3c0-7,5.6-12.3,12.9-12.3S304.6,216,304.6,223z M283,223
		c0,4.8,4,8.7,8.8,8.7c4.8,0,8.7-3.8,8.7-8.7c0-4.8-3.9-8.6-8.7-8.6C287,214.4,283,218.1,283,223z"/>
	<path class="block" d="M329.4,214.4l-2.4,3c-1.8-1.9-4.3-3.1-6.8-3.1c-4.9,0-8.7,3.8-8.7,8.5s3.8,8.6,8.7,8.6c2.4,0,4.9-1.1,6.8-2.9
		l2.4,2.7c-2.5,2.4-6,4-9.4,4c-7.1,0-12.6-5.4-12.6-12.4c0-6.9,5.6-12.2,12.8-12.2C323.6,210.7,327.1,212.1,329.4,214.4z"/>
	<path class="block" d="M340.5,224.4l-4.1,4.6v6.2h-4.1v-24.4h4.1v12.6l11.6-12.6h4.8l-9.4,10.4l10,13.9h-4.9L340.5,224.4z"/>
	<!-- Cypher -->
	<path class="cypher" d="M376.5,214.4l-2.4,3c-1.8-1.9-4.3-3.1-6.8-3.1c-4.9,0-8.7,3.8-8.7,8.5s3.8,8.6,8.7,8.6c2.4,0,4.9-1.1,6.8-2.9
		l2.4,2.7c-2.5,2.4-6,4-9.4,4c-7.1,0-12.6-5.4-12.6-12.4c0-6.9,5.6-12.2,12.8-12.2C370.7,210.7,374.2,212.1,376.5,214.4z"/>
	<path class="cypher" d="M390.7,235.1h-4.1v-8l-9.1-16.4h4.1l7,11.9l6.8-11.9h4.2l-8.9,16.2V235.1z"/>
	<path class="cypher" d="M411.9,210.8c6.1,0,9.6,3,9.6,8.3c0,5.5-3.5,8.7-9.6,8.7h-5.6v7.3h-4.1v-24.3H411.9z M406.3,224.1h5.4
		c3.8,0,5.9-1.6,5.9-4.9c0-3.2-2.1-4.7-5.9-4.7h-5.4V224.1z"/>
	<path class="cypher" d="M441.8,235.1V225H429v10.1h-4.1v-24.3h4.1v10.6h12.9v-10.6h4.1v24.3H441.8z"/>
	<path class="cypher" d="M455.1,214.5v6.6H467v3.7h-11.9v6.7h13.7v3.7H451v-24.4h17.4v3.7H455.1L455.1,214.5z"/>
	<path class="cypher" d="M484,227.8c-0.3,0-0.7,0-1.1,0h-5.8v7.3H473v-24.3h9.9c6.2,0,9.8,3,9.8,8.3c0,3.9-1.8,6.6-5,7.9l5.5,8.1h-4.7
		L484,227.8z M482.9,224.1c3.8,0,5.9-1.6,5.9-4.9c0-3.2-2.2-4.7-5.9-4.7h-5.8v9.6C477.1,224.1,482.9,224.1,482.9,224.1z"/>
</g>
</svg>
