<svg id="SvgjsSvg1496" width="5000" height="5000" xmlns="http://www.w3.org/2000/svg" version="1.1" xmlns:xlink="http://www.w3.org/1999/xlink" xmlns:svgjs="http://svgjs.com/svgjs" viewBox="0 0 300 300"><defs id="SvgjsDefs1497"></defs><g id="SvgjsG1499"><svg width="300" height="300" x="0" y="0" xmlns="http://www.w3.org/2000/svg" version="1.1" xmlns:xlink="http://www.w3.org/1999/xlink" xmlns:svgjs="http://svgjs.com/svgjs" preserveAspectRatio="none"><rect width="292" height="292" stroke-width="8" stroke="#6d4100" stroke-opacity="1" fill="#2d2518" fill-opacity="0" x="4" y="4" rx="0" ry="0"></rect><defs id="SvgjsDefs1498"></defs></svg></g><g id="SvgjsG1501" transform="rotate(0 150 110.015625)"><svg xmlns="http://www.w3.org/2000/svg" xmlns:xlink="http://www.w3.org/1999/xlink" version="1.1" x="99" y="59.015625" viewBox="5 4.941999912261963 90 90" enable-background="new 0 0 100 100" xml:space="preserve" width="102" height="102" xmlns:svgjs="http://svgjs.com/svgjs" preserveAspectRatio="none" fill="#6d4100" stroke="none"><polygon points="79,52.442 79,57.442 57.5,57.442 57.5,68.942 52.5,68.942 52.5,52.442 "></polygon><polygon points="52.5,94.942 95,94.942 95,52.442 86,52.442 86,57.442 90,57.442 90,89.942 57.5,89.942 57.5,75.942 52.5,75.942 "></polygon><polygon points="47.5,47.442 47.5,30.942 42.5,30.942 42.5,42.442 21.018,42.442 21.018,47.442 "></polygon><polygon points="42.5,23.942 47.5,23.942 47.5,4.942 5,4.942 5,47.442 14.018,47.442 14.018,42.442 10,42.442 10,9.942 42.5,9.942   "></polygon><polygon points="24,57.442 24,52.442 5,52.442 5,94.942 47.5,94.942 47.5,85.942 42.5,85.942 42.5,89.942 10,89.942 10,57.442 "></polygon><polygon points="47.5,78.968 42.5,78.968 42.5,57.442 31,57.442 31,52.442 47.5,52.442 "></polygon><polygon points="95,47.442 95,4.942 52.5,4.942 52.5,13.98 57.5,13.98 57.5,9.942 90,9.942 90,42.442 76,42.442 76,47.442 "></polygon><polygon points="52.5,47.442 69,47.442 69,42.442 57.5,42.442 57.5,20.942 52.5,20.942 "></polygon><polygon points="51.551,84.942 51.551,79.942 20,79.942 20,58.442 15,58.442 15,84.942 "></polygon><polygon points="20,19.942 41.5,19.942 41.5,14.942 15,14.942 15,51.442 20,51.442 "></polygon><polygon points="80,79.942 58.5,79.942 58.5,84.942 85,84.942 85,48.442 80,48.442 "></polygon><polygon points="80,19.942 80,41.442 85,41.442 85,14.942 48.5,14.942 48.5,19.942 "></polygon><polygon points="70,51.442 75,51.442 75,24.942 58.5,24.942 58.5,29.942 70,29.942 "></polygon><polygon points="25,74.942 41.5,74.942 41.5,69.942 30,69.942 30,48.442 25,48.442 "></polygon><polygon points="70,69.942 70,58.442 75,58.442 75,74.942 48.5,74.942 48.5,69.942 "></polygon><polygon points="51.5,24.942 51.5,29.942 30,29.942 30,41.442 25,41.442 25,24.942 "></polygon><defs id="SvgjsDefs1500"></defs></svg></g><g id="SvgjsG1503" transform="rotate(0 150.0078125 211.0078125)"><svg xmlns="http://www.w3.org/2000/svg" xmlns:xlink="http://www.w3.org/1999/xlink" width="203.671875" viewBox="3.299999952316284 19.350000381469727 203.67999267578125 54" overflow="visible" style="overflow: visible;" transform="" version="1.1" xmlns:svgjs="http://svgjs.com/svgjs" preserveAspectRatio="none" height="53.984375" x="48.171875" y="184.015625" fill="#000000" stroke="none"><path stroke="none" fill="#c89542" fill-opacity="1" d="M31.35 73.35L31.35 73.35Q23.40 73.35 16.99 69.86L16.99 69.86L16.99 69.86Q10.57 66.38 6.94 60.22L6.94 60.22L6.94 60.22Q3.30 54.07 3.30 46.35L3.30 46.35L3.30 46.35Q3.30 38.62 6.97 32.47L6.97 32.47L6.97 32.47Q10.65 26.32 17.06 22.84L17.06 22.84L17.06 22.84Q23.47 19.35 31.42 19.35L31.42 19.35L31.42 19.35Q37.88 19.35 43.20 21.60L43.20 21.60L43.20 21.60Q48.52 23.85 52.20 28.12L52.20 28.12L45.90 34.05L45.90 34.05Q40.20 27.90 31.88 27.90L31.88 27.90L31.88 27.90Q26.47 27.90 22.20 30.26L22.20 30.26L22.20 30.26Q17.93 32.62 15.52 36.82L15.52 36.82L15.52 36.82Q13.13 41.02 13.13 46.35L13.13 46.35L13.13 46.35Q13.13 51.67 15.52 55.88L15.52 55.88L15.52 55.88Q17.93 60.07 22.20 62.44L22.20 62.44L22.20 62.44Q26.47 64.80 31.88 64.80L31.88 64.80L31.88 64.80Q40.20 64.80 45.90 58.57L45.90 58.57L52.20 64.57L52.20 64.57Q48.52 68.85 43.16 71.10L43.16 71.10L43.16 71.10Q37.80 73.35 31.35 73.35L31.35 73.35ZM122.43 62.10L122.43 45.75L131.65 45.75L131.65 66.67L131.65 66.67Q127.60 69.90 122.20 71.63L122.20 71.63L122.20 71.63Q116.80 73.35 111.10 73.35L111.10 73.35L111.10 73.35Q103.08 73.35 96.63 69.86L96.63 69.86L96.63 69.86Q90.18 66.38 86.50 60.22L86.50 60.22L86.50 60.22Q82.83 54.07 82.83 46.35L82.83 46.35L82.83 46.35Q82.83 38.62 86.50 32.47L86.50 32.47L86.50 32.47Q90.18 26.32 96.66 22.84L96.66 22.84L96.66 22.84Q103.15 19.35 111.25 19.35L111.25 19.35L111.25 19.35Q117.85 19.35 123.25 21.52L123.25 21.52L123.25 21.52Q128.65 23.70 132.32 27.90L132.32 27.90L126.18 33.90L126.18 33.90Q120.18 27.90 111.70 27.90L111.70 27.90L111.70 27.90Q106.15 27.90 101.84 30.22L101.84 30.22L101.84 30.22Q97.53 32.55 95.09 36.75L95.09 36.75L95.09 36.75Q92.65 40.95 92.65 46.35L92.65 46.35L92.65 46.35Q92.65 51.60 95.09 55.80L95.09 55.80L95.09 55.80Q97.53 60.00 101.84 62.40L101.84 62.40L101.84 62.40Q106.15 64.80 111.63 64.80L111.63 64.80L111.63 64.80Q117.78 64.80 122.43 62.10L122.43 62.10ZM185.75 73.35L185.75 73.35Q179.68 73.35 174.01 71.63L174.01 71.63L174.01 71.63Q168.35 69.90 165.05 67.05L165.05 67.05L168.43 59.47L168.43 59.47Q171.65 62.02 176.34 63.64L176.34 63.64L176.34 63.64Q181.03 65.25 185.75 65.25L185.75 65.25L185.75 65.25Q191.60 65.25 194.49 63.37L194.49 63.37L194.49 63.37Q197.38 61.50 197.38 58.42L197.38 58.42L197.38 58.42Q197.38 56.17 195.76 54.71L195.76 54.71L195.76 54.71Q194.15 53.25 191.68 52.42L191.68 52.42L191.68 52.42Q189.20 51.60 184.93 50.55L184.93 50.55L184.93 50.55Q178.93 49.13 175.21 47.70L175.21 47.70L175.21 47.70Q171.50 46.27 168.84 43.24L168.84 43.24L168.84 43.24Q166.18 40.20 166.18 35.02L166.18 35.02L166.18 35.02Q166.18 30.67 168.54 27.11L168.54 27.11L168.54 27.11Q170.90 23.55 175.66 21.45L175.66 21.45L175.66 21.45Q180.43 19.35 187.33 19.35L187.33 19.35L187.33 19.35Q192.13 19.35 196.78 20.55L196.78 20.55L196.78 20.55Q201.43 21.75 204.80 24.00L204.80 24.00L201.73 31.57L201.73 31.57Q198.28 29.55 194.53 28.50L194.53 28.50L194.53 28.50Q190.78 27.45 187.25 27.45L187.25 27.45L187.25 27.45Q181.48 27.45 178.66 29.40L178.66 29.40L178.66 29.40Q175.85 31.35 175.85 34.57L175.85 34.57L175.85 34.57Q175.85 36.82 177.46 38.25L177.46 38.25L177.46 38.25Q179.08 39.67 181.55 40.50L181.55 40.50L181.55 40.50Q184.03 41.32 188.30 42.38L188.30 42.38L188.30 42.38Q194.15 43.72 197.90 45.19L197.90 45.19L197.90 45.19Q201.65 46.65 204.31 49.65L204.31 49.65L204.31 49.65Q206.98 52.65 206.98 57.75L206.98 57.75L206.98 57.75Q206.98 62.10 204.61 65.63L204.61 65.63L204.61 65.63Q202.25 69.15 197.45 71.25L197.45 71.25L197.45 71.25Q192.65 73.35 185.75 73.35L185.75 73.35Z" transform="rotate(0 105.13999629020691 46.35000038146973)"></path><defs id="SvgjsDefs1502"></defs></svg></g></svg>