<?xml version="1.0" encoding="UTF-8" standalone="no"?>
<svg
   xmlns:dc="http://purl.org/dc/elements/1.1/"
   xmlns:cc="http://creativecommons.org/ns#"
   xmlns:rdf="http://www.w3.org/1999/02/22-rdf-syntax-ns#"
   xmlns:svg="http://www.w3.org/2000/svg"
   xmlns="http://www.w3.org/2000/svg"
   version="1.1"
   id="GrinMint"
   x="0px"
   y="0px"
   width="50px"
   height="50px"
   viewBox="0 0 50 50"
   enable-background="new 0 0 50 50"
   xml:space="preserve"><metadata
   id="metadata11"><rdf:RDF><cc:Work
       rdf:about=""><dc:format>image/svg+xml</dc:format><dc:type
         rdf:resource="http://purl.org/dc/dcmitype/StillImage" /><dc:title></dc:title></cc:Work></rdf:RDF></metadata><defs
   id="defs9" />

<path
   style="fill:#009432"
   d="m 17.259136,20.611271 c 0,3.992 2.941,7.292 6.775,7.872 v -15.746 c -3.833,0.58 -6.775,3.88 -6.775,7.874 z"
   id="path2" />
<path
   d="M 49.492136,-0.13815201 H 0.97213559 c -0.653,0 -1.18506194,0.5300008 -1.184,1.18200001 l 0.0749054,45.989578 c 0.001064,0.652999 0.45509462,1.184 1.10909462,1.184 H 49.568041 c 0.653,0 1.109095,-0.531 1.109095,-1.184 V 1.043848 c -10e-4,-0.65200001 -0.352168,-0.83663731 -1.185,-1.18200001 z m -27.589,38.87842301 c -8.59,-1.566 -15.1080004,-9.084 -15.1080004,-18.129 0,-9.045 6.5180004,-16.5619998 15.1080004,-18.1289998 v 2.641 c -7.152,1.531 -12.5160004,7.8819998 -12.5160004,15.4879998 0,7.607 5.3650004,13.958 12.5160004,15.486 z m 4.666,0.402 h -2.536 v -5.234 c -6.814,-0.607 -12.155,-6.326 -12.155,-13.297 0,-6.972 5.342,-12.6919998 12.155,-13.2999998 v -5.303 h 2.536 v 5.323 c 4.962,0.494 9.117,3.7019998 10.97,8.1199998 h -6.25 c -1.185,-1.393 -2.836,-2.38 -4.72,-2.697 v 15.716 c 2.92,-0.496 5.293,-2.576 6.218,-5.322 h -4.26 v -5.355 h 4.154 2.064 3.54 c 0.195,0.909 0.3,1.852 0.3,2.818 0,6.925 -5.268,12.617 -12.016,13.287 z m 1.959,-0.396 v -2.643 c 7.17,-1.521 12.549,-7.875 12.549,-15.493 0,-7.621 -5.38,-13.9779998 -12.549,-15.4969998 v -2.638 c 8.608,1.555 15.142,9.0759998 15.142,18.1359998 0,9.055 -6.534,16.58 -15.142,18.135 z"
   id="path4"
   style="fill:#009432" />
<g
   id="g4618"
   transform="matrix(0.27014379,0,0,0.28140426,0.5736528,40.391911)"><rect
     y="0"
     x="0"
     height="100%"
     width="100%"
     id="backgroundrect"
     style="fill:none;stroke:none" /><g
     id="g4595"
     class="currentLayer"><title
       id="title4583">Layer 1</title><g
       class=""
       id="svg_1"
       enable-background="new    ">
	<path
   id="svg_2"
   d="m 18.746,12.495001 h 4.367 v 9.905 c -1.278,1.018 -2.77,1.799 -4.474,2.343 -1.704,0.545 -3.456,0.817 -5.254,0.817 -2.533,0 -4.8169997,-0.551 -6.8519997,-1.651 -2.036,-1.101 -3.633,-2.621 -4.793,-4.562 -1.15999996,-1.94 -1.73999996430665,-4.13 -1.73999996430665,-6.567 0,-2.437 0.58000000430665,-4.6269998 1.73999996430665,-6.5679998 1.16,-1.94 2.763,-3.462 4.811,-4.562 C 8.5990003,0.55000124 10.9,1.2359619e-6 13.456,1.2359619e-6 c 2.083,0 3.977,0.3430000040381 5.681,1.0289999640381 1.704,0.686 3.136,1.692 4.296,3.018 l -2.911,2.841 c -1.894,-1.894 -4.178,-2.841 -6.852,-2.841 -1.752,0 -3.308,0.367 -4.6689997,1.101 -1.361,0.734 -2.426,1.764 -3.195,3.089 -0.769,1.326 -1.154,2.8409998 -1.154,4.5449998 0,1.656 0.385,3.147 1.154,4.473 0.769,1.326 1.834,2.367 3.195,3.125 1.3609997,0.758 2.9049997,1.136 4.6329997,1.136 1.94,0 3.645,-0.426 5.112,-1.278 z"
   style="fill:#ffffff" />
	<path
   id="svg_3"
   d="m 45.444,25.205001 -5.077,-7.278 c -0.213,0.024 -0.532,0.036 -0.958,0.036 h -5.61 v 7.242 H 29.184 V 0.35200124 h 10.225 c 2.153,0 4.029,0.355 5.627,1.06499996 1.598,0.71 2.822,1.729 3.675,3.054 0.852,1.325 1.278,2.899 1.278,4.722 0,1.8699998 -0.456,3.4789998 -1.367,4.8279998 -0.911,1.35 -2.219,2.355 -3.923,3.018 l 5.716,8.166 z M 43.776,5.5360012 c -1.041,-0.852 -2.568,-1.278 -4.579,-1.278 H 33.8 v 9.9059998 h 5.397 c 2.011,0 3.538,-0.432 4.579,-1.296 1.042,-0.864 1.562,-2.089 1.562,-3.6749998 0,-1.586 -0.52,-2.805 -1.562,-3.657 z"
   style="fill:#ffffff" />
	<path
   id="svg_4"
   d="m 55.136,0.35200124 h 4.616 V 25.205001 h -4.616 z"
   style="fill:#ffffff" />
	<path
   id="svg_5"
   d="M 88.544,0.35200124 V 25.205001 H 84.745 L 71.041,8.3770012 V 25.205001 h -4.58 V 0.35200124 H 70.26 L 83.964,17.181001 V 0.35200124 Z"
   style="fill:#ffffff" />
</g><g
       class=""
       id="svg_6"
       enable-background="new    ">
	<path
   id="svg_7"
   d="M 113.786,25.205001 113.751,8.7310012 105.585,22.365001 h -2.06 L 95.36,8.9440012 V 25.205001 H 90.958 V 0.35200124 h 3.799 l 9.869,16.47399976 9.692,-16.47399976 h 3.799 l 0.036,24.85299976 z"
   style="fill:#4fb1e4" />
	<path
   id="svg_8"
   d="m 124.862,0.35200124 h 4.615 V 25.205001 h -4.615 z"
   style="fill:#4fb1e4" />
	<path
   id="svg_9"
   d="M 158.27,0.35200124 V 25.205001 h -3.799 L 140.767,8.3770012 V 25.205001 h -4.58 V 0.35200124 h 3.799 L 153.69,17.181001 V 0.35200124 Z"
   style="fill:#4fb1e4" />
	<path
   id="svg_10"
   d="m 169.986,4.2580012 h -8.237 V 0.35300124 h 21.089 V 4.2580012 h -8.236 V 25.205001 h -4.615 V 4.2580012 Z"
   style="fill:#4fb1e4" />
</g></g></g></svg>