<?xml version="1.0" encoding="UTF-8"?>
<svg width="567px" height="567px" viewBox="0 0 567 567" version="1.1" xmlns="http://www.w3.org/2000/svg" xmlns:xlink="http://www.w3.org/1999/xlink">
    <!-- Generator: Sketch 52.6 (67491) - http://www.bohemiancoding.com/sketch -->
    <title>2miners_sign_on red</title>
    <desc>Created with Sketch.</desc>
    <defs>
        <polygon id="path-1" points="0.06 0.07 566.929 0.07 566.929 567 0.06 567"></polygon>
    </defs>
    <g id="Page-1" stroke="none" stroke-width="1" fill="none" fill-rule="evenodd">
        <g id="2miners_sign_on-red">
            <g id="Group-3">
                <mask id="mask-2" fill="white">
                    <use xlink:href="#path-1"></use>
                </mask>
                <g id="Clip-2"></g>
                <path d="M283.465,567 C439.592,567 566.929,439.662 566.929,283.535 C566.929,127.408 439.592,0.07 283.465,0.07 C127.337,0.07 0,127.408 0,283.535 C0,439.662 127.337,567 283.465,567" id="Fill-1" fill="#E05848" mask="url(#mask-2)"></path>
            </g>
            <path d="M52.547,181.925 L72.248,151.188 L76.881,154.158 C102.935,113.753 136.693,81.911 190.499,61.315 L199.348,96.506 C159.473,111.905 126.567,138.208 103.081,170.951 L108.517,174.435 L88.817,205.173 L84.409,202.348 C65.94,240.477 58.728,284.242 65.661,328.453 C67.009,338.531 60.529,342.026 57.128,329.388 C46.959,277.761 48.114,229.684 61.999,187.984 L52.547,181.925" id="Fill-4" fill="#FFFFFE"></path>
            <path d="M523.375,181.925 L503.674,151.188 L499.041,154.158 C472.987,113.753 439.229,81.911 385.422,61.315 L376.574,96.506 C416.449,111.905 449.355,138.208 472.841,170.951 L467.405,174.435 L487.106,205.173 L491.512,202.348 C509.982,240.477 517.194,284.242 510.261,328.453 C508.913,338.531 515.393,342.026 518.794,329.388 C528.963,277.761 527.808,229.684 513.922,187.984 L523.375,181.925" id="Fill-5" fill="#FFFFFE"></path>
            <path d="M337.86,197.39 L337.861,197.39 C381.688,197.39 419.158,239.633 419.158,283.459 L419.158,320.044 C419.158,363.871 383.299,405.124 339.471,405.124 C295.645,405.124 255.74,352.251 258.188,308.492 L259.784,279.962 C262.233,236.203 294.032,197.39 337.86,197.39" id="Fill-6" fill="#FFFFFE"></path>
            <path d="M232.116,203.369 C275.042,203.431 310.143,238.568 310.143,281.506 L310.143,359.422 C310.143,379.17 259.162,398.667 232.116,400.779 C205.071,398.667 154.091,379.17 154.091,359.422 L154.091,281.506 C154.091,238.568 189.192,203.431 232.116,203.369" id="Fill-7" fill="#FFFFFE"></path>
            <path d="M419.237,374.412 C426.266,379.111 435.573,385.394 444.807,391.628 C458.875,401.126 472.778,410.512 477.629,413.654 L482.28,416.665 L466.515,441.261 L461.828,438.238 C455.919,434.426 441.998,425.043 427.975,415.593 C417.561,408.574 407.09,401.517 399.967,396.778 C402.266,394.703 404.482,392.532 406.609,390.278 C411.264,385.345 415.496,380.003 419.237,374.412 Z M130.037,391.234 C134.742,387.823 139.458,384.404 143.843,381.244 C149.165,387.961 157.707,394.154 167.782,399.494 L168.275,399.752 C162.131,404.129 154.627,409.56 147.144,414.974 C133.523,424.829 119.97,434.637 114.387,438.238 L109.7,441.261 L93.936,416.665 L98.587,413.654 C103.504,410.47 116.728,400.882 130.037,391.234 Z M484.733,200.112 C480.252,202.87 475.293,205.886 470.322,208.911 C467.321,210.735 464.315,212.563 461.405,214.34 C458.557,210.515 455.171,207.116 451.36,204.257 C451.616,203.136 451.834,201.995 452.015,200.839 C452.418,198.254 452.628,195.693 452.628,193.18 C452.628,190.67 452.442,188.204 452.08,185.796 L455.208,183.896 C459.917,181.036 464.617,178.182 468.962,175.507 L484.733,200.112 Z M107.103,175.742 L137.906,196.061 C133.011,204.087 128.784,212.957 125.259,222.692 L91.344,200.329 L107.103,175.742 Z" id="Fill-8" fill="#0A0B09"></path>
            <path d="M311.764,392.627 C320.251,396.779 329.492,399.178 339.131,399.178 L339.132,399.178 C357.966,399.178 375.321,389.309 388.48,375.365 C403.53,359.415 413.013,338.338 413.013,320.552 L413.013,281.89 C413.013,260.199 404.658,240.498 391.197,226.235 C377.824,212.062 359.391,203.265 339.132,203.265 L339.131,203.265 C331.612,203.265 324.345,204.477 317.494,206.726 C315.202,203.5 312.716,200.431 310.054,197.534 C319.136,194.016 328.931,192.095 339.131,192.095 L339.132,192.095 C362.578,192.095 383.881,202.245 399.313,218.599 C414.658,234.86 424.184,257.266 424.184,281.89 L424.184,320.552 C424.184,341.053 413.52,365.066 396.595,383 C381.484,399.015 361.317,410.348 339.132,410.348 L339.131,410.348 C325.317,410.348 312.272,406.217 300.741,399.322 C304.688,397.215 308.398,394.977 311.764,392.627" id="Fill-9" fill="#0A0B09"></path>
            <path d="M74.08,157.76 L60.394,179.112 L68.792,184.495 L67.426,188.601 C60.727,208.718 57.066,230.391 56.278,253.28 C55.835,266.129 56.301,279.372 57.646,292.951 C57.699,282.516 58.498,272.189 60.008,262.037 C63.293,239.942 69.932,218.631 79.539,198.797 L82.28,193.14 L87.279,196.344 L100.964,174.992 L100.217,174.513 L95.268,171.341 L98.69,166.571 C110.895,149.556 125.61,134.216 142.504,121.151 C157.641,109.446 174.519,99.59 192.899,92.017 L186.789,67.716 C163.15,77.4 143.629,89.392 127.031,103.433 C109.064,118.633 94.459,136.282 81.718,156.039 L78.699,160.721 L74.08,157.76 Z M48.003,177.786 L70.71,142.359 L75.398,145.364 C87.99,126.587 102.383,109.686 119.83,94.925 C138.727,78.938 161.147,65.504 188.661,54.973 L194.522,52.729 L206.104,98.793 L201.502,100.57 C182.363,107.961 164.87,117.933 149.311,129.965 C134.903,141.107 122.141,154.04 111.257,168.348 L111.675,168.616 L116.365,171.622 L90.648,211.744 L86.915,209.351 C79.232,226.518 73.854,244.778 71.048,263.652 C68.006,284.113 67.979,305.257 71.306,326.473 L71.328,326.604 C72.016,331.753 71.028,335.995 69.241,338.49 C68.011,340.207 66.367,341.333 64.422,341.774 C62.394,342.234 60.335,341.888 58.391,340.633 C55.891,339.019 53.444,335.49 51.885,329.7 L51.798,329.328 C46.589,302.88 44.312,277.291 45.151,252.931 C45.922,230.538 49.337,209.213 55.538,189.241 L49.683,185.487 L44.993,182.482 L48.003,177.786 Z" id="Fill-10" fill="#0A0B09"></path>
            <polyline id="Fill-11" fill="#0A0B09" points="108.957 166.874 113.647 169.885 107.626 179.266 102.935 176.255 91.364 168.839 86.674 165.828 92.695 156.447 97.385 159.458 108.957 166.874"></polyline>
            <path d="M508.512,147.049 L531.222,182.482 L520.677,189.241 C526.878,209.213 530.294,230.538 531.065,252.931 C531.904,277.291 529.627,302.88 524.417,329.328 L524.33,329.7 C522.772,335.49 520.325,339.019 517.825,340.633 C515.881,341.888 513.823,342.234 511.793,341.774 C509.85,341.334 508.205,340.207 506.974,338.49 C505.188,335.996 504.199,331.753 504.888,326.604 L504.91,326.473 C508.237,305.257 508.21,284.113 505.168,263.652 C502.363,244.778 496.984,226.518 489.301,209.351 L485.568,211.744 L459.851,171.622 L464.54,168.616 L464.959,168.348 C454.074,154.04 441.313,141.107 426.905,129.965 C411.346,117.933 393.853,107.961 374.713,100.57 L370.111,98.793 L381.694,52.729 L387.555,54.973 C415.069,65.504 437.489,78.938 456.385,94.925 C473.832,109.686 488.226,126.587 500.818,145.364 L505.505,142.359 L508.512,147.049 Z M515.822,179.112 L502.136,157.76 L497.516,160.721 L494.497,156.039 C481.757,136.282 467.152,118.633 449.186,103.433 C432.588,89.392 413.067,77.4 389.427,67.716 L383.317,92.017 C401.697,99.59 418.574,109.446 433.711,121.151 C450.606,134.216 465.321,149.556 477.526,166.571 L480.947,171.341 L475.998,174.513 L475.251,174.992 L488.937,196.344 L493.936,193.14 L496.677,198.797 C506.283,218.631 512.923,239.942 516.208,262.037 C517.717,272.189 518.517,282.516 518.57,292.951 C519.915,279.372 520.38,266.129 519.938,253.28 C519.15,230.391 515.489,208.718 508.79,188.601 L507.423,184.495 L515.822,179.112 Z" id="Fill-12" fill="#0A0B09"></path>
            <path d="M347.461,285.547 C344.138,302.88 328.897,315.977 310.596,315.977 L310.354,315.974 L310.354,285.547 L347.461,285.547" id="Fill-13" fill="#0A0B09"></path>
            <path d="M352.938,286.595 C351.013,296.63 345.601,305.435 338.009,311.702 C330.546,317.861 320.994,321.562 310.596,321.562 L310.354,321.561 L310.354,310.39 L310.596,310.392 C318.339,310.392 325.426,307.657 330.941,303.106 C334.813,299.91 337.919,295.812 339.943,291.132 L310.354,291.132 L310.354,279.962 L354.209,279.962 L352.938,286.595" id="Fill-14" fill="#0A0B09"></path>
            <path d="M421.194,285.547 C417.869,302.88 402.629,315.977 384.327,315.977 C366.026,315.977 350.785,302.88 347.462,285.547 L421.194,285.547" id="Fill-15" fill="#0A0B09"></path>
            <path d="M404.672,303.106 C408.544,299.91 411.652,295.813 413.675,291.132 L354.981,291.132 C357.003,295.812 360.111,299.91 363.983,303.106 C369.497,307.658 376.584,310.392 384.327,310.392 C392.071,310.392 399.158,307.658 404.672,303.106 Z M426.669,286.595 C424.745,296.629 419.333,305.435 411.741,311.702 C404.278,317.861 394.727,321.562 384.327,321.562 C373.929,321.562 364.377,317.861 356.914,311.702 C349.323,305.435 343.909,296.629 341.986,286.595 L340.713,279.962 L427.942,279.962 L426.669,286.595 Z" id="Fill-16" fill="#0A0B09"></path>
            <path d="M253.541,166.791 C253.229,168.087 253.32,167.78 252.803,169.99 C250.824,178.48 248.515,188.381 241.602,202.819 C238.538,202.445 235.423,202.245 232.263,202.241 C189.339,202.302 154.238,237.44 154.238,280.377 L154.238,325.121 L147.439,325.121 C142.05,325.121 137.155,322.92 133.61,319.375 C130.065,315.83 127.864,310.936 127.864,305.547 L127.864,286.717 C127.864,279.827 128.121,273.195 128.629,266.823 C131.529,230.408 142.671,203.652 160.767,185.874 C179.004,167.958 204.012,159.361 234.521,159.361 C239.043,159.361 243.727,159.555 248.567,159.94 L255.065,160.458 L253.541,166.791" id="Fill-17" fill="#0A0B09"></path>
            <path d="M283.428,229.161 C270.293,216.007 252.181,207.832 232.263,207.805 C212.345,207.832 194.234,216.007 181.1,229.161 C167.971,242.308 159.823,260.436 159.823,280.377 L159.823,358.293 C159.823,364.638 168.574,371.737 180.375,377.991 C196.555,386.567 217.864,392.841 232.263,394.052 C246.664,392.841 267.972,386.567 284.153,377.991 C295.952,371.737 304.704,364.638 304.704,358.293 L304.704,280.377 C304.704,260.436 296.556,242.308 283.428,229.161 Z M232.263,196.678 C255.273,196.71 276.179,206.138 291.325,221.307 C306.474,236.476 315.875,257.385 315.875,280.377 L315.875,358.293 C315.875,369.461 304.577,379.779 289.346,387.852 C271.751,397.178 248.379,403.988 232.678,405.213 L231.849,405.213 C216.148,403.988 192.776,397.178 175.182,387.852 C159.95,379.779 148.653,369.461 148.653,358.293 L148.653,280.377 C148.653,257.385 158.053,236.476 173.202,221.307 C188.348,206.138 209.255,196.71 232.263,196.678 Z" id="Fill-18" fill="#0A0B09"></path>
            <path d="M188.587,352.56 L183.001,352.56 L183.001,341.39 L265.027,341.39 C267.773,341.39 270.492,340.351 273.059,338.873 C275.956,337.205 278.81,334.872 281.354,332.723 L285.608,329.122 L292.808,337.63 L288.554,341.231 C285.677,343.662 282.396,346.331 278.6,348.516 C274.475,350.891 269.941,352.56 265.027,352.56 L188.587,352.56" id="Fill-19" fill="#0A0B09"></path>
            <path d="M232.263,285.547 C228.94,302.88 213.699,315.977 195.398,315.977 C177.096,315.977 161.856,302.88 158.532,285.547 L232.263,285.547" id="Fill-20" fill="#0A0B09"></path>
            <path d="M215.743,303.106 C219.615,299.91 222.721,295.812 224.744,291.132 L166.051,291.132 C168.074,295.813 171.181,299.91 175.053,303.106 C180.568,307.658 187.655,310.392 195.398,310.392 C203.141,310.392 210.228,307.657 215.743,303.106 Z M237.74,286.595 C235.815,296.63 230.403,305.435 222.811,311.702 C215.348,317.861 205.797,321.562 195.398,321.562 C184.999,321.562 175.448,317.861 167.985,311.702 C160.392,305.435 154.98,296.629 153.056,286.595 L151.784,279.962 L239.012,279.962 L237.74,286.595 Z" id="Fill-21" fill="#0A0B09"></path>
            <path d="M305.995,285.547 C302.671,302.88 287.432,315.977 269.13,315.977 C250.828,315.977 235.588,302.88 232.264,285.547 L305.995,285.547" id="Fill-22" fill="#0A0B09"></path>
            <path d="M289.474,303.106 C293.347,299.91 296.454,295.813 298.477,291.132 L239.783,291.132 C241.806,295.812 244.912,299.91 248.785,303.106 C254.299,307.658 261.387,310.392 269.13,310.392 C276.873,310.392 283.96,307.658 289.474,303.106 Z M311.472,286.595 C309.548,296.629 304.135,305.435 296.543,311.702 C289.08,317.861 279.529,321.562 269.13,321.562 C258.732,321.562 249.179,317.861 241.717,311.702 C234.125,305.435 228.712,296.629 226.788,286.595 L225.516,279.962 L312.743,279.962 L311.472,286.595 Z" id="Fill-23" fill="#0A0B09"></path>
            <polyline id="Fill-24" fill="#0A0B09" points="173.695 269.144 168.11 269.144 168.11 257.974 211.663 257.974 211.663 269.144 173.695 269.144"></polyline>
            <path d="M257.81,268.622 L253.948,272.636 L245.92,264.912 L249.782,260.898 C250.085,260.581 250.375,260.295 250.649,260.044 C255.428,255.649 262.796,253.392 270.035,253.364 C277.269,253.337 284.628,255.56 289.408,260.126 L289.419,260.114 C289.741,260.421 290.029,260.713 290.28,260.986 L294.054,265.088 L285.851,272.636 L282.076,268.535 C281.944,268.39 281.831,268.274 281.74,268.186 L281.74,268.164 C279.143,265.681 274.661,264.474 270.035,264.491 C265.406,264.508 260.882,265.778 258.197,268.247 C258.038,268.393 257.908,268.519 257.81,268.622" id="Fill-25" fill="#0A0B09"></path>
            <polyline id="Fill-26" fill="#0A0B09" points="339.317 352.135 333.732 352.135 333.732 340.964 368.175 340.964 368.175 352.135 339.317 352.135"></polyline>
            <polyline id="Fill-27" fill="#0A0B09" points="364.342 339.417 364.342 333.832 375.513 333.832 375.513 359.267 364.342 359.267 364.342 339.417"></polyline>
            <path d="M312.68,240.005 C258.337,258.448 226.79,222.939 213.485,185.18 C256.202,171.53 301.91,197.679 312.68,240.005" id="Fill-28" fill="#0A0B09"></path>
            <path d="M255.976,232.254 C269.144,239.533 285.636,241.985 305.794,236.309 C299.978,219.025 287.715,205.048 272.355,196.466 C257.138,187.962 238.889,184.777 220.87,188.936 C228.095,206.701 239.634,223.222 255.976,232.254 Z M314.469,245.285 C288.618,254.058 267.452,251.338 250.609,242.029 C229.838,230.549 216.011,209.123 208.227,187.035 L206.323,181.631 L211.805,179.879 C213.613,179.301 215.202,178.839 216.578,178.489 C237.954,173.05 259.715,176.648 277.766,186.735 C295.811,196.818 310.162,213.41 316.731,233.963 C317.289,235.714 317.745,237.275 318.09,238.631 L319.36,243.625 L314.469,245.285 Z" id="Fill-29" fill="#0A0B09"></path>
            <polyline id="Fill-30" fill="#0A0B09" points="475.998 176.255 471.308 179.266 465.286 169.885 469.978 166.874 479.926 160.499 484.616 157.488 490.638 166.869 485.948 169.88 475.998 176.255"></polyline>
            <path d="M299.592,149.966 C304.658,149.966 309.499,150.922 313.948,152.663 C320.67,140.548 333.589,132.348 348.425,132.348 C367.023,132.348 382.61,145.232 386.75,162.561 C391.286,160.74 396.24,159.735 401.427,159.735 C423.191,159.735 440.833,177.378 440.833,199.141 C440.833,203.27 440.198,207.25 439.02,210.991 C449.505,218.072 456.4,230.066 456.4,243.671 C456.4,263.765 441.358,280.347 421.92,282.771 C421.92,280.358 421.769,277.656 421.388,274.632 C420.075,264.203 416.029,249.952 409.178,238.477 C402.327,227.003 392.672,218.305 382.935,212.202 C373.198,206.099 363.379,202.589 353.549,200.857 C343.72,199.124 333.879,199.169 324.795,201.354 C321.68,202.103 318.654,203.104 315.728,204.32 C307.718,193.771 297.566,185.036 286.094,178.625 C279.535,174.96 272.543,172.054 265.271,169.999 C272.037,158.039 284.87,149.966 299.592,149.966" id="Fill-31" fill="#0A0B09"></path>
        </g>
    </g>
</svg>