<?xml version="1.0" encoding="utf-8"?>
<!-- Generator: Adobe Illustrator 23.0.2, SVG Export Plug-In . SVG Version: 6.00 Build 0)  -->
<svg version="1.1" id="Layer_1" xmlns="http://www.w3.org/2000/svg" xmlns:xlink="http://www.w3.org/1999/xlink" x="0px" y="0px"
	 viewBox="0 0 1607.4 1276.3" style="enable-background:new 0 0 1607.4 1276.3;" xml:space="preserve">
<style type="text/css">
	.st0{fill:#3CC68A;}
	.st1{fill:#424242;}
</style>
<g>
	<g>
		<path d="M523.7,976.8v99.7h-23.2l-44-53.1v53.1h-27.6v-99.7h23.2l44,53.1v-53.1L523.7,976.8L523.7,976.8z"/>
		<path d="M649.4,1054.7v21.8h-80.1v-99.7h78.2v21.8h-50.3v16.8h44.3v21.1h-44.3v18.2H649.4z"/>
		<path d="M734.3,1050h-15.4v26.5h-28.2v-99.7h45.6c9,0,16.9,1.5,23.5,4.5s11.8,7.3,15.4,12.8c3.6,5.6,5.4,12.1,5.4,19.6
			c0,7.2-1.7,13.5-5.1,18.9c-3.4,5.4-8.2,9.6-14.5,12.6l21.5,31.3h-30.2L734.3,1050z M747.7,1002.9c-2.9-2.6-7.3-3.8-13.1-3.8h-15.7
			v29.2h15.7c5.8,0,10.2-1.3,13.1-3.8c2.9-2.5,4.4-6.1,4.4-10.8S750.7,1005.4,747.7,1002.9z"/>
		<path d="M923,976.8l-42.7,99.7h-27.8l-42.6-99.7h30.5l27.1,65l27.6-65L923,976.8L923,976.8z"/>
		<path class="st0" d="M975,1071.8c-8.4-4.5-15-10.6-19.8-18.5s-7.2-16.8-7.2-26.6c0-9.9,2.4-18.8,7.2-26.6
			c4.8-7.9,11.4-14.1,19.8-18.5c8.4-4.5,17.9-6.7,28.4-6.7s20,2.2,28.4,6.7s15,10.6,19.8,18.5s7.2,16.8,7.2,26.6
			c0,9.9-2.4,18.8-7.2,26.6c-4.8,7.9-11.4,14.1-19.8,18.5c-8.4,4.5-17.9,6.7-28.4,6.7S983.5,1076.3,975,1071.8z M1017.2,1051.6
			c4.1-2.4,7.3-5.7,9.7-10s3.6-9.3,3.6-14.9s-1.2-10.6-3.6-14.9c-2.4-4.3-5.6-7.7-9.7-10c-4.1-2.4-8.6-3.6-13.7-3.6
			c-5,0-9.6,1.2-13.7,3.6c-4.1,2.4-7.3,5.7-9.7,10s-3.6,9.3-3.6,14.9c0,5.6,1.2,10.6,3.6,14.9c2.4,4.3,5.6,7.7,9.7,10
			c4.1,2.4,8.6,3.6,13.7,3.6C1008.5,1055.1,1013.1,1054,1017.2,1051.6z"/>
		<path d="M1110.9,1075.5c-7.6-2-13.8-4.7-18.5-8l9.3-20.8c4.5,2.9,9.6,5.3,15.5,7.1c5.9,1.8,11.7,2.7,17.4,2.7
			c10.8,0,16.2-2.7,16.2-8.1c0-2.9-1.5-5-4.6-6.3c-3.1-1.4-8.1-2.8-14.9-4.3c-7.5-1.6-13.8-3.3-18.8-5.2c-5-1.9-9.4-4.8-13-8.9
			s-5.4-9.6-5.4-16.5c0-6.1,1.7-11.6,5-16.5s8.3-8.8,14.9-11.6c6.6-2.9,14.7-4.3,24.3-4.3c6.6,0,13,0.7,19.4,2.2s12,3.6,16.8,6.5
			l-8.7,20.9c-9.5-5.1-18.7-7.7-27.6-7.7c-5.6,0-9.7,0.8-12.3,2.5c-2.6,1.7-3.8,3.8-3.8,6.5s1.5,4.7,4.6,6c3,1.3,7.9,2.7,14.7,4.1
			c7.6,1.6,13.9,3.3,18.9,5.2s9.3,4.8,13,8.8s5.5,9.5,5.5,16.5c0,6-1.7,11.4-5,16.2c-3.3,4.8-8.3,8.7-15,11.6s-14.7,4.3-24.2,4.3
			C1126.3,1078.5,1118.5,1077.5,1110.9,1075.5z"/>
	</g>
	<g>
		<polygon class="st1" points="429,197.8 429,323.6 429,449.4 429,575.2 554.8,575.2 554.8,449.4 554.8,323.6 554.8,197.8 		"/>
		<polygon class="st1" points="1052.6,449.4 1052.6,575.2 1052.6,701 1052.6,826.8 1178.4,826.8 1178.4,701 1178.4,575.2 
			1178.4,449.4 		"/>
		<polygon class="st1" points="801,197.8 801,323.6 801,443.9 926.8,569.7 926.8,449.4 926.8,323.6 		"/>
		<polygon class="st1" points="680.6,454.9 680.6,575.2 680.6,701 806.4,826.8 806.4,701 806.4,580.7 		"/>
		<polygon points="801,197.8 926.8,197.8 1178.4,449.4 1052.6,449.4 		"/>
		<polygon points="429,575.2 554.8,575.2 806.4,826.8 680.6,826.8 		"/>
		<polygon class="st0" points="926.8,323.6 926.8,449.4 926.8,568.1 554.8,197.8 554.8,323.6 554.8,331.3 554.8,449.4 554.8,575.2 
			680.6,701 680.6,575.2 680.6,456.6 1052.6,826.8 1052.6,701 1052.6,693.3 1052.6,575.2 1052.6,449.4 		"/>
	</g>
</g>
</svg>
